<?xml version='1.0' encoding='utf-8'?>
<svg xmlns="http://www.w3.org/2000/svg" width="171.68mm" height="75.564mm" version="1.1" viewBox="0 0 171.68 75.564"> <g transform="translate(345 -147.46)"> <path class="UnoptimicedTransforms" transform="translate(-35.826 31.169)" d="m-205.78 116.29v5.1e-4c-0.60907 2e-3 -1.2736 0.0692-2.0371 0.13281-1.9544 0.16227-3.3214 0.30328-4.101 0.42323-0.67555 0.10231-1.03 0.48257-1.0635 1.1405-0.0423 0.85195-0.80429 3.5825 0.57154 3.5745 0.0635 0 0.11468 0.01 0.15348 0.0289 0.0476 0.0265 0.0893 0.0572 0.12454 0.0925 0.0829 0.0811 0.0671 0.12607-0.0475 0.13487-2.8593 0.22226-6.1729 0.53883-9.9405 0.94982-0.5521 0.06-1.026-0.10554-1.4211-0.49713-0.0617-0.0617-0.0996-0.13496-0.11369-0.21963-0.42862-2.6669-0.39144-4.477-3.823-4.3129-0.98778 0.0459-2.9006 0.30716-5.7387 0.78341-1.7304 0.28839-1.109 2.8205-0.92914 4.0323 0.0574 0.38731 0.41008 0.66041 0.79943 0.61908l6.8657-0.75396c0.11111-0.0124 0.16228-0.0744 0.15348-0.18552l-0.34106-3.9129c-7e-3 -0.0917 0.0349-0.14288 0.1266-0.15348 2.3363-0.25929 2.3552 2.3045 2.5642 3.7703 0.0101 0.0706-0.0562 0.12852-0.12713 0.1111l-1.5084-0.39171c-0.10405-0.0282-0.16312-0.096-0.17725-0.2036l-0.34107-2.7652c-9e-3 -0.0723-0.0388-0.13387-0.0899-0.185l-0.0713-0.0687c-0.0617-0.0617-0.0851-0.0506-0.0692 0.0341 0.20635 1.106 0.29588 2.2247 0.26768 3.3554 4.2e-4 0.0545 0.0362 0.10131 0.0868 0.11369l2.4345 0.58704c0.1076 0.0264 0.19661 0.0831 0.26717 0.1695 0.25753 0.3228 0.58662 0.46134 0.98702 0.41548 4.7043-0.54328 9.2322-0.91267 13.584-1.1085 1.5187-0.0661 2.3152-0.50837 3.9424 0.0155 0.82197 0.26635 1.6615 0.47268 2.5187 0.61908 0.0617 0.0106 0.0988 0.0435 0.11111 0.0982 0.0194 0.0917-0.0168 0.13204-0.10852 0.12144-1.8203-0.19314-3.3049-0.93905-5.2152-0.62684-0.90222 0.14552-2.0183 0.0687-2.7538 0.11628-3.4342 0.22048-6.8644 0.50465-10.29 0.85214-2.413 0.24341-6.9746 0.57408-10.446 1.1271-0.088 0.0126-0.17009-0.0472-0.185-0.13487l-0.016-0.11111c-8e-3 -0.0463 0.0247-0.0896 0.0713-0.0951 2.7711-0.34396 5.4074-0.58865 7.9086-0.73329 0.0423-2e-3 0.0668-0.023 0.0739-0.0636 0.0141-0.0635-0.0112-0.0983-0.0765-0.10542-3.6645-0.43656-7.2602 0.0635-10.914 0.41806-0.1467 0.0113-0.16794 0.2177-0.0269 0.2589l2.1885 0.70125c0.20465 0.0692 0.17876 0.3665-0.0346 0.39946-2.6988 0.38982-5.3863 1.0135-8.062 1.8707-1.6969 0.54328-2.8159 1.0134-3.3574 1.4102-1.4684 1.0795-2.9419 1.8523-4.0902 3.2546-1.7568 2.1413-3.4126 4.3612-4.9666 6.6595-0.0415 0.0599-0.10838 0.0962-0.17984 0.0977l-8.4481 0.19843c-0.0917 2e-3 -0.17612-0.0228-0.25373-0.0739l-1.3415-0.88884c-0.0847-0.0564-0.17286-0.0627-0.26458-0.0186-0.13053 0.0635-0.23452 0.0918-0.31213 0.0847-1.9385-0.16404-3.8622-0.2789-5.7707-0.34417-0.1531-3e-3 -0.2578 0.15348-0.19585 0.29353l0.83612 1.8758h5.2e-4c0.0406 0.0882 0.0136 0.14183-0.0817 0.16123-2.861 0.59972-5.4791 1.7409-7.8533 3.4236-0.45773 0.32543-1.4974 0.86805-1.881 0.85215-4.9864-0.17991-9.1766-0.0838-12.57 0.28835-1.9597 0.2152-3.8567 0.67278-5.6911 1.373-3.9475 1.508-4.8524 7.5857-1.5689 10.247 0.0741 0.0617 0.11901 0.13958 0.13487 0.23306l0.80409 5.0374c0.0194 0.11992-0.0318 0.18852-0.15348 0.20619-1.4261 0.20108-2.8677 1.6801-1.648 3.0427 7e-3 7e-3 0.0114 0.0175 0.0129 0.0294l0.34675 2.0371c9e-3 0.0522 0.0543 0.091 0.10852 0.0925l1.7275 0.0212c0.0358-3.5e-4 0.0612 0.0359 0.0501 0.0718-9e-3 0.0282-0.0183 0.0558-0.0289 0.0816-0.0159 0.0459-0.0475 0.0687-0.0951 0.0687-1.3123 0.0212-4.498-0.2934-5.2891 0.95808-0.36689 0.57856-0.96517 1.7676-1.7942 3.5667-0.15542 0.3369-0.15256 0.7025 5e-3 1.0976 0.46302 1.1483 1.0849 1.7992 2.3973 1.8521 1.397 0.0582 2.794 0.0999 4.191 0.12454 0.61383 0.0106 1.3265 0.098 2.1378 0.26199 1.1395 0.22927 2.2822 0.34659 3.4287 0.35192 0.12951-5.7e-4 0.23795 0.0995 0.24908 0.22996 0.30956 4.0428 2.024 8.0833 5.4503 10.483 0.0935 0.0652 0.0831 0.10061-0.0315 0.10594l-22.701 1.0821c-0.0662 3e-3 -0.1314 0.0223-0.19069 0.0553-0.0406 0.0247-0.0697 0.0372-0.0873 0.0372-0.1086 3e-3 -0.1628 7e-3 -0.1633 0.0114 6e-3 5e-3 0.0598 0.0109 0.16072 0.0176 1.7973 0.127 3.533 0.26637 5.2069 0.41807 15.661 1.4075 31.322 2.8282 46.982 4.2623 1.4905 0.13757 2.5867 0.20997 3.2887 0.21704 7.1172 0.082 14.464 0.40251 21.555-0.10284 30.128-2.1564 57.455-4.1093 90.414-6.2472 1.748-0.11463 3.0543-0.17914 3.9186-0.19327 0.0318 0 0.065-0.01 0.10025-0.0289 0.0723-0.0423 0.0661-0.0668-0.0186-0.0739-5.5898-0.40922-11.178-0.82814-16.766-1.2568-1.778-0.13582-4.1239-0.18289-7.0378-0.14056-0.1058 2e-3 -0.13511-0.0456-0.0873-0.14262 1.2929-2.5912 1.9418-5.3448 1.9472-8.2605 0-0.0935 0.0433-0.12503 0.12971-0.0951 0.71614 0.24872 1.4783 0.29989 2.2862 0.15348 2.1008-0.381 5.9982-0.68251 9.1044-1.6138 0.0847-0.0247 0.16824-0.0214 0.25114 0.0103 1.0372 0.39423 2.5083 0.27531 2.8205-1.0423 0.35455-1.487 0.88875-4.9003-1.4474-5.0617-0.0882-5e-3 -0.1323-0.0535-0.1323-0.14521l0.0295-2.3998c2e-3 -0.10586 0.0491-0.18451 0.14263-0.23565 0.13053-0.0706 0.20376-0.17373 0.21962-0.30954 0.0106-0.0935-0.0106-0.17788-0.0636-0.25373-0.20637-0.29898-0.37798-0.47114-0.41238-0.85214-0.12965-1.4049-0.25931-2.7252-0.74879-4.0799-0.37042-1.0292-0.69866-1.8891-1.0955-3.0877-1.0478-3.1538-3.6379-4.2123-6.5536-5.0669-2.577-0.75318-5.1834-1.4147-7.8186-1.9844-0.0856-0.0188-0.16136-0.0655-0.21446-0.1323-0.90488-1.1377-1.8361-2.1641-2.5823-3.405-2.5065-4.1698-4.1011-6.8769-4.7837-8.1204-2.8918-5.2679-7.8579-7.5883-13.284-9.2816-6.5598-2.046-13.405-3.5313-20.535-4.4555-0.12066-0.0135-0.13267-0.18365-0.0155-0.21962 0.13579-0.0406 0.23352-0.12497 0.29352-0.25373 0.0388-0.0847 0.10496-0.13503 0.19844-0.1509 0.54504-0.09 0.89238 0.0927 1.0423 0.54777 0.0459 0.13782 0.0946 0.13646 0.14573 3e-3l0.14263-0.37879c0.0317-0.0829 0.0908-0.13572 0.17725-0.15865l1.2041-0.31729c0.0876-0.0237 0.15161-0.0995 0.16123-0.19069l0.045-0.47077c0.0123-0.12523-0.0388-0.2126-0.15348-0.262l-1.3121-0.57929c-0.0701-0.0311-0.11704-0.0973-0.12195-0.17209-0.0503-0.87306-0.18264-3.8495-1.0769-4.3496-0.74186-0.41453-1.4728-0.5328-2.3074-0.52968zm-0.42892 0.3023c0.31144-2e-3 0.61323 0.0176 0.90537 0.0584 0.30005 0.0373 0.28629 0.47665-0.0155 0.49506l-7.0115 0.49454c-0.11461 9e-3 -0.17502 0.0703-0.18035 0.185l-0.17415 3.2386c-3e-3 0.0998-0.12607 0.14531-0.19327 0.0713-0.0617-0.0653-0.0876-0.15838-0.077-0.28009 0.0864-1.053 0.16755-2.0523 0.2434-2.9978 0.0307-0.37632 0.32473-0.67817 0.70125-0.71985 1.8115-0.19932 3.555-0.37192 5.2307-0.51832 0.1938-0.0165 0.38416-0.0257 0.57102-0.0269zm1.527 0.22324c0.026 1e-3 0.0511 0.0101 0.0718 0.0258 0.20461 0.15168 0.44007 0.21157 0.70642 0.17984 0.35647-0.0427 0.68218 0.20448 0.73535 0.5581l0.50798 3.3605c0.0176 0.11287-0.0281 0.15317-0.13746 0.12144l-1.9208-0.5395c-0.0635-0.0176-0.0951-0.0601-0.0951-0.12713v-3.4499h-5.2e-4c-1e-3 -0.0731 0.0592-0.13226 0.13229-0.1292zm0.26768 0.35657c-0.0362 3e-3 -0.065 0.0327-0.0656 0.0698l-0.0543 3.1326c-6.9e-4 0.0396 0.0302 0.0717 0.0698 0.0724l0.0372 1e-3c0.0396 6.9e-4 0.0722-0.0307 0.0729-0.0703l0.0543-3.1321c6.9e-4 -0.0396-0.0302-0.0722-0.0698-0.0729l-0.0372-5.2e-4c-2e-3 -4e-5 -5e-3 -2e-4 -7e-3 0zm-22.726 0.81907c0.0757-3e-3 0.12423 0.0344 0.14573 0.11214l0.0558 0.21704c0.0282 0.11287-0.0151 0.17656-0.12971 0.19069l-6.5247 0.85421c-0.1658 0.0212-0.2581 0.1148-0.2775 0.2806-0.10759 0.9525-0.0273 1.8818 0.24081 2.7885 0.0318 0.10582-4e-3 0.14336-0.10852 0.11162-0.0847-0.0265-0.13176-0.079-0.14056-0.15658-0.11115-0.98682-0.37014-1.7114-0.18758-2.7326 0.17463-0.97098 0.71698-0.81512 1.479-0.93948 1.8026-0.29457 3.6131-0.53629 5.4317-0.72502 5e-3 -5.5e-4 0.0104-1e-3 0.0155-1e-3zm21.882 0.0413v1e-3c0.0348-8.6e-4 0.0615 5e-3 0.0801 0.016l0.0393-2e-3 0.0377 2.4117-0.64027 0.0279v-4e-3l-6.3758 0.58343c-0.097 9e-3 -0.14521-0.0353-0.14521-0.13229l0.0103-2.3916c0-0.1076 0.0487-0.13967 0.14572-0.0956 0.0547 0.0247 0.0909 0.0617 0.10852 0.1111 0.0212 0.0618 0.0644 0.0902 0.12971 0.0847l6.089-0.56224v-6e-3l0.11678-5e-3 0.38241-0.0351c8e-3 -6.6e-4 0.0147-1e-3 0.0217-2e-3zm-21.823 1.3839h5.1e-4c0.0548-3.6e-4 0.0853 0.0302 0.0915 0.092l0.1664 1.9182c7e-3 0.0723-0.0245 0.11264-0.0951 0.12144l-6.2916 0.82579c-0.0769 0.0103-0.14965-0.0356-0.17208-0.10852-0.19508-0.58291-0.1091-1.1629-0.11679-1.7224 0-0.11992 0.0591-0.18904 0.17725-0.20671l6.2151-0.91777c9e-3 -1e-3 0.017-2e-3 0.0248-2e-3zm22.116 1.4258c0.0127 5.8e-4 0.0272 3e-3 0.0424 8e-3 0.83609 0.22489 3.3097 0.78571 3.8018 1.4154 0.1334 0.17455-0.0277 0.41959-0.23823 0.36225l-4.3098-1.1348c-0.0371-9e-3 -0.0529-0.0317-0.0476-0.0687l0.0129-0.0868c4e-3 -0.0283 0.0194-0.0376 0.0476-0.0305 0.34747 0.0829 0.54591-0.0385 0.59531-0.36483 9e-3 -0.0674 0.0404-0.10105 0.0956-0.0987zm-0.17363 1.835c0.0697-2e-3 0.10561 0.0337 0.10748 0.10646l0.0212 0.78858c2e-3 0.0461-0.0203 0.0681-0.0661 0.0661l-9.1018-0.37568c-0.035 1e-3 -0.0433-0.0475-0.0109-0.0636 0.17727-0.0741 0.46065-0.0182 0.60617-0.0212 2.8169-0.0582 5.6266-0.22455 8.4295-0.49971 5e-3 -4.5e-4 0.01-1e-3 0.0145-1e-3zm0.69091 0.15555v5.2e-4c0.0319-6.3e-4 0.0659 2e-3 0.0997 8e-3 0.13085 0.0221 0.22953 0.0843 0.22065 0.13901-9e-3 0.0547-0.12315 0.0811-0.25424 0.0589-0.13071-0.0222-0.22913-0.0844-0.22014-0.13901 7e-3 -0.0388 0.0668-0.0653 0.15399-0.0672zm-28.839 0.71313h5.2e-4l1.772 0.24598h0.00104c1e-3 2.9e-4 2e-3 2e-3 2e-3 3e-3l-8e-3 0.0424c-0.0162 0.12036-0.20469 0.19375-0.42065 0.16381l-0.99477-0.14004c-0.214-0.03-0.37441-0.15028-0.35967-0.26975l5e-3 -0.0424c-2.3e-4 -2e-3 6.5e-4 -3e-3 3e-3 -3e-3zm16.896 0.0579c2.4897-2e-3 5.3438 0.0849 8.5623 0.262 7.5882 0.41804 15.452 2.2017 22.73 4.3501 3.8206 1.1271 8.0936 2.6325 11.136 5.2731 3.2994 2.8654 4.5641 6.9503 6.657 10.596 0.0565 0.097 0.12341 0.15526 0.20102 0.17466 0.0865 0.0212 0.10951-8e-3 0.0687-0.0873l-0.73019-1.4128c-0.13248-0.0952-0.20027-0.24169-0.2036-0.43925-2e-3 -0.0793 0.0361-0.11089 0.11369-0.0951 0.0582 0.0106 0.0944 0.0522 0.10852 0.12454 0.0388 0.20282 0.11284 0.33429 0.22221 0.39429 0.80189 1.4973 1.4296 2.567 2.265 4.0716h-5.1e-4c0.11818 0.13053 0.1873 0.24078 0.2067 0.33073 0.0194 0.0882-0.016 0.12439-0.10593 0.10852-1.1024-0.21343-1.8055-0.775-2.1089-1.6852-0.71261-2.1431-1.6956-4.3352-2.9497-6.5753-1.6669-2.9818-3.6673-4.5058-6.9851-5.7996-3.0215-1.1818-6.1092-2.1702-9.263-2.9657-8.1042-2.0479-16.069-4.0032-24.681-4.4742-10.774-0.59002-20.598-0.34896-30.633 2.2836-0.82728 0.21696-0.85381 0.14374-0.0796-0.21962 1.3829-0.64912 3.0224-1.1908 4.9186-1.6247 6.043-1.3811 11.309-2.2967 17.381-2.5321 0.98117-0.038 2.0376-0.0574 3.1693-0.0584zm-4.1476 2.2753c6.8753-0.0134 13.776 0.2802 20.534 1.5906 0.0723 0.0141 0.0993 0.0574 0.0816 0.12971l-3.606 14.137c-0.0265 0.10056-0.0918 0.14384-0.19585 0.12971l-12.221-1.6247c-0.0618-0.01-0.11348-0.0523-0.13487-0.11111l-0.13798-0.38912c-0.0251-0.0716-0.10181-0.1112-0.17467-0.0899l-0.43615 0.12196c-0.0899 0.0265-0.1803 0.0277-0.27026 8e-3 -1.3362-0.31485-2.5611-0.9367-3.8602-1.1431-2.4324-0.38276-4.2366-0.68139-5.4131-0.89659-0.6985-0.127-0.71431 0.11871-1.1271 0.56586-0.0587 0.064-0.14724 0.0921-0.23048 0.0708-0.86254-0.20991-1.7336-0.26734-2.6138-0.17209-0.3034 0.0335-0.40574-0.0947-0.30696-0.38395l0.80667-2.373c0.0689-0.20111 0.27125-0.32465 0.48162-0.29404 2.2781 0.34925 8.1993 1.437 9.5963 3.4267 0.20373 0.291 0.36812 0.31996 0.69091 0.38086 2.4924 0.46038 6.2785 0.98 11.358 1.5586 1.748 0.20108 2.8662-0.45874 3.3548-1.9792 1.113-3.466 1.8989-6.23 2.3575-8.292 0.35719-1.6219-1.8627-2.6565-3.1063-2.8391-6.7891-1.0001-14.044-1.1456-20.648-1.0583-4.7599 0.0609-9.5594 0.88108-14.221 1.7859-0.54769 0.10583-1.5586 0.40997-2.3735 0.51315-0.0924 3e-3 -0.11804-0.12579-0.0315-0.15865 0.80433-0.23282 1.6288-0.43753 2.4738-0.61391 5.1038-1.0663 10.334-1.8865 15.557-1.9632 1.2704-0.019 2.5431-0.0316 3.8163-0.0341zm-2.0764 0.70177h5.1e-4c0.71433-4.4e-4 1.433 0.0183 2.1596 0.0687 1.1183 0.0756 2.0931 0.11427 2.9239 0.11627 4.0357 7e-3 8.0549 0.27492 12.057 0.80409 0.91017 0.11994 1.5891 0.33796 2.0371 0.6537 1.7541 1.2409 1.0613 2.7726 0.49247 4.794-0.508 1.8079-0.94733 3.3094-1.3178 4.5036-0.37836 1.2224-0.95539 2.807-2.5694 2.7011-0.0741-5e-3 -0.0782-0.0243-0.0129-0.0579 0.96661-0.51506 1.6343-1.3913 2.003-2.6278 0.68615-2.2948 1.3476-4.5982 1.9844-6.9107 0.38886-1.4102-0.96588-2.445-2.1988-2.5905-7.1807-0.83784-14.685-1.1901-22.513-1.0578-0.25135 5e-3 -0.57979-0.1327-0.75706 0.17414-2.1008 3.6548-4.3177 7.403-6.6513 11.245-0.0249 0.04 3e-3 0.0918 0.0501 0.093 4.4344 0.0935 8.8679 0.27234 13.3 0.53692 1.307 0.0767 2.4659 0.5451 3.7042 0.92346 0.31046 0.0935 0.30476 0.12423-0.0181 0.0925-6.5104-0.63677-13.033-1.1139-19.566-1.4314-0.0159-2e-3 -0.0201-8e-3 -8e-3 -0.0186l0.062-0.0579c0.0141-0.0141 0.0293-0.0212 0.047-0.0212h2.0562c0.0847 0 0.13993-0.04 0.1664-0.11938 0.0461-0.13229 0.0681-0.27791 0.0661-0.43666 8e-5 -0.026 7e-3 -0.0516 0.0212-0.0739l6.1226-10.655c0.0529-0.0935 0.0262-0.13514-0.0796-0.12454-4.6954 0.46744-9.3747 1.2271-14.038 2.2784-1.4587 0.32984-2.6869 1.1514-3.6835 2.4655-0.8449 1.113-2.2955 3.1453-4.3522 6.0963-0.18168 0.26105-0.35018 0.3193-0.5054 0.17466l-0.30179-0.0108c-0.12878-4e-3 -0.15881-0.0596-0.0899-0.16898 0.44186-0.71702 1.1486-1.9871 2.0614-2.9528 0.0777-0.0781 0.20264 0.0229 0.13746 0.1111l-1.8469 2.6588c-0.0705 0.10056-0.0439 0.15553 0.0796 0.16433l0.11111 8e-3c1.3652-2.2348 2.8621-4.376 4.4902-6.4239 1.1571-1.457 2.636-2.3318 4.4369-2.6246 1.307-0.21431 2.675-0.57152 3.7254-0.74879 3.802-0.64823 7.6703-1.3044 11.531-1.4128 1.5623-0.0439 3.1122-0.13645 4.684-0.13746zm23.221 0.96067c0.0211-2e-3 0.0424 8.7e-4 0.063 5e-3l12.052 2.8179c0.11645 0.0265 0.18506 0.098 0.20619 0.21446l0.66973 3.6354c0.0987 0.127 0.0879 0.28134-0.032 0.46302l2.0216 8.9984c0.0177 0.0758-0.0115 0.12075-0.0873 0.13488-0.4145 0.0847-0.64995-0.0272-0.70642-0.3359-0.46919-2.5418-1.0196-5.0632-1.6511-7.5644-0.68791-2.7199-0.9419-4.0561-3.6856-4.715-2.1325-0.51505-4.28-0.94106-6.4425-1.278-1.7012-0.26723-2.2754 1.1058-2.6221 2.5187-0.45332 1.8433-0.9147 3.6858-1.3839 5.5273-0.25664 1.0054-0.57952 2.3602 0.11369 3.2598 0.0662 0.10469-0.0627 0.22278-0.16123 0.14779-0.51506-0.46744-0.70232-1.0478-0.56121-1.741 0.34396-1.6828 0.74627-3.3492 1.2066-5.0002 0.59531-2.1352 0.54503-5.4879 3.7517-4.9191 2.4677 0.43744 4.9055 1.0091 7.3132 1.7146 1.397 0.41011 1.9422 1.3945 2.5533 2.6856 0.0776-0.0317 0.12882-0.0396 0.15348-0.0238-0.57414-1.7833-0.96337-2.6934-2.8102-3.1326-2.5576-0.60854-5.1248-1.1714-7.7019-1.6883-1.6431-0.33073-2.2753 0.89429-2.651 2.249-0.73906 2.6688-1.413 5.3546-2.0216 8.0569-0.44186 1.9605 1.4977 2.336 2.8629 2.635 0.24264 0.0563 0.18925 0.41721-0.0584 0.39429l-3.852-0.34675c-0.22998-0.0201-0.39022-0.23734-0.34158-0.46302 1.0566-4.7396 2.2622-9.4392 3.6168-14.099 0.0243-0.084 0.0983-0.14399 0.18552-0.15038zm1.3405 2.9574c0.0323 3e-3 0.0588 0.0265 0.0646 0.0584l1.8206 10.017c7e-3 0.039-0.0188 0.0763-0.0579 0.0832l-0.11937 0.0217c-0.0388 7e-3 -0.0761-0.0185-0.0832-0.0574l-1.8206-10.017c-7e-3 -0.039 0.0188-0.0763 0.0579-0.0832l0.11937-0.0217c6e-3 -1e-3 0.0124-1e-3 0.0186-1e-3zm11.411 0.10955c0.0104-1.2e-4 0.0219 1e-3 0.0351 4e-3 4.198 1.0371 7.8603 2.237 10.986 3.5987 4.2597 1.8547 6.7757 7.0722 8.1912 11.319 0.11289 0.33514 0.41285 0.85098 0.89969 1.5477 0.0512 0.0734 0.12732 0.12604 0.21445 0.14831 0.80081 0.20637 1.5404 0.53629 2.2195 0.98961 0.13555 0.0968 0.0414 0.30992-0.12144 0.27491-9.8107-2.4844-19.1-3.6883-31.443-5.2255-0.097-0.0124-0.18737-0.0385-0.27027-0.0791-0.0512-0.0265-0.0939-0.0493-0.12919-0.0687-0.33914-0.19102-0.14995-0.70982 0.23254-0.63769 2.9501 0.52652 5.9292 0.79635 8.8925 1.2805 6.4849 1.061 13.01 1.9974 19.399 3.5161 0.1277 0.0313 0.23721-0.0951 0.18811-0.21704-1.2065-3.1088-2.5323-6.0695-4.6013-8.7126-2.6379-3.3681-7.3049-4.6061-11.409-5.5904-2.1802-0.52388-1.8234 1.68-1.572 2.8706 0.58562 2.794 1.2612 5.5613 2.0268 8.3023 0.0406 0.14112-0.0114 0.19854-0.15606 0.17208l-0.87282-0.15865c-0.1023-0.0176-0.16353-0.0784-0.18293-0.18242-0.83873-4.3735-1.852-8.0701-2.5823-13.063-9e-3 -0.0588 0.01-0.0883 0.0548-0.0889zm-56.342 1.9374c0.0372-4.3e-4 0.0744 3e-3 0.1111 9e-3l9.3085 1.633c0.1164 0.0194 0.14571 0.0817 0.0873 0.18759l-2.0268 3.6644c-0.0459 0.0831-0.11744 0.12638-0.21446 0.12971l-6.7815 0.24081c-0.0619 3e-3 -0.11981-0.0337-0.14521-0.0925l-0.1323-0.30696c-0.0286-0.0674-0.10173-0.1046-0.17466-0.0894l-2.0479 0.4098c-0.0799 0.0154-0.14777-0.0594-0.12454-0.13746l1.556-5.2074c0.0772-0.25902 0.31419-0.43699 0.58446-0.43976zm59.365 0.47904c0.0199-4e-4 0.038 2.2e-4 0.0548 1e-3 0.12173 9e-3 0.12727 0.0371 0.016 0.0847-0.53975 0.23547-0.82007 0.20096-1.2408 0.79892-0.0442 0.0632-0.14305 0.0401-0.15864-0.0372-0.0984-0.54465 0.92332-0.83941 1.3286-0.84749zm-61.106 0.2589v5.2e-4c0.0412-1e-3 0.0718 0.0379 0.0605 0.0775l-1.402 4.7098c-0.0335 0.10758-0.10674 0.16665-0.21963 0.17725l-0.88367 0.0816c-0.12521 0.0123-0.16223-0.0388-0.1111-0.15348 0.70203-1.5998 1.4874-3.1512 2.357-4.654 5e-3 -9e-3 0.0203-0.0475 0.045-0.11627 0.0212-0.0547 0.0666-0.0942 0.13539-0.11886 6e-3 -2e-3 0.0123-3e-3 0.0186-4e-3zm-1.7648 1.9115c0.0852 3e-3 0.13677 0.0952 0.0951 0.1695l-1.4661 2.7885c-0.0177 0.0342-0.0516 0.0572-0.0899 0.061l-0.9896 0.0899c-0.0998 8e-3 -0.16051-0.10723-0.0977-0.18501l2.4552-2.8815c0.0226-0.028 0.0571-0.0438 0.093-0.0424zm70.685 0.58705v5.1e-4c0.0151 1e-3 0.0297 6e-3 0.0429 0.0129 2.6935 1.4975 4.9213 5.0828 6.2363 7.7789 0.51858 1.0636 1.0445 2.1391 1.5772 3.2256 0.0488 0.0931-0.0744 0.18-0.14573 0.10283l-0.35192-0.35191c-7e-3 -5e-3 -0.0118-0.0138-0.0134-0.0238-1.2965-3.5428-3.8285-8.2599-7.0564-10.4-0.0391-0.0266-0.0899 0.0105-0.0765 0.0558l2.511 9.4588c4e-3 0.0143-2e-3 0.0201-0.016 0.0181-0.0406-4e-3 -0.0801-5e-3 -0.11886-3e-3 -0.0317 2e-3 -0.0522-0.0124-0.061-0.0424l-2.6381-9.6971c-0.0206-0.0713 0.0366-0.14113 0.11059-0.13487zm-56.723 0.13125c0.0485 2e-3 0.0861 0.043 0.0837 0.0915l-0.0925 1.9947c-3e-3 0.0441-0.0378 0.0794-0.0816 0.0822l-1.1617 0.0475c-0.07 4e-3 -0.1157-0.0722-0.0796-0.13229l1.2542-2.0422c0.0165-0.0267 0.0461-0.0426 0.0775-0.0413zm48.362 0.71831c2.6229 7e-3 5.2334 0.17226 7.8316 0.49506 0.22726 0.0289 0.41457 0.19316 0.47387 0.41548l2.0903 7.8817c0.0353 0.12873-0.0134 0.18237-0.14573 0.16124l-8.3845-1.3808c-0.10585-0.0176-0.17282-0.0783-0.20102-0.18242l-1.9213-7.0564c-0.0617-0.22226 0.024-0.33383 0.25683-0.33383zm-6.9525 0.21704c1.0079-2e-3 2.0165 0.0388 3.0262 0.12195 0.11817 0.0106 0.19057 0.0729 0.21704 0.18759l1.402 6.1123c0.0353 0.16052-0.0279 0.22749-0.19017 0.20102l-4.4344-0.69091c-0.14109-0.0229-0.15369-0.0757-0.0372-0.15865 2.7649-2.0055 0.48437-5.6461-2.4552-5.2756-1.2312 0.15522-1.9925 0.92149-2.2836 2.2991-0.0241 0.12799-0.20954 0.12048-0.22479-8e-3l-0.30438-2.373c-0.0123-0.1023 0.0326-0.14773 0.13488-0.1354 0.25223 0.03 0.49775 0.03 0.73587 0 1.4694-0.18433 2.9406-0.27733 4.4137-0.28008zm-6.504 0.55035c0.0882-2e-3 0.14105 0.0415 0.15865 0.12971l0.7276 3.7626c0.015 0.0805-0.028 0.1607-0.10335 0.19275-1.9103 0.83873-5.2992 0.0427-3.9393-2.881 0.44715-0.96044 2.2462-1.175 3.1564-1.2041zm-70.711 0.13023c8e-3 0 0.0175 1e-3 0.0274 2e-3 1.2718 0.15347 2.549 0.21552 3.8313 0.18552 0.0282-2e-3 0.0377 0.0111 0.0289 0.0393-9e-3 0.0229-0.0167 0.0472-0.0238 0.0718-5e-3 0.0121-0.014 0.0192-0.0264 0.0212-0.45684 0.0529-0.91443 0.0908-1.373 0.11369-0.5424 0.0291-1.0931 0.32513-1.7043 0.23513-0.0441-5e-3 -0.0615 0.0135-0.0527 0.0558l0.14263 0.75396c0.0265 0.14465 0.0839 0.15791 0.17208 0.0398l0.0584-0.0822c0.0423-0.0582 0.0998-0.0952 0.17208-0.1111 1.2894-0.29281 2.5761-0.59061 3.8602-0.894 0.62971-0.14816 1.0053 0.0738 1.4392 0.47335 0.11465 0.10584 0.0934 0.16655-0.0636 0.18242-1.972 0.18345-3.8777 0.64155-5.7175 1.3736-0.0988 0.0406-0.14367 8e-3 -0.13487-0.0982 5e-3 -0.0723 0.0236-0.13766 0.0553-0.19586 0.0282-0.0494 0.0802-0.0872 0.15607-0.11369 1.9896-0.71438 3.4213-0.72771 5.0405-1.2966 0.0578-0.0224 0.0394-0.10928-0.0212-0.10025-1.7621 0.15698-3.4599 0.56421-5.0932 1.2222-0.0564 0.0211-0.0964 5e-3 -0.11937-0.0501l-0.70074-1.7306c-0.0262-0.0648-0.011-0.0973 0.0465-0.0971zm75.072 0.0594c0.55844-1e-3 1.1397 0.22058 1.743 0.66508 0.0864 0.0634 0.0384 0.20036-0.0687 0.19585-1.6166-0.037-3.2994-0.066-3.3497 2.0216-9e-3 0.3268-0.4065 0.48235-0.63511 0.24856-0.46037-0.4736 0.24308-2.0481 0.65319-2.4159 0.52848-0.47564 1.081-0.71399 1.6573-0.71521zm18.728 0.80771c0.0271-2e-3 0.0532 0.0105 0.0698 0.032 1.7701 2.5188 2.8285 5.0775 4.207 7.8 0.0498 0.0956-0.0396 0.20439-0.14572 0.17725l-2.2009-0.57671v-5.2e-4c-0.0715-0.0177-0.12758-0.0746-0.14573-0.14779l-1.8598-7.1861c-0.01-0.0489 0.0257-0.0952 0.0755-0.0982zm-79.557 0.23512c16.904-0.0161 33.73 1.2032 50.475 3.6572 0.0599 9e-3 0.097 0.0428 0.1111 0.10283l0.13488 0.58756c0.0283 0.13957 0.23442 0.1163 0.23047-0.0264v-0.30696c0-0.0582 0.0291-0.0841 0.0873-0.077l3.037 0.34675c0.23963 0.0267 0.31074 0.34095 0.10594 0.46819-0.2787 0.17465-0.57954 0.20527-0.90227 0.0904-0.0385-0.0148-0.0797 0.0141-0.0791 0.0553v0.0796c1.6e-4 0.028 0.0135 0.0465 0.0398 0.0553 1.5187 0.49739 3.7228 0.32259 5.3578 0.44959 0.4445 0.0344 0.74338-0.21424 1.1508-0.17984 2.6176 0.22049 5.6769 0.58659 9.1782 1.0981 0.56092 0.082 2.1538 0.14031 2.7941 0.54777 0.29281 0.18697 0.79829 0.71367 1.5162 1.5798 0.0635 0.0759 0.0455 0.1099-0.0532 0.10283-0.92604-0.0582-3.0667-0.49446-3.7863 0.0558-0.0573 0.045-0.0813 0.12038-0.0605 0.19017l0.28267 0.92088c0.0255 0.0851 0.099 0.14593 0.18552 0.15347l2.0903 0.19844c0.11286 0.0106 0.17819 0.0713 0.19585 0.18242 0.0723 0.44803 0.33147 0.71097 0.77773 0.78858 0.3476 0.0585 0.67365-0.18343 0.71676-0.53175l0.10593-0.85214c8e-3 -0.10971 0.165-0.1206 0.18811-0.0129 1.1614 4.1698 1.5237 8.3924 1.8412 12.684 7e-3 0.0918-0.0354 0.13504-0.12713 0.12971l-19.481-1.0186c-0.13848-8e-3 -0.2478-0.11954-0.25166-0.25683-0.127-3.9299-0.52172-7.843-1.1849-11.739-0.27694-1.6298-0.83037-3.0646-1.6593-4.3046-0.0477-0.0706-0.0817-0.14758-0.10284-0.23048-0.0476-0.17816-0.17284-0.27507-0.37569-0.29093-11.385-0.94721-22.971-1.5745-34.393-1.1142-2.159 0.0864-4.193 0.59981-6.1014 1.54-0.40746 0.20109-0.85715 0.35132-1.3493 0.4501-4.5481 0.90487-5.6385 5.7307-6.628 9.4666-0.0265 0.0988-0.0896 0.14204-0.19017 0.1297-7.4665-0.86423-14.953-1.4863-22.458-1.8655-0.0741-4e-3 -0.10629-0.0422-0.0977-0.11628l0.14521-1.1746c0.0123-0.097 0.0673-0.15442 0.16433-0.17208 1.2488-0.23019 1.6562-0.9341 1.8758-2.1776 0.0811-0.4639 0.208-0.91687 0.38086-1.3596 0.0317-0.0812 7e-3 -0.13776-0.0739-0.1695l-1.2702-0.50022c-0.0862-0.0341-0.13119-0.12981-0.10335-0.21963 0.75936-2.3707 2.4131-5.0297 4.8472-5.9531 2.6326-0.99748 4.9238-1.3782 7.9427-1.4232 1.5907-0.0233 3.1809-0.0362 4.7702-0.0377zm60.915 0.5948h5.2e-4c0.5469-4e-3 1.165 0.19053 1.6588 0.36122 0.25748 0.0882 0.36943 0.2333 0.33589 0.43615-0.0371 0.22177-0.26297 0.35919-0.47904 0.29145-0.7276-0.22754-1.7384-0.68568-2.4474-0.29145-0.15765 0.0854-0.0997 0.32446 0.0796 0.32814l1.1508 0.0424c0.0933 3e-3 0.16626 0.0825 0.16175 0.17725l-0.0558 1.3999c-4e-3 0.0776-0.0444 0.11627-0.12196 0.11627-0.17639 4e-3 -0.34898-0.0468-0.51831-0.15089-0.36866 0.0899-0.73805 0.0546-1.1085-0.10594-0.083-0.0353-0.0846-0.0764-8e-3 -0.12402 0.0617-0.0353 0.13413-0.0312 0.21704 0.0129 0.37747 0.20461 0.6758 0.17139 0.89452-0.10025 0.0176-0.61384-0.30198-0.96877-0.95808-1.064-0.0899-0.0123-0.12862-0.063-0.11628-0.15296 0.13261-0.89689 0.67468-1.1717 1.3141-1.1762zm-75.204 0.66301c0.23749-0.011 0.35283 0.28584 0.16846 0.43356-1.7797 1.4464-3.024 3.2585-3.7331 5.4369-0.0389 0.1173-0.12127 0.215-0.22996 0.27285l-1.2805 0.68782c-0.0935 0.0494-0.14925 0.12589-0.16692 0.22996-0.17463 1.0134-0.8044 2.7044 0.39946 3.2944 0.18345 0.0882 0.26375 0.23388 0.24081 0.43666l-0.1297 1.1534c-7e-3 0.067-0.0441 0.10653-0.11111 0.11886l-14.078 2.6779c-0.10056 0.0176-0.14599-0.024-0.13539-0.12454 0.29369-2.6458 0.609-7.7153 4.038-8.1122 1.4216-0.1658 2.7155-0.58093 3.8814-1.2459 3.5666-2.0346 6.9401-4.6146 11.112-5.2576 8e-3 -1e-3 0.0162-2e-3 0.0243-2e-3zm73.727 1.0552c0.30966-3e-3 0.60592 0.0633 0.82372 0.22221 0.17108 0.12524 0.18659 0.27712 0.0476 0.45527-0.0564 0.0741-0.11798 0.0774-0.185 0.0103l-0.29921-0.29869c-0.13314-0.13148-0.33748-0.1588-0.50023-0.0661-1.1509 0.64823-3.1508 1.984-4.471 2.0634-0.10407 7e-3 -0.12993-0.0341-0.077-0.12402 0.51329-0.87577 2.7464-1.6193 3.7042-2.0505 0.28241-0.12823 0.62742-0.20904 0.95705-0.21187zm-36.198 1.5425c9.8425-6.5e-4 19.533 0.40494 29.072 1.217 0.0882 9e-3 0.1622 0.0458 0.2222 0.11111 0.71967 0.79374 1.186 1.6283 1.3994 2.5032 1.0398 4.2836 1.4765 9.2549 1.6273 13.559 4e-3 0.0937-0.0406 0.13946-0.13229 0.13746-1.9544-0.0212-3.9105-0.0827-5.8684-0.185-0.76024-0.0388-1.4887 0.0565-2.1854 0.28577-0.29831 0.1011-0.40139 0.47071-0.19844 0.71159 1.2144 1.4419 6.4663 1.3309 8.2946 1.3653 0.0726-8e-5 0.13115 0.0608 0.1297 0.13487-0.0847 3.4237-0.34381 6.8246-0.77773 10.202-0.22401 1.6757-0.61463 2.9433-1.172 3.8024-0.42068 0.64294-1.6672 2.0634-2.6804 2.1084-1.367 0.0601-2.7332 0.0571-4.0985-5e-3 -0.0988-4e-3 -0.13911-0.0534-0.12144-0.15038l0.93896-5.0483c0.21873-2.4129 0.17843-4.9029-0.12144-7.4693-0.35718-3.0426-1.122-6.2309-4.4716-7.1438-3.2526-0.889-6.3457-0.98263-9.279-0.2806-3.4819 0.83344-5.6806 6.5961-7.0828 9.6573-0.0665 0.14357-0.21712 0.22807-0.37311 0.20929l-2.1038-0.262c-0.0848-0.0121-0.1417-0.0934-0.12402-0.17725l0.24856-1.1405c0.0212-0.0988-0.0183-0.14831-0.11885-0.14831-0.99659-9e-3 -1.9855 5e-3 -2.9662 0.0398-1.0557 0.0371-2.0188 0.47326-3.2861 0.0264l-7.4662-0.0212c-0.0935 0-0.14056-0.0465-0.14056-0.14004v-0.0868c2e-3 -0.0809 0.0434-0.1196 0.12454-0.11627 2.0954 0.097 4.1926 0.13319 6.2916 0.10852 0.28576-4e-3 0.67063 0.0406 1.1539 0.13229 0.0176-0.10759 0.0626-0.21373 0.13487-0.31781 0.047-0.0665 0.12615-0.10201 0.20619-0.0925 1.898 0.22932 3.8045 0.31915 5.7201 0.26975 0.22048-5e-3 0.37318-0.0652 0.45785-0.17983 0.0899-0.12347 0.13076-0.27946 0.12196-0.46819-5e-3 -0.0864 0.0146-0.16672 0.0605-0.24081 0.4154-0.68262 1.5931-1.5056 0.5612-2.2888-0.6738-0.51153-1.5683-0.69991-2.683-0.56586-0.0811 0.0247-0.14103 0.0879-0.17983 0.19017l1.8071 0.14314c0.0453 0.0128 0.0424 0.0773-3e-3 0.0868l-7.8848 0.14263c-0.0537-1e-3 -0.0724 0.0705-0.0264 0.10076 0.11642 0.0705 0.23917 0.0747 0.36793 0.0129 0.0811-0.0391 0.16688-0.0573 0.25684-0.0553 2.5505 0.074 5.0999 0.0727 7.6486-8e-3 0.32985-0.0106 0.59198 0.15 0.786 0.48162 0.0459 0.0776 0.0396 0.15084-0.0186 0.21963-0.85725 1.0081-2.8758 0.41558-4.0452 0.32298-3.3884 0.22576-6.761 0.22994-10.118 0.0129-0.19052-0.0123-0.31112-0.0627-0.36225-0.15089-0.0617-0.10407-0.0851-0.25461-0.0692-0.45217-0.13935-0.59266-0.25913-1.1959-0.35967-1.8097-0.55298-3.3972-2.691-3.8841-5.8394-4.2783-4.0322-0.50623-8.0792-0.84701-12.141-1.0216-9e-3 0-0.0153 4e-3 -0.0186 0.0109-3e-3 0.0141-3e-3 0.0361 0 0.0661 4e-3 0.0196 0.0147 0.0313 0.0341 0.0346 1.2594 0.15699 2.5233 0.25472 3.7915 0.29352 1.1165 0.0344 2.249 0.21709 3.4396 0.30179 1.9985 0.14641 4.0577 0.40176 6.1779 0.76688 2.3839 0.4101 3.8526 1.1619 4.2892 3.5776 9e-3 0.0476 2e-3 0.0825-0.0212 0.10542-0.0458 0.0494-0.0774 0.0415-0.0951-0.0238-0.84932-3.1406-2.9743-3.2438-6.1361-3.638-4.295-0.53799-8.6096-0.89488-12.943-1.0713l-11.2-0.54001c-0.0939-4e-3 -0.16519-0.0852-0.15607-0.17726l0.0346-0.42323c0.19932-0.71432 0.54747-1.3513 1.0449-1.9105 0.06-0.0671 0.13402-0.0978 0.22221-0.0925 8.6836 0.508 17.349 1.2277 25.995 2.159 2.159 0.23284 4.178 1.3095 4.9082 3.6458 0.46038 0.70644-0.25382 1.3761-0.66921 1.8629-0.0587 0.0665-0.16785 0.0408-0.19068-0.045-0.1958-0.79551-0.44377-1.5789-0.74363-2.3497-0.0811-0.2099-0.22676-0.27522-0.43666-0.19585 0.67734 1.1853 1.0032 2.4679 0.97668 3.8473 1e-3 0.15373 0.21554 0.18946 0.26717 0.045 0.29898-0.95773 0.78306-2.1167 1.8123-2.4686 1.8865-0.64821 4.4397-0.15082 4.9821 2.0955 0.0203 0.0843 0.0943 0.14423 0.17983 0.14573l3.175 0.0636c-0.82197-0.19226-1.6898-0.24098-2.6035-0.14573-0.2347 0.0244-0.45481-0.11763-0.52917-0.34158l-0.27233-0.8201c-1.4658-1.7542-3.2147-1.7489-5.2731-1.278-0.0882 0.0194-0.14399-0.0146-0.16692-0.10284-1.0292-3.9211-4.4901-4.3818-7.9773-4.6199-0.0635-5e-3 -0.10798-0.0648-0.0951-0.12712 0.8175-4.0243 1.9344-9.7976 6.89-10.605 0.0849-0.0133 0.13812 0.0886 0.0791 0.1509-0.29897 0.32014-0.77765 0.52915-1.0237 0.83871-2.7173 3.4157-2.1354 8.8478 2.2593 10.557 2.3142 0.89959 4.4717 0.58219 6.472-0.9524 0.73025-0.65616 1.3326-1.5223 1.8071-2.5983 0.11175-0.25622-0.0856-0.5399-0.36276-0.52142l-0.47078 0.0295c-0.0846 5e-3 -0.12085-0.0339-0.10852-0.11679 0.0635-0.45861 0.0415-0.83425-0.0661-1.1271 0.15346-3.7386-1.59-7.101-5.7387-7.183l-0.99219 0.24598c-0.18698 0.0459-0.2017 0.0121-0.045-0.10077 0.1517-0.1129 0.36511-0.1902 0.64027-0.23254v-5.2e-4c2.0814-0.65444 4.3034-0.99223 6.6652-1.0134 1.0215-9e-3 2.041-0.0128 3.0592-0.0129zm-9.1958 1.5188-5.1e-4 5.2e-4c0.66027-6e-3 1.3689 0.11433 2.1177 0.38602 2.6907 0.97632 3.3337 4.9531 3.0877 7.4931-0.0129 0.11855-0.16726 0.15566-0.23254 0.0558-0.0282-0.0459-0.0361-0.11827-0.0238-0.21704 0.0582-0.46567-0.25961-0.78593-0.71469-0.63511-0.12764 0.0412-0.25856-0.0535-0.25941-0.18758 0.0159-2.4051-0.55794-4.5906-2.7037-5.9082-0.81757-0.50271-1.8071-0.36503-2.7332-0.31213 0.0652 0.0335 0.11426 0.0763 0.1478 0.1292 0.0564 0.0935 0.0319 0.15473-0.0739 0.18293-0.0388 0.0103-0.0829 9e-3 -0.13229-3e-3 -1.8732 0.45772-2.1115 1.5162-2.7755 3.1011-0.33162 1.6845-0.2105 3.3061 0.36276 4.8653 0.0282 0.0774 9.8e-4 0.11444-0.0822 0.1111-0.0282 0-0.0536-7e-3 -0.0765-0.0212-0.0177-0.0123-0.0331-0.0344-0.0455-0.0661-0.60325-1.6104-0.69308-3.2948-0.26975-5.0534l0.47387-1.1085c0.0328-0.0713-0.0468-0.14186-0.11368-0.10077-0.14111 0.0829-0.25351 0.22935-0.33642 0.43925-0.79022 1.9756-0.80139 3.8906-0.0341 5.7444 0.0288 0.0693 0.0831 0.1237 0.15089 0.1509 0.14286 0.06 0.18696 0.16806 0.13229 0.32504-0.0334 0.10463 0.095 0.18464 0.17415 0.10852l0.0693-0.0713c0.0494-0.0494 0.0913-0.044 0.12661 0.016 1.725 2.9289 5.2577 2.389 6.443-0.69866l5e-3 -0.73019c2e-3 -0.0867 0.0459-0.12913 0.13229-0.12713h0.0925c0.0703-4.6e-4 0.12567 0.0597 0.11938 0.12971-0.0105 0.14641 0.0161 0.26044 0.0796 0.34158l0.4284-1.2066c0.03-0.0847 0.0379-0.17204 0.0238-0.262l-0.41548-2.7042c-0.0123-0.0882-0.0597-0.14725-0.14263-0.17725-0.19928-0.0741-0.23142-0.20883-0.0956-0.40463 0.0487-0.068 0.0549-0.15802 0.016-0.23306-0.40922-0.77258-0.96045-1.4216-1.6536-1.9472-0.0617-0.0459-0.13034-0.0734-0.20619-0.0822-0.0265-2e-3 -0.0531-3e-3 -0.0796-3e-3 -0.0864-2e-3 -0.1297-0.0459-0.1297-0.13229 0-0.0318 4e-3 -0.0696 0.0109-0.11369l-0.84698-0.0372c-0.15346-7e-3 -0.16469-0.0512-0.0341-0.13229 0.28928-0.18168 0.61293-0.14712 0.971 0.10335v5.2e-4c1.9738 1.0557 2.7704 3.2623 2.7916 5.4028 0.0344 3.8074-4.2096 7.3261-7.4295 3.8892-3.3579-3.5812-1.1077-10.259 3.6845-10.3zm-42.831 0.0522c0.92295-1e-3 1.8403 6e-3 2.7471 0.0139 0.1099-1e-3 0.1302 0.15569 0.0238 0.18242-1.6951 0.46919-3.2864 1.1851-4.7734 2.1482-2.5823 1.6748-2.7411 6.5093-3.0851 9.3271-0.0123 0.097-0.0676 0.15226-0.1664 0.16639-2.4817 0.36513-4.0007 1.758-4.5563 4.178-0.0212 0.0899-0.0685 0.10744-0.14262 0.0527-1.3176-0.95246-2.6114-0.93015-3.8814 0.0661-0.0261 0.0225-0.0672 7e-3 -0.0744-0.0289l-0.73277-4.0085c-0.0224-0.12999 0.1122-0.23044 0.23048-0.17208 5.6276 2.8336 7.6303-3.5216 6.2968-7.4771-0.57679-1.7109-1.8564-2.8039-3.839-3.2784-0.0321-3e-3 -0.0321-0.0498 0-0.0527 3.8459-0.94804 7.9538-1.1118 11.953-1.1172zm3.5817 0.26923c0.0163-1e-3 0.031 3e-3 0.0439 0.0119 0.0405 0.0283 0.0358 0.0528-8e-3 0.0739l-0.6165 0.29146-2.1668 0.84646-1.3942 0.56637c-0.0299 0.0105-0.0504 1e-3 -0.061-0.0269-0.0123-0.0353-7e-3 -0.0581 0.016-0.0687 0.43038-0.18521 0.8572-0.37657 1.2805-0.57412l2.1828-0.88367c0.23637-0.0512 0.46393-0.12602 0.68265-0.22479 0.0147-7e-3 0.0282-0.011 0.0408-0.0119zm97.454 1.1519c0.3715 4e-3 0.77802 0.18433 1.0702 0.22531 5.6497 0.79904 11.256 1.8324 16.82 3.1006 0.0953 0.0212 0.11977 0.0753 0.0739 0.16175-0.0141 0.0247-0.0332 0.0451-0.0579 0.061-0.0229 0.0141-0.0528 0.0182-0.0899 0.0129-2.2331-0.35453-4.2034-0.34127-5.9108 0.0398-2.3707 0.52652-2.5215 4.3654-2.9978 6.4053-0.43657 1.8706-0.40757 3.9295-0.43667 5.8689-1e-3 0.0482-0.0417 0.0862-0.0899 0.0847l-4.2152-0.18035c-0.25574-0.0106-0.3905-0.1437-0.40463-0.39946-0.24606-4.2386-0.61356-8.4294-1.8412-12.425-0.39423-1.2753-1.019-2.0479-1.9715-2.9078-0.0202-0.0153-9e-3 -0.0476 0.016-0.0475 0.0119-2.5e-4 0.0237-6.5e-4 0.0357-5.2e-4zm-113.39 0.15606c0.88422-3e-3 1.7352 0.32402 2.481 0.96067 1.5743 1.3387 1.9104 3.5296 1.6459 5.4927-0.0123 0.10056-0.0698 0.14763-0.17209 0.14056l-1.1617-0.0796c-0.10056-7e-3 -0.16834 0.0362-0.20361 0.12971-0.62971 1.6642-1.2882 3.3525-3.2778 3.4742-1.7595 0.10848-3.1516-1.1272-3.6649-2.7544-0.51329-1.6219-0.0527-3.9346 0.89452-5.3263 1.6986-2.4923 4.5771-1.2035 5.5878 1.0454 0.067 0.44097 0.21563 0.75539 0.44494 0.94413-0.46037-2.3936-1.8544-3.6087-4.1827-3.6458-5e-3 -2e-3 -7e-3 -9e-3 -3e-3 -0.0129 0.53876-0.24507 1.0812-0.36643 1.6118-0.36845zm55.048 0.19792h5.1e-4c0.92688-0.0105 1.8886 0.53479 2.6329 1.8294 0.0175 0.0335 0.025 0.0643 0.0217 0.0925-4e-3 0.0229-0.0111 0.045-0.0217 0.0661-0.0108 0.0176-0.012 0.035-3e-3 0.0527 0.45334 1.016 0.70377 2.0806 0.75137 3.1936 4e-3 0.0794-0.0343 0.12427-0.11368 0.13487l-0.077 0.0109c-0.0385 5e-3 -0.0585-0.0118-0.0605-0.0506-0.10584-1.614-0.50837-3.9475-1.9027-4.7677-0.57414-0.33596-1.262-0.19312-1.9208-0.21962-0.0864-3e-3 -0.16756 0.0153-0.2434 0.0558-0.41275 0.21696-0.47889 0.36586-0.19844 0.447l0.41031-0.26458c1.2753 0.097 2.2267 0.8924 2.8546 2.3864 0.0829 9e-3 0.16566 0.12614 0.24856 0.35191 0.0801 0.12336 0.14266 0.25616 0.18966 0.39688-1.4361 0.0274-3.4841 6e-3 -4.8932-0.20619h-5.2e-4c-0.23443 0.0474-0.46261-3e-3 -0.68471-0.1509-0.0653-0.0423-0.0903-0.1014-0.0744-0.17725 0.36608-1.8829 1.6852-3.1654 3.0846-3.1812zm-56.247 0.82579c-3.0301-0.0116-3.8858 5.0536-2.4345 7.2342 1.1165 1.6774 3.8019 2.3128 5.0772 0.40514 0.70908-1.0619 1.0287-2.2854 0.95809-3.6701l-0.45011-1.7513c-0.55387-1.1254-1.3318-1.8255-2.3337-2.1006-0.28794-0.0788-0.56022-0.11633-0.81701-0.11731zm112.22 0.64182 3.2055 0.2744c0.0394 3e-3 0.0686 0.0381 0.0651 0.0775l-0.01 0.11575c-3e-3 0.0394-0.0381 0.0686-0.0775 0.0651l-3.2055-0.27441c-0.0394-3e-3 -0.0686-0.0381-0.0651-0.0775l0.0103-0.11627c4e-3 -0.039 0.038-0.0678 0.077-0.0646zm0.62477 0.71417c0.24956-2e-3 0.56759 0.0233 0.894 0.0703 0.73844 0.1064 1.322 0.29484 1.3028 0.42065-0.0189 0.12563-0.6313 0.1416-1.3684 0.0351-0.73724-0.10624-1.3204-0.29429-1.3028-0.42013 9e-3 -0.0653 0.18174-0.10392 0.47439-0.10594zm-112.6 0.29301c0.88387 6e-3 1.8173 0.71309 2.3725 1.6299 0.2064 0.28751 0.33159 0.58286 0.37569 0.88625 0.0141 0.0864-0.0229 0.12527-0.1111 0.11627-1.1324-0.10054-2.2226-0.3092-3.3471-0.43356-0.39335-0.0441-0.7652-0.16931-1.1162-0.37569-0.0759-0.0441-0.0955-0.10612-0.0584-0.18552 0.0265-0.0582 0.0643-0.10641 0.11369-0.14521 0.42598-1.0765 1.0835-1.4968 1.771-1.4924zm115.33 0.34106c0.0488-6e-3 0.0633 0.0831 0.0434 0.26768-0.0459 0.44274-0.24594 0.57667-0.60048 0.40205-0.11743-0.0559-0.0956-0.22922 0.032-0.25425 0.15522-0.03 0.2712-0.10567 0.34882-0.22738 0.0795-0.12038 0.13826-0.18318 0.17621-0.1881zm13.312 0.45734c4.5102-0.0328 11.755 2.1648 14.134 2.9879 3.3549 1.1589 4.3342 2.7702 5.2576 6.0405 0.0114 0.0392-0.024 0.076-0.0636 0.0661-5.8155-1.2294-11.681-2.0357-17.597-2.4184-1.1906-0.0794-2.7094-6e-3 -4.0773-0.12196v5.2e-4c-0.87312-0.074-1.6565-0.0852-2.5032-0.0822-0.097 0-0.14195-0.0487-0.13488-0.14573 0.13759-1.7277 0.48952-4.1064 1.6299-5.3764 0.60186-0.66978 1.8199-0.93917 3.3548-0.95033zm-75.529 0.85369v5.2e-4h5.1e-4c0.66146 5.1e-4 1.3223 0.11901 1.9823 0.35553 2.1538 0.0511 2.8242-0.72471 2.6035 1.4604 1.6819 2.4807-5.5706 4.7685-5.2333-1.2992-0.0293-0.26677 0.17368-0.50246 0.44183-0.51314 0.0683-2e-3 0.13688-4e-3 0.20516-4e-3zm-55.122 1.1658c1.1589-0.0141 2.3024 0.18761 3.4313 0.60565 0.18344-0.0176 0.36609 0.0523 0.54777 0.20929 0.23813 0.0723 0.43031 0.18421 0.57671 0.3359 0.0653 0.067 0.0803 0.14486 0.045 0.23306-0.50094 1.2206-1.4145 1.8949-2.7409 2.0236l-0.75395-0.22221c-0.20814-0.0159-0.38289-0.14734-0.524-0.39429l-0.60048-1.1162c-0.0459-0.09-0.0654-0.25302-0.0584-0.48938-0.1376-0.32103-0.16997-0.66807-0.0977-1.0402 0.0176-0.095 0.0759-0.14321 0.17467-0.14521zm25.694 1.2676c0.35801-2e-3 0.87136 0.0152 1.5394 0.0527 6.902 0.39335 13.789 0.9658 20.661 1.7172 0.11287 0.0123 0.15532 0.0739 0.12712 0.185l-0.17466 0.68782c-0.0282 0.10934-0.0982 0.15806-0.20929 0.14573-7.096-0.80433-14.25-1.3284-21.378-1.7994-0.90312-0.06-1.7968-0.0271-2.6805 0.0982-4.2686 0.60854-8.5232 1.3395-12.764 2.1931-0.10732 0.0203-0.19794-0.0804-0.1664-0.185l0.0713-0.23047c0.0194-0.0617 0.0597-0.0996 0.12144-0.11369 4.759-1.0795 9.5507-1.9881 14.375-2.7254 0.10319-0.0159 0.26217-0.0243 0.47698-0.0258zm-1.5952 1.5017c0.0684-2.1e-4 0.11346 0.0712 0.0837 0.13281l-0.83302 1.6061c-0.0406 0.0776-0.10508 0.1217-0.19327 0.1323-4.2686 0.49918-8.527 1.07-12.774 1.712-0.80427 0.12171-3.2143 0.56879-3.6535 1.2619h-5.2e-4c-0.0599 0.0935-0.0396 0.11585 0.061 0.0661 1.1554-0.57856 2.3601-0.95584 3.6142-1.1322 2.458-0.34131 4.9399-0.643 7.382-1.0558 1.2832-0.21696 2.6034-0.26192 3.839-0.44183 0.53623-0.0776 1.0733-0.15248 1.6113-0.2248 0.0758-0.0106 0.11369 0.0226 0.11369 0.10026v0.10593c0 0.0758-0.037 0.12238-0.1111 0.14005-0.52916 0.12695-1.2167 0.1431-1.603 0.1881-4.9935 0.58384-9.4054 1.2241-13.235 1.9208-0.98425 0.17992-1.7459 0.7216-2.2856 1.6247-0.0441 0.0741-0.0661 0.1552-0.0661 0.24339 0 0.1058-0.037 0.18693-0.11111 0.2434-0.0776 0.0582-0.10691 0.0394-0.0873-0.0558 0.62971-3.1565 2.5531-3.9554 5.6064-4.3946 4.138-0.59531 8.62-0.9925 12.618-2.1699 8e-3 -2e-3 0.0164-3e-3 0.0248-3e-3zm72.423 0.14521c-0.64971-4e-3 -1.1687 0.61948-1.1772 1.3637-2e-3 0.10406-0.0538 0.14816-0.15606 0.1323-0.96131-0.14462-1.9277-0.13756-2.8996 0.0212a0.21167 0.21167 0 0 0-0.032 0.41031c0.89958 0.30342 1.8289 0.4673 2.7885 0.49196 0.097 4e-3 0.15114 0.0539 0.16174 0.1509 0.14552 1.2465 1.6481 2.9608 2.635 1.2516 0.25929-0.45244 0.57983-1.5826 1.1963-1.5746a0.14552 0.18256 79.5 0 0 0.0367-0.29352l-0.52142-8e-3c-0.0176 0.18168-0.0838 0.31613-0.19844 0.40256a0.071438 0.074083 62.3 0 1-0.11369-0.0346l-0.0341-0.10594c-0.0247-0.0723-3e-3 -0.12675 0.0636-0.16381 0.0635-0.0373 0.12585-0.0576 0.18759-0.061-0.48418-0.57679-0.83321-1.5505-1.4206-1.8495-0.17628-0.0908-0.35063-0.13237-0.51625-0.13333zm-0.0537 0.33538c0.0305-1e-3 0.0618 2e-3 0.0935 0.01 0.635 0.1614 1.0186 0.6374 1.2594 1.201 0.0176 0.0439 3e-3 0.0643-0.045 0.061l-1.6247-0.11627a0.11642 0.11642 0 0 1-0.0765-0.19586l0.49765-0.51883a0.11377 0.11642 70.2 0 1 0.19843 0.0925c-0.0353 0.29457 0.0829 0.48891 0.3545 0.5824a0.13758 0.13758 0 0 0 0.1478-0.21963l-0.51315-0.60358a0.29104 0.29369 33.2 0 0-0.50281 0.10594c-0.0953 0.3175-0.26456 0.5829-0.50798 0.79633a0.16669 0.16669 0 0 1-0.26458-0.19275c0.18344-0.41099 0.46218-0.72972 0.83612-0.9555 0.0474-0.0286 0.0964-0.044 0.14728-0.0465zm-3.8251 1.2635 5.3712 0.35709c0.20109 0.6932 0.0484 1.3106-0.45785 1.8521-0.0635 0.0671-0.12965 0.07-0.19844 8e-3 -0.0211-0.0194-0.0369-0.0415-0.0475-0.0662-0.0265-0.0564-0.0169-0.10598 0.0289-0.14831 0.32984-0.31044 0.4771-0.74054 0.44184-1.2909l-2.0609-0.032c-0.14817 1.2462 0.55029 1.3732 1.479 1.7859 0.13231 0.06 0.12604 0.0899-0.0186 0.0899-1.0927 0.0106-1.8387-0.81489-1.7276-1.897l-2.8314-0.49455a0.082846 0.082846 0 0 1 0.0212-0.16433zm33.059 0.1509c0.0152-8.6e-4 0.0303-8.6e-4 0.0455 0l4.0085 0.23564c0.12346 7e-3 0.15423 0.0645 0.0925 0.17208-0.92604 1.6219-0.8786 3.5477-1.0506 5.3521-8e-3 0.0829-0.0891 0.13855-0.1695 0.11679l-0.56328-0.15089-2.0614-0.13746-0.74052 0.0636c-0.13583 0.0106-0.20034-0.0531-0.19327-0.19069l0.25115-5.0798c0.0104-0.20597 0.17489-0.3707 0.38085-0.38137zm4.9615 0.31212c6.2997 0.0635 12.883 1.0825 19.031 2.4107 1.3362 0.28839 1.5055 4.0057 1.5105 5.0746 0 0.0988-0.0482 0.13911-0.14521 0.12144-1.0954-0.19579-2.2068-0.40436-3.2758-0.52606-6.0077-0.67028-12.195-1.1575-18.561-1.4609-0.10583-5e-3 -0.15865-0.0606-0.15865-0.16639 0.0132-1.5743 0.0978-4.2204 1.3705-5.3687 0.0653-0.0565 0.14147-0.0847 0.2279-0.0847zm-34.326 0.45217a0.26458 0.26458 0 0 1 0.0698 8e-3l0.54777 0.14056c0.0723 0.0176 0.1031 0.0626 0.0925 0.13487l-0.016 0.12971a0.097896 0.097896 0 0 1-0.16382 0.0605c-0.10407-0.0952-0.1977-0.0882-0.2806 0.0212v5.2e-4c-0.0776 0.10056-0.058 0.17624 0.0584 0.22737l0.58756 0.25632a0.084667 0.084667 0 0 1-0.0294 0.16175c-0.56973 0.0229-0.94076-0.24165-1.1136-0.79375a0.26458 0.26458 0 0 1 0.24753-0.34727zm29.481 3e-3c-0.0912 2e-3 -0.16557 0.0747-0.16847 0.16691l-1e-3 0.0212c-3e-3 0.0952 0.0717 0.17425 0.16691 0.17725l2.8877 0.0904c0.0952 3e-3 0.17426-0.0712 0.17725-0.1664l5.2e-4 -0.0212c3e-3 -0.0952-0.0712-0.17426-0.1664-0.17725l-2.8877-0.0904c-3e-3 -9e-5 -6e-3 -5.7e-4 -9e-3 -5.1e-4zm2.6329 0.61339-2.6562 0.0233c-0.0982 8.6e-4 -0.17655 0.0806-0.1757 0.1788v0.0212c8.6e-4 0.0982 0.0806 0.17655 0.1788 0.1757l2.6567-0.0233c0.0982-8.5e-4 0.17656-0.0806 0.1757-0.1788l-5.2e-4 -0.0212c-8.6e-4 -0.0982-0.0806-0.17655-0.1788-0.1757zm-2.6789 0.56431c-0.10406-1e-3 -0.18856 0.082-0.18965 0.18604l-5.1e-4 0.0212c-1e-3 0.10407 0.082 0.18857 0.18603 0.18966l2.5399 0.0269c0.10406 1e-3 0.18856-0.082 0.18965-0.18604l5.2e-4 -0.0212c1e-3 -0.10407-0.082-0.18857-0.18604-0.18966zm1.0676 0.60358a1.5478 0.25929 0.3 0 0-1.448 0.25115 1.5478 0.25929 0.3 0 0 1.5462 0.26717 1.5478 0.25929 0.3 0 0 1.5493-0.25115 1.5478 0.25929 0.3 0 0-1.5462-0.26717 1.5478 0.25929 0.3 0 0-0.10129 0zm-101.24 0.60152h5.2e-4c1.2362-6e-3 2.6178 0.43734 3.576 0.90123 0.24871 0.0635 0.44715 0.20615 0.59531 0.4284l0.97617 0.73329 0.19844 0.19844 11.292 0.33848c0.11332 6e-3 0.14205 0.16062 0.0372 0.20102-0.56621 0.22224-0.98841 0.60005-1.2671 1.1328-0.0476 0.0918-0.12382 0.13452-0.22789 0.12919l-11.327-0.53692c-0.0337-2e-3 -0.052-6e-3 -0.0553-0.0129-0.0159-0.0247-0.0308-0.0451-0.045-0.061-0.0353 0.0123-0.0865 5.2e-4 -0.15348-0.0346-0.12171 0.28046-0.28015 0.51048-0.47594 0.6904-0.0791 0.074-0.2085 0.0184-0.20929-0.0899l-8e-3 -0.447c-1e-3 -0.0845-0.0633-0.15531-0.14572-0.16692-1.6775-0.27249-3.7437-0.0817-5.4529-0.0129-0.0882 4e-3 -0.12603-0.0381-0.11369-0.12454 0.14287-0.99484 0.61893-2.7963 1.7275-3.1218 0.33486-0.0986 0.69954-0.14277 1.078-0.14469zm101.4 0.0966a0.26458 1.5161 89.4 0 0-0.0992 5.2e-4 0.26458 1.5161 89.4 0 0-1.5136 0.28008 0.26458 1.5161 89.4 0 0 1.5188 0.24908 0.26458 1.5161 89.4 0 0 1.5136-0.2806 0.26458 1.5161 89.4 0 0-1.4196-0.24908zm-123.59 0.63304c0.63043 2.6e-4 1.2774 0.29382 1.9415 0.88056 0.0797 0.0637 0.017 0.19125-0.0822 0.16692-1.2779-0.25664-2.5188-0.17723-3.7279 0.24081-0.13744 0.0461-0.24593-0.1212-0.14779-0.22789 0.65184-0.70724 1.324-1.0607 2.0164-1.0604zm19.756 0.0413c0.0413-6.9e-4 0.0412 0.0364 0 0.11162-0.38806 0.71966-0.63685 1.4914-0.74621 2.3151-0.0298 0.22956-0.29492 0.34305-0.48162 0.20619v5.2e-4c-1.0716-0.78581 0.3705-2.2652 1.1457-2.6091 0.0358-0.016 0.0634-0.024 0.0822-0.0243zm102.46 0.0879a0.16404 0.34396 13.9 0 0-0.21136 0.25683c-0.0176 0.0565 9e-3 0.13838 0.0791 0.24598l2.3973-0.0527c0.10938-4e-3 0.14885 0.0463 0.11885 0.15038l-0.0951 0.32556c-0.0318 0.11115-0.1058 0.15771-0.22221 0.14004l-2.265-0.33589c-0.0723 0.51328 6e-3 0.7509 0.23306 0.7121l2.4262 0.10542 0.10284-1.3886c9e-3 -0.10407-0.0386-0.15606-0.14263-0.15606zm-32.021 0.30334c1.625-4e-3 3.9268 0.0493 6.3381 0.14624l0.0269 3e-3c0.12152 6e-3 0.21572 0.10838 0.21136 0.22996l-0.0238 0.61909c-6e-3 0.12151-0.10838 0.21571-0.22996 0.21135h-0.0269c-4.7323-0.19004-8.5592-0.49254-8.538-0.67489l0.016-0.40204c4e-3 -0.082 0.79787-0.12932 2.2262-0.13281zm6.8197 0.29042 19.675 1.1002c0.038 2e-3 0.0671 0.0344 0.0651 0.0724l-0.046 0.81907c-2e-3 0.038-0.0349 0.0669-0.0729 0.0646l-19.675-1.1002c-0.0378-2e-3 -0.0666-0.0346-0.0646-0.0723l0.0455-0.81907c2e-3 -0.038 0.0349-0.0669 0.0729-0.0646zm-43.336 0.5271c-0.66267 1e-3 -1.2413 0.30047-1.4314 0.97462-0.0353 0.12873 1.1e-4 0.15244 0.10594 0.0713 1.2779-0.97896 3.4237-0.955 3.6592 1.0082 0.0106 0.0865-0.0256 0.11475-0.10852 0.0847-0.18521-0.067-0.30879-0.1985-0.37052-0.39429a0.23019 0.22754 87.6 0 0-0.1664-0.15348c-0.24167-0.0582-0.38812-0.20794-0.43925-0.44959a0.20902 0.21431 5 0 0-0.12196-0.14831c-0.99218-0.43921-2.437-0.061-2.3523 1.217 7e-3 0.10607 0.0637 0.15806 0.1695 0.15606l3.3843-0.0367a0.19315 0.19315 0 0 1 0.13229 0.0527l0.0631 0.0636a0.055562 0.055562 0 0 0 0.0956-0.0372c0.0102-1.4645-1.4382-2.4107-2.6195-2.4086zm-53.099 0.0455v5.2e-4c1.318-1e-3 2.4588 0.40986 2.4603 1.881 0 0.0935-0.0449 0.14959-0.13487 0.16899-0.44626 0.0917-0.85729-8e-3 -1.233-0.29869l-0.25373 3e-3c0.0512 0.74612-0.07 1.4508-0.36277 2.1141-0.0335 0.0758-0.0888 0.0995-0.1664 0.0713-0.0229-7e-3 -0.0472-0.015-0.0718-0.0238-0.03-7e-3 -0.0403-0.0258-0.0315-0.0558 0.24518-0.82726 0.30343-1.6556 0.17466-2.4846l-0.20929-0.34623v-5.2e-4c-0.8696-0.84314-1.8318-0.92174-2.8866-0.23565-0.0579 0.0393-0.0992 0.0978-0.11627 0.16434l-0.0925 0.35708c-0.03 0.11637-0.10484 0.17708-0.22479 0.18242l-1.0795 0.0527c-0.1305 7e-3 -0.17214-0.0504-0.12454-0.17208 0.16757-0.4251 0.46671-0.69215 0.8971-0.80151 0.73447-0.18622 2.1782-0.57533 3.4556-0.57671zm2.0123 0.1664c3e-3 -3e-5 6e-3 3.9e-4 9e-3 5.2e-4 0.0247 2e-3 0.0492 3e-3 0.0739 3e-3 7e-3 0 0.0204 7e-3 0.0398 0.0212 0.43568 0.32102 0.79307 0.70785 1.0718 1.1612 0.0459 0.0741 0.11282 0.10783 0.20102 0.10077l12.631-0.90227c0.0882-7e-3 0.13229 0.0332 0.13229 0.12144l-3e-3 0.93947c-0.0899-0.0952-0.0496 2e-3 0.12144 0.29352-1.7939 0.42686-3.6202 0.55424-5.4792 0.38138l-3.0587 0.30385c-0.0811 7e-3 -0.11117 0.0503-0.0899 0.12971 9e-3 0.0265 0.0221 0.0477 0.0398 0.0636 0.0176 0.0157 0.043 0.0219 0.0765 0.0186 2.854-0.19756 5.7116-0.24545 8.5726-0.14315 0.0723 3e-3 0.0802 0.0277 0.0238 0.0718-0.0194 0.0141-0.0369 0.0291-0.0527 0.045-5e-3 7e-3 -0.0132 0.0103-0.0238 0.0103l-13.148 0.49247c-0.0688 4e-3 -0.10826-0.0294-0.11886-0.0982l-0.0103-0.0873c-0.0124-0.0884 0.0255-0.13413 0.11369-0.13746l4.2519-0.20619c0.0635-2e-3 0.0905-0.0355 0.0817-0.10077-0.0353-0.24342-0.11721-0.31121-0.24598-0.20361-1.2912 0.19403-2.5966 0.2493-3.916 0.1664-0.0477-4e-3 -0.0918-0.0147-0.13229-0.0341-0.0476-0.0247-0.0888-0.0468-0.12402-0.0662-0.0746-0.0433-0.0506-0.15681 0.0341-0.16123l2.4582-0.17208-2.3864-0.14056c-0.0688-4e-3 -0.11289-0.0381-0.13229-0.10336-0.2099-0.65087-0.55181-1.2217-1.0263-1.712-0.0348-0.0366-0.0299-0.0553 0.0145-0.0558zm114.5 0.38654c6e-3 -1.2e-4 0.0132 1.9e-4 0.0202 5.2e-4 7.6623 0.3175 15.312 0.80093 22.947 1.45 1.9553 0.16668 7.3263 0.51315 8.3132 1.373 0.097 0.0847 0.082 0.13418-0.045 0.14831-0.35807 0.0423-0.71085 0.0456-1.0583 0.0103-9.592-0.94721-19.204-1.6008-28.837-1.9606-0.35984-0.0158-0.95027 0.0187-1.2836-0.0527-0.0921-0.0203-0.15915-0.10055-0.16382-0.19586l-0.0315-0.61391c-5e-3 -0.10422 0.0411-0.15734 0.13849-0.15917zm-75.516 0.0589c0.9149-0.0144 1.4578 0.86089 1.6221 1.7198 0.0135 0.0933-0.10474 0.14482-0.16381 0.0713-0.49565-0.69497-1.1234-1.2358-1.8836-1.6221-0.0432-0.025-0.0369-0.0892 0.0103-0.10542 0.14585-0.041 0.28426-0.0615 0.41496-0.0636zm1.3116 0.14211c6e-3 -7e-5 0.0127 1.9e-4 0.0196 5.2e-4l7.0564 0.33073c0.16985 8e-3 0.28156 0.18063 0.21963 0.339l-0.35967 0.89658c-0.0318 0.0827-0.0916 0.12271-0.17983 0.11938l-2.8525-0.10077c0.93486 0.3087 1.8867 0.44479 2.8551 0.40772 0.06-2e-3 0.10573 9e-3 0.13746 0.0341 0.0318 0.0247 0.0451 0.0547 0.0398 0.0899-7e-3 0.0531-0.037 0.079-0.0899 0.077l-5.9903-0.17725c-0.0987-4e-3 -0.157-0.0539-0.17467-0.1509l-0.0739-0.45527-0.6749-1.2697c-0.0496-0.0926-0.0269-0.13997 0.0677-0.14108zm-2.8691 0.0114c0.1977-2e-3 0.39868 0.0505 0.60307 0.15865 0.1658-0.0653 0.2902-0.032 0.3731 0.10025 0.48154 0.38982 0.88713 0.90484 1.217 1.5451 0.34748 0.67557 0.29877 1.5518-0.14573 2.6277l0.50798-0.35191c0.0811-0.0564 0.14234-0.0398 0.18294 0.0501 0.86517 1.9156 1.3198 3.7227 0.0868 5.6224-0.95515 1.5452-1.5316 2.9186-3.3889 3.0561-0.0846 5e-3 -0.12954-0.0347-0.13487-0.11937-0.0123-0.23283 0.0247-0.39753 0.1111-0.49454 0.42334-1.8415 0.86775-3.3763 0.88625-5.239 2e-3 -0.0568-0.0599-0.0931-0.10852-0.0636l-0.11627 0.0687c-0.0565 0.0335-0.0848 0.083-0.0848 0.14831-0.0141 1.5505-0.29992 3.0498-0.85731 4.4979-0.047 0.12155-0.22989 0.0749-0.20671-0.0527 0.13053-0.92604 0.31318-1.8559 0.54777-2.789 0.35719-1.4288 0.21963-2.8415 0.21963-4.286 0.28927-0.35631 0.63498-0.63043 1.0371-0.82269v-5.2e-4c0.26459-0.52917 0.41053-1.1665 0.62219-1.558 0.0177-0.0318 0.013-0.0617-0.0134-0.0899-0.0476-0.0511-0.0838-0.0441-0.10852 0.0212-0.11994 0.3175-0.26013 0.627-0.42064 0.92862-0.0282 0.0529-0.0677 0.0861-0.11886 0.10025-0.0741 0.0212-0.0991-5e-3 -0.0744-0.0791 0.33072-0.99483 0.16145-2.4554-1.0609-2.7518-0.12172-0.03-0.12523-0.0708-0.0103-0.12196 0.14971-0.0687 0.30151-0.10358 0.45527-0.10542zm-40.64 0.0434c0.0489 7.1e-4 0.0975 5e-3 0.14573 0.0119 0.68645 0.10142 1.1482 0.82549 1.0315 1.6175-0.11684 0.79236-0.76843 1.3526-1.4552 1.2511-0.68665-0.10141-1.1485-0.82581-1.0315-1.618 0.10745-0.72785 0.67038-1.2706 1.3095-1.2625zm54.747 0.1912c0.19623-6.9e-4 0.38685 0.0155 0.57205 0.0486a0.14817 0.14817 0 0 1-0.0186 0.29352l-1.0687 0.0475c-0.0882 4e-3 -0.13522-0.0389-0.14056-0.12712-9e-3 -0.14287 0.0902-0.224 0.29662-0.2434 0.12171-0.0126 0.24142-0.0187 0.35916-0.0191zm42.688 0.25994 19.437 1.1591c0.0918 5e-3 0.13504 0.0535 0.1297 0.14521l-0.30179 6.7495-0.31212 1.6356c-0.0635 0.0952-0.0735 0.27737-0.0295 0.54725-5e-3 0.46302-0.43357 2.1989-1.2935 2.2412-6.432 0.30162-12.856 0.70633-19.296 0.77773-0.0952 2e-3 -0.12897-0.044-0.10077-0.13746l0.69608-2.2092c0.48508-3.5595 0.78668-7.1456 0.90486-10.758 3e-3 -0.0873 0.0777-0.15526 0.1664-0.15089zm-57.707 0.0822c0.71161-0.0113 1.2998 0.6951 1.3136 1.5777 0.0138 0.8823-0.55159 1.6066-1.263 1.618-0.71161 0.0113-1.2998-0.6951-1.3136-1.5777-0.0138-0.8823 0.55159-1.6066 1.263-1.618zm-19.863 0.21394c0.0178 0 0.0282 9e-3 0.0315 0.0269l0.50798 2.6644h5.2e-4c0.0141 0.0811-0.0109 0.0948-0.0744 0.0419-0.0759-0.0617-0.14119-0.19485-0.19585-0.39946-0.25047-0.91369-0.3885-1.6446-0.41496-2.1932-2e-3 -0.0582 0.0235-0.0999 0.0765-0.12454 0.0212-0.0106 0.0441-0.016 0.0687-0.016zm33.552 0.0382 2.4924 9e-3a0.082021 0.082021 0 0 1 0.0816 0.0822l-5.1e-4 0.20102a0.082021 0.082021 0 0 1-0.0827 0.0816l-2.4924-9e-3a0.082021 0.082021 0 0 1-0.0816-0.0822l1e-3 -0.20102a0.082021 0.082021 0 0 1 0.0822-0.0817zm-56.904 0.0114c0.031-1e-3 0.0676 0.0196 0.11007 0.062l0.0744 0.0744c0.0388 0.0373 0.0845 0.0571 0.13746 0.0605l1.2278 0.0718c0.15988 9e-3 0.15393 0.24628-5e-3 0.24856l-1.5637-3e-3 -5.2e-4 5.2e-4c-0.0956-2e-3 -0.16377-0.0927-0.13746-0.18294l0.0661-0.2191c0.0208-0.0734 0.0511-0.11123 0.091-0.11266zm30.061 0.18604c7e-3 -1.9e-4 0.0143-1.3e-4 0.0217 0 1.0425 5e-3 2.0322 0.0594 2.9688 0.16174 1.5505 0.16937 2.9819 0.0977 4.4979 0.18242l3.8948 0.25632c0.16229 0.0199 0.0823 0.25035-0.0873 0.25166l-7.0383-0.39946-4.4581-0.20102c-0.11464-5e-3 -0.13354-0.0515-0.0579-0.13798 0.0645-0.073 0.15048-0.11088 0.25838-0.11368zm50.2 0.2036c0.0484 0 0.0968 1e-3 0.14522 3e-3 3.9343 0.1371 6.9285 5.8436 6.6874 12.745-0.24102 6.9018-3.6259 12.386-7.5603 12.248-3.9342-0.13759-6.928-5.8439-6.6869-12.745 0.23751-6.8023 3.5329-12.247 7.4145-12.25zm40.733 0.45217c0.01-6.3e-4 0.02-3.7e-4 0.031 5.2e-4l4.6592 0.2992 3.6964 0.20878 0.49455 5.2333c3e-3 0.10412-0.14574 0.12758-0.16898 0.0269l-0.88109-4.1884-2.7414-0.061c-0.11186-4e-3 -0.19335 0.10495-0.15865 0.21135 0.14993 0.47272 0.16952 0.97195 0.0584 1.4976 0.1905 1.7833 0.59609 3.5493 1.217 5.2974l1.1167 2.5053c0.0348 0.075-0.0215 0.16091-0.10593 0.16175l-8.6651 0.10542c-0.0953 2e-3 -0.12603-0.0423-0.0925-0.13229l0.82011-2.1694c0.42155-2.9669 0.62788-5.9239 0.61908-8.8713 0-0.0787 0.0338-0.12063 0.10129-0.12506zm-91.387 0.11679 11.846 0.41341c0.0452 2e-3 0.0806 0.0395 0.0791 0.0847l-4e-3 0.1111c-2e-3 0.0454-0.0399 0.0809-0.0853 0.0791l-11.846-0.41341c-0.0452-2e-3 -0.0806-0.0395-0.0791-0.0847l4e-3 -0.11111c2e-3 -0.0454 0.0399-0.0809 0.0853-0.0791zm26.998 0.0532c-0.25662 4e-3 -0.4286 0.0622-0.51624 0.17466 2.4359 0.26281 4.84 0.24785 7.2125-0.045-1.113-0.0529-3.3274-0.0962-6.6435-0.1297-0.0178-2.2e-4 -0.0356-2.7e-4 -0.0527 0zm73.264 0.37517c6e-3 -6e-5 0.0115 1.8e-4 0.0176 5.1e-4l21.968 1.2118c0.0794 4e-3 0.12591 0.0446 0.14004 0.12402 0.18874 1.1077 0.0453 2.1171-0.43098 3.0272 0.12701 0.44097 0.13046 0.90892 0.0103 1.4046l-0.0713 0.82321-0.2775 2.2779c-0.033 0.26999-0.23177 0.4908-0.49765 0.55294-2.644 0.62441-5.3174 1.0779-8.0197 1.3601-0.10233 0.0106-0.13456-0.0319-0.0977-0.12712 0.39511-1.009 0.63057-2.0365 0.70642-3.0825 0.0935-1.6175-0.61914-2.5585-2.1379-2.8231-1.7356-0.3034-3.401-0.37118-4.9956-0.20361-1.9394 0.20108-2.7117 1.6406-3.3176 3.3021-0.0811 0.22399-0.12438 0.217-0.12971-0.0212-0.0953-4.8921 3.2334-4.7867 6.9164-4.5036 2.7543 0.21432 4.2755 0.88113 3.9104 4.0323 0.1023 0.0671 0.18886 0.0921 0.25941 0.0744 0.29104-2.5108-0.49231-3.9743-3.1037-4.3341-2.0558-0.2831-5.8237-0.56854-7.2022 0.98185-0.7276 0.81491-0.97617 2.1776-1.2408 3.2835-0.0365 0.15572-0.2084 0.237-0.35192 0.1664-0.70108-0.34131-1.4629-2.2888-1.7064-3.0138-0.30161-0.90311-0.45974-2.3624-0.47387-4.3785-2e-3 -0.0893 0.0404-0.1345 0.12557-0.13539zm-123.06 0.12454h0.15348c0.0779 2e-3 0.14021 0.0652 0.14005 0.14314v0.49713c1.6e-4 0.0799-0.0653 0.14445-0.14521 0.14314h-0.15348c-0.6762-3e-3 -1.2229-0.14123-1.2201-0.30954v-0.17467c2e-3 -0.1679 0.55074-0.3018 1.2252-0.2992zm40.376 0.0584c7e-3 -6.2e-4 0.0136-4.5e-4 0.0202 5.2e-4 0.11108 0.0175 0.16682 0.25278 0.12454 0.52555-0.0422 0.27261-0.16638 0.47978-0.27751 0.46302-0.11137-0.0169-0.16739-0.25233-0.12505-0.52555 0.0394-0.25424 0.15094-0.45477 0.25786-0.46354zm0.53485 0.0403h5.2e-4l6.4404 0.25838c0.038 2e-3 0.0674 0.0339 0.0656 0.0718l-4e-3 0.10025c-1e-3 0.0382-0.0337 0.0679-0.0718 0.0661l-6.4399-0.2589c-0.038-1e-3 -0.0676-0.0334-0.0661-0.0713l4e-3 -0.10077c2e-3 -0.0377 0.0335-0.067 0.0713-0.0656zm13.813 0.88625 7.8476 0.0413c0.0379 3.2e-4 0.0685 0.0308 0.0682 0.0693v0.063c-3e-5 0.0381-0.031 0.069-0.0693 0.0687l-7.8476-0.0413c-0.0379-3.2e-4 -0.0685-0.0311-0.0682-0.0693v-0.063c3e-5 -0.0381 0.0311-0.069 0.0692-0.0687zm18.085 0.47542a5.7441 9.6467 2.3 0 0-6.1268 9.4087 5.7441 9.6467 2.3 0 0 5.3521 9.8692 5.7441 9.6467 2.3 0 0 6.1268-9.4082 5.7441 9.6467 2.3 0 0-5.3521-9.8697zm-24.743 0.154h5.2e-4c0.0108-3e-5 0.022 1e-3 0.0341 3e-3 0.0757 0.0106 0.11186 0.0539 0.10853 0.12971l-0.0791 1.2408c-5e-3 0.0937 0.0375 0.13997 0.12919 0.13797 2.2701-4e-3 4.5396 0.0202 6.8078 0.0713 0.29104 7e-3 0.77068-0.0441 1.4392-0.15348 0.87842-0.14023 1.8631 0.0925 2.5854 0.0925 0.96831 1e-3 1.9377 3e-3 2.9078 5e-3 0.0582 0 0.0827 0.0283 0.0739 0.0848-5e-3 0.03-0.0195 0.0545-0.0424 0.0739-0.0159 0.0121-0.0396 0.0192-0.0713 0.0212-1.1536 0.0317-2.308 0.0639-3.4634 0.0956-0.0441 0-0.0748-9e-3 -0.0925-0.0269-0.0193-0.0177-0.0319-0.0405-0.0372-0.0687l-5.1e-4 1e-3c-9e-3 -0.0401-0.0561-0.0581-0.0899-0.0346-0.0457 0.03-0.0482 0.0662-5e-3 0.10852 0.10587 0.10581 0.0854 0.1736-0.061 0.2036-1.1456 0.23813-2.0345-0.16923-3.0267-0.16123-2.3583 0.0159-4.7189 7e-3 -7.0807-0.0269-0.0917-2e-3 -0.14158-0.0488-0.15038-0.14056-0.06-0.60149-0.0654-1.1094-0.016-1.5239 0.0108-0.088 0.0541-0.13211 0.12971-0.13229zm24.424 0.39584c0.55528-0.0101 1.1301 0.12041 1.7089 0.42943 4.9371 2.6405 4.2941 12.951 0.93121 16.447-3.3867 3.5163-6.5431-0.10593-7.7205-3.2148-0.037-0.097-4e-3 -0.15226 0.0982-0.1664 0.067-9e-3 0.10894 0.0132 0.1266 0.0661 0.4445 1.2506 1.1734 2.2915 2.1859 3.1223 0.0653 0.0547 0.14012 0.0871 0.22479 0.0977 0.51065 0.0661 0.96578 0.24329 1.4526 0.22479 2.8284-0.11113 4.0983-3.7731 4.5031-6.1464a0.02932 0.026654 49.7 0 1 0.0553 5e-3c0.0794 2.7781-1.9336 8.3078-5.7516 6.1356-0.0741-0.0423-0.10535-0.0211-0.093 0.0636 7e-3 0.0441 0.0384 0.0832 0.093 0.11679 2.3627 1.4578 4.5453-0.29409 5.5004-2.4531 1.3917-3.1397 1.601-6.4378 0.62736-9.895-1.4605-5.1832-6.5777-5.6541-8.3954-0.46302-0.0899 0.58385-0.17405 0.98564-0.25166 1.2061-0.77435 2.1996-0.85167 4.4406-0.23255 6.7231 0.80433 1.9526 1.9631 4.0271 4.2359 3.6091 2.1405-0.39422 3.4314-2.6513 3.6272-4.7336a0.10583 0.10848 79.9 0 0-0.15348-0.10594c-0.0423 0.0194-0.0685 0.0577-0.0791 0.1142-0.36512 1.9685-2.13 5.122-4.6276 4.2013-1.7277-0.63765-2.2673-2.7805-2.6985-4.3336a0.052917 0.052917 0 0 1 0.0475-0.0661c0.0406 0 0.0667 0.0166 0.0791 0.0501 0.53711 1.397 1.4473 3.1434 2.9078 3.5641 1.9553 0.56621 3.4212-1.1725 3.9848-2.9611 0.59441-1.8838 0.62191-3.7974 0.0822-5.7413-0.75142-2.7093-3.6539-4.2359-5.4901-1.2831-0.72319 1.1624-1.1783 2.3871-1.3653 3.6747-0.0106 0.0756-0.053 0.11479-0.12713 0.11679h-0.0796a0.066146 0.068792 3.1 0 1-0.0661-0.077c0.24871-2.368 1.6696-6.9216 4.7599-6.0591 2.8363 0.78846 3.3892 5.5724 2.9817 7.861-0.0441 0.24694-0.0536 0.59972-0.0289 1.0583 0.13229 2.3945-2.2487 6.1147-4.9289 5.2627-1.6589-0.52652-2.7177-2.4504-3.2019-4.0881-0.58561-1.9368-0.64252-3.8071-0.17156-5.6116 0.30858-1.1849 0.50327-1.9822 0.58446-2.3916 0.61143-2.1126 2.4864-4.3194 4.6648-4.3589zm-75.52 0.0506c0.0593-4e-3 0.10735 0.0475 0.10025 0.10646-0.1561 1.5848-0.53427 3.4447-0.47077 5.0772 5e-3 0.18363-0.216 0.27993-0.34675 0.15089-0.20909-0.20638-0.26182-0.59523-0.20102-0.90744 0.2787-1.4058 0.53241-2.8161 0.76171-4.2308 0.0141-0.0811 0.0503-0.14155 0.10852-0.18035 0.0143-0.01 0.0309-0.0151 0.0481-0.016zm1.8738 6e-3c0.0338-3.4e-4 0.0734 0.0155 0.11834 0.046l1.2222 0.82837c0.079 0.0532 0.11861 0.14888 0.10077 0.2434-0.21696 1.1359-0.65958 2.1597-1.3281 3.0716-0.60325 0.82549-0.7967 1.2887-1.8392 0.58756-0.11497-0.0765-0.15454-0.22817-0.0925-0.3545 0.6932-1.3829 1.2586-2.8136 1.696-4.2917 0.0254-0.086 0.0661-0.12916 0.12247-0.12971zm10.548 0.0553 12.848 0.3638c0.55503 0.0171 0.94356 0.55547 0.78549 1.0878l-1.4733 4.9687c-0.0898 0.29937-0.36608 0.50319-0.67748 0.49971-3.2278-0.0317-6.6438-0.34065-9.9617-0.1819 1.6192 0.13756 3.2263 0.27039 4.8209 0.39739 1.7542 0.14019 3.6405 0.0415 5.4741 0.10232 0.33514 0.0106 0.56105-0.22734 0.67747-0.71417 0.30162-1.2559 0.73009-2.5372 1.2857-3.8442l12.74 0.0656c0.0898 0 0.13305 0.0457 0.12971 0.13746-0.0441 1.0336-0.21095 2.0209-0.50023 2.9611l-0.14004 1.8014c-7e-3 0.0968-0.0591 0.1439-0.15606 0.14056-4.9548-0.11112-8.7305-0.22762-11.327-0.34933-1.1589-0.0556-2.4261 0.0614-3.2887 0.0455-3.8593-0.0653-7.713-0.24462-11.56-0.53743-3.5798-0.27252-7.088-0.36985-10.636-0.57619-0.0953-5e-3 -0.11831-0.0499-0.0687-0.13281l2.0107-3.3998 0.23565-0.56069c0.037-0.088 0.10318-0.12994 0.19843-0.1266 2.0832 0.0829 4.1628 0.14224 6.2389 0.17931 0.2981 5e-3 0.59263 0.0415 0.88367 0.10853 0.1058 0.0247 0.11631 0.0704 0.0315 0.13745-0.13231 0.10407-0.21261 0.19771-0.24081 0.28061 0.0935 0.45512 0.21952 0.6639 0.37827 0.62683l0.3576-1.5689c-2.3936-0.0758-4.7599-0.0969-7.0988-0.0651-0.25047 4e-3 -0.46389-0.0355-0.64027-0.11834-0.12591-0.0615-0.0823-0.25144 0.0579-0.25166l7.7416 0.17725 0.3576-1.2749c0.0634-0.22955 0.27652-0.38586 0.51573-0.37827zm-0.0238 0.35708a0.2196 0.21696 7.8 0 0-0.21962 0.16382c-0.32985 1.2894-0.67093 2.5412-1.0237 3.7548-0.12876 0.4445-0.17204 0.76979-0.12971 0.97616 0.0617 0.0582 0.0988 0.0615 0.1111 0.0103 0.34044-1.4429 0.73105-2.8581 1.172-4.2462-0.0124-0.14464 2e-3 -0.26822 0.0424-0.37052 0.0353-0.0864 0.0984-0.12593 0.19017-0.11886 3.9793 0.31573 7.9669 0.45376 11.962 0.41496a0.19844 0.19844 0 0 1 0.185 0.27544c-0.37221 0.87665-0.58182 1.791-0.62942 2.7435a0.050271 0.050271 0 0 0 0.0977 0.016l0.68781-2.8231c0.0141-0.0599 0.0511-0.0986 0.11111-0.11628 0.0247-7e-3 0.0505-0.0103 0.077-8e-3 0.11643 9e-3 0.1597 0.07 0.1297 0.18293l-1.2991 4.8049a0.51065 0.51065 0 0 1-0.51315 0.37827l-8.6232-0.34934 0.11937 0.262 9.0671 0.3173a0.37835 0.37835 0 0 0 0.37828-0.27751l1.3679-5.072a0.41804 0.41804 0 0 0-0.39119-0.52658zm-17.132 0.48679v5.2e-4c1.1723-2e-3 2.2898 0.0655 3.3522 0.20464 0.22932 0.03 0.31915 0.15921 0.26975 0.38499l-0.6506 2.9673 0.16898 1.6273c9e-3 0.0862-0.0298 0.12788-0.11627 0.12454l-6.2761-0.25373c-0.22401-0.0159-0.37373-0.11002-0.44958-0.28112-0.0353-0.0809-0.0353-0.17283 0-0.25373 0.508-1.1818 1.1066-2.3196 1.7963-3.4132 0.24342-0.38894 0.55606-0.44353 0.9741-0.41703 1.39 0.0899 2.7815 0.1095 4.1749 0.0584 0.0988-4e-3 0.13499-0.0531 0.10852-0.14832-0.0159-0.0597-0.0545-0.0905-0.11627-0.0925-1.5028-0.0494-3.0051-0.12097-4.5062-0.21445-0.0759-5e-3 -0.0892-0.036-0.0398-0.0925 0.10408-0.11838 0.20858-0.17909 0.31265-0.18242 0.33684-0.0116 0.66911-0.0181 0.99735-0.0186zm79.433 0.35864c0.47103-3e-3 0.97261 0.12166 1.495 0.41134a0.087312 0.087312 0 0 1-0.0636 0.16123c-2.4606-0.64029-4.0508 1.1195-4.8286 3.2282a0.061618 0.061618 0 0 1-0.11886-0.032c0.29307-1.7668 1.6682-3.7554 3.5161-3.7688zm74.213 0.66094c0.88072-4e-3 1.1951 1.02 0.88677 1.8609-0.0253 0.0673-0.0777 0.1202-0.14315 0.14366-0.18874 0.0671-0.39343 0.083-0.61391 0.046-0.0247-2e-3 -0.0492-3e-3 -0.0739-3e-3 -0.36248 0.94986-0.14301 2.2544-0.25942 3.2995-5e-3 0.0485-0.0452 0.0864-0.0951 0.0899-0.0282 2e-3 -0.0532 9e-3 -0.0744 0.0212-0.14664 0.0811-0.21853 0.0417-0.21653-0.11886 0.0185-1.7462 0.29623-3.0826 0.0925-5.1067-9e-3 -0.09 0.0298-0.14689 0.11627-0.17156 0.13674-0.0397 0.26395-0.0588 0.38086-0.0594zm-122.61 0.0248 12.705 0.1328c0.0569 7.6e-4 0.10247 0.0475 0.1018 0.10439l-5.1e-4 0.0796c-4.8e-4 0.0571-0.0473 0.10351-0.10439 0.10284l-12.705-0.13333c-0.0569-7.6e-4 -0.10246-0.047-0.1018-0.10387l5.1e-4 -0.0801c7.6e-4 -0.0569 0.0475-0.10247 0.10439-0.1018zm20.317 0.0687c0.54479-1e-3 1.1751 2e-3 1.8908 8e-3 6.0113 0.0547 9.8919 0.0696 11.642 0.045 1.217-0.0176 2.1181 0.0169 2.7037 0.10335 2.495-0.0132 6.4108-0.3232 5.8896 3.6349-0.36248 2.7517-1.4443 2.85-3.8943 2.7177-1.4551-0.0776-2.9142-0.13259-4.3765-0.16433l-18.33-0.51057c-0.097-2e-3 -0.11938-0.0434-0.0661-0.12454l1.2433-1.9074 0.31781-0.55552 0.51056-0.83096 0.37569-1.4552c0.0247-0.0955 0.0862-0.14204 0.185-0.14004 5.1991 0.0794 10.337 0.0767 15.518-0.19844-1e-3 -0.0282-3e-3 -0.0541-5e-3 -0.077-5e-3 -0.0529-0.0352-0.0791-0.0899-0.0791l-15.553-0.077c-0.0583-2.3e-4 -0.10548-0.0476-0.10542-0.10594v-0.11369c2e-3 -0.0846 0.0459-0.12953 0.1323-0.13487 0.43319-0.0209 1.1038-0.0324 2.0118-0.0341zm28.392 1.2666c2.5154 0.0245 3.2577 4.2697 3.0918 6.0234a0.076729 0.079375 30.8 0 1-0.14263 0.0372c-0.0899-0.13759-0.1158-0.29111-0.077-0.46044 0.0231-0.097 0.0218-0.19311-5e-3 -0.28836-0.17198-0.65351-0.75961-1.4555-1.511-1.3761h-5.2e-4c-0.58473 0.0635-0.87535 0.61911-1.1638 1.0372-0.0441 0.0635-0.10533 0.0956-0.18293 0.0956h-3.482c-0.0741 0-0.10817-0.0362-0.10284-0.10852 0.11113-1.7013 1.0184-4.3815 2.897-4.871 0.23916-0.0626 0.46535-0.091 0.67851-0.0889zm-81.775 0.32195a0.64029 0.75671 24.5 0 0-0.67334 0.47232 0.64029 0.75671 24.5 0 0 0.26871 0.95395 0.64029 0.75671 24.5 0 0 0.89659-0.42272 0.64029 0.75671 24.5 0 0-0.26872-0.95446 0.64029 0.75671 24.5 0 0-0.22324-0.0491zm-0.0811 0.30282a0.36777 0.43392 8.1 0 1 0.0357 3e-3 0.36777 0.43392 8.1 0 1 0.30282 0.48111 0.36777 0.43392 8.1 0 1-0.42478 0.37776 0.36777 0.43392 8.1 0 1-0.30334-0.48111 0.36777 0.43392 8.1 0 1 0.38964-0.38086zm139.38 0.57206c0.0631-6.9e-4 0.12288 0.0162 0.17828 0.0486 0.0847 0.0494 0.1462 0.15009 0.185 0.30179 0.76376 3.0197 0.52666 5.9558-0.71158 8.8098-0.47625 1.098-1.5876 2.1407-2.7544 1.1803-0.37042-0.30427-0.57418-0.81477-0.83612-1.2408-0.11821-0.0565-0.15687-0.23231-0.11627-0.52865l-0.42375-0.95033c-0.0308-0.0709-0.13078-0.0716-0.16382-3e-3 -0.0353 0.0688-0.0353 0.16489 0 0.28836 0.21344 0.73025 0.46633 1.3863 0.75913 1.9684 1.2303 2.4395 3.2124 0.83059 3.9109-0.83095 1.18-2.8134 1.4084-5.7429 0.68523-8.7891-0.0176-0.0741 0.0103-0.12031 0.0848-0.13798 0.98954-0.23812 1.5536 0.17291 1.6929 1.233 0.36777 2.7728-0.0685 10.427-3.1218 11.859-3.0639 1.434-4.3711-4.8971-4.3579-6.6275 0-0.0353 0.0187-0.0588 0.0558-0.0692 0.0618-0.0177 0.0971 7e-3 0.10593 0.0718 0.10231 0.83432 0.56533 1.3793 1.3891 1.635 0.0935 0.03 0.18496 0.0237 0.27491-0.0186 1.7277-0.82285 2.4528-3.0189 2.0454-4.7625-0.0244-0.10313-0.13616-0.15826-0.23048-0.11369-0.70909 0.32456-1.4549 0.4348-2.2381 0.33073-0.0864-0.0123-0.12016-0.0611-0.10076-0.14573 0.25752-1.1536 0.71101-2.2168 1.3601-3.1905 0.0635-0.0952 0.13427-0.10153 0.21187-0.0186 0.91811 0.99218 1.0053 2.0373 1.3069 3.2861 0.40745 1.696-0.46317 4.1512-1.7358 5.1645-0.40041 0.31925-0.82887 0.29621-1.2857-0.0687-0.0423 0.0794-0.0257 0.19751 0.0501 0.3545v5.2e-4c0.3616 0.47448 0.81755 0.55478 1.3679 0.24081 1.2224-0.70115 1.6882-2.5612 2.0004-4.101 0.0199-0.0715 0.12436-0.0611 0.12971 0.0129 0.0159 1.1456-1.1488 5.7757-2.9585 4.5031-0.064-0.0335-0.12801 0.0451-0.0816 0.10076 1.9076 1.8415 2.8759-1.7594 3.1564-2.913 0.53622-2.1995 0.48751-4.4061-0.14572-6.6198-0.0217-0.0757 0.0125-0.15637 0.0822-0.19327 0.0815-0.0431 0.15788-0.0654 0.22945-0.0661zm-76.66 0.63045c-0.50468 0.0128-0.9095 0.42604-0.90951 0.9338 0 0.51582 0.41797 0.93379 0.93379 0.93379s0.9338-0.41797 0.9338-0.93379c-1e-5 -0.51582-0.41798-0.9338-0.9338-0.9338-8e-3 0-0.0163-2e-4 -0.0243 0zm0.0537 0.33383c0.7492 7e-3 0.87192 0.84859 0.185 1.1767-0.0864 0.0406-0.16968 0.0343-0.24908-0.0186-0.17131-0.0399-0.38615-0.0579-0.45475-0.42064-0.12171-0.39159 0.0105-0.70886 0.44441-0.73536 0.0255-2e-3 0.0503-2e-3 0.0744-2e-3zm-45.177 0.40928c-0.0743 2e-3 -0.12312 0.0407-0.14624 0.11679-9e-3 0.0265-0.014 0.058-0.016 0.0951 0.44802 0.19756 1.0175 0.24165 1.7089 0.13229-0.40746-0.21343-0.91786-0.32829-1.5317-0.34416-5e-3 -2.2e-4 -0.01-1.1e-4 -0.015 0zm65.774 1.6712a1.2462 1.7145 2.2 0 1 1.1793 1.7606 1.2462 1.7145 2.2 0 1-1.311 1.6655 1.2462 1.7145 2.2 0 1-1.1793-1.7611 1.2462 1.7145 2.2 0 1 1.311-1.665zm-0.37465 0.74569c-0.0634 3e-3 -0.11435 0.0397-0.15193 0.11007-0.22225 0.41274-0.25711 0.87033-0.10542 1.373 0.0265-1e-3 0.0526-3e-3 0.0791-5e-3 -0.0917-0.51152-0.0264-0.91928 0.19586-1.2227a0.16669 0.16669 0 0 1 0.24339-0.0289l0.27544 0.23513c0.0741 0.0617 0.0869 0.13414 0.0393 0.21704-0.12346 0.22754-0.17709 0.463-0.16123 0.70642 0.0106 0.13582 0.0672 0.15868 0.1695 0.0687 0.13489-0.11642 0.032-0.74576 0.10335-1.0077a0.2249 0.22225 17.7 0 0-0.13797-0.26458l-0.45476-0.16433c-0.0342-0.0127-0.0657-0.0183-0.0946-0.0171zm54.589 0.19998c0.0931 1e-3 0.20264 0.10367 0.26562 0.24857 0.0756 0.17394 0.059 0.34895-0.0372 0.39119-0.0965 0.0423-0.23628-0.0649-0.31213-0.23926-0.0759-0.17445-0.059-0.34996 0.0377-0.39171 0.0142-6e-3 0.0296-9e-3 0.046-9e-3zm-6.041 0.35606c0.0578-5e-5 0.1158 4.3e-4 0.17364 5.1e-4 0.14168 2.7e-4 0.16475 0.2035 0.0263 0.23513l-0.39119 0.0925c-0.0106 0.0529 0.0147 0.11578 0.0765 0.1881l0.42065-0.0501c0.0829-0.0106 0.13656 0.0235 0.16123 0.10283 0.0177 0.0564 8e-3 0.12803-0.0289 0.21446 0.12876 0.20285 0.17368 0.358 0.13488 0.4656-0.0353 0.0988-0.10471 0.13826-0.20878 0.11886-0.29986-0.0583-0.56281-0.0598-0.78858-8e-3 -3.7994 0.0873-7.6915-0.37566-11.287-0.28836-3.6194 0.0873-7.0035 0.44723-10.279 0.54777-1.188 0.037-2.532 0.22438-3.8179 0.22738-1.3891 3e-3 -2.7785 0.25925-4.1966 0.25425-0.0798 7.8e-4 -0.14192-0.0701-0.13229-0.1509 0.0141-0.10584 0.0982-0.19321 0.25166-0.262l0.1509-0.29093c0.12523-0.26835 0.35525-0.40146 0.69039-0.39946 1.3123 0.0106 2.6249-0.0286 3.9372-0.11679 1.5346-0.10049 3.1668-0.0633 4.7516-0.185 3.1168-0.24342 6.1753-0.50296 9.4428-0.47646 3.6385 0.0286 7.2693-0.21672 10.913-0.21962zm-9.6185 1.2774c1.5218-4e-3 3.0497 0.20121 4.1222 0.23616 2.0055 0.0635 4.0112 0.088 6.0167 0.0739 0.0511 0 0.0794 0.0299 0.0848 0.0899 7e-3 0.0637-0.0221 0.0974-0.0873 0.10077-2.0188 0.0926-4.1491 0.0342-6.0487 0.14263-4.1293 0.23989-8.2603 0.44457-12.393 0.61391-4.3153 0.17727-8.8395 0.57677-13.284 0.70642-0.39157 0.0123-0.39929-0.0459-0.0238-0.17467 0.34572-0.11818 0.59236-0.34276 0.74053-0.67437 0.0433-0.0972 0.14304-0.15655 0.24908-0.14831 2.0399 0.17991 4.0165-0.16668 6.0404-0.15348 0.6544 4e-3 1.2884-0.0539 1.9022-0.17209 1.4658-0.21169 3.0217-0.0473 4.3393-0.16639 1.7921-0.16049 3.4096-0.2367 4.8524-0.2279 0.0882 2e-3 0.14347 0.0434 0.1664 0.12454 0.0229 0.0811-8e-3 0.12438-0.0925 0.12971l-9.2206 0.44183c1.4429 0.0703 2.8328 0.10653 4.1698 0.10853 0.35455 0 1.0334-0.0653 2.0371-0.19586 1.1086-0.14286 2.183 0.037 3.2334-0.10852 1.7621-0.24165 3.5331-0.30943 5.3129-0.2036 0.0353 2e-3 0.0469-0.0137 0.0346-0.0476-7e-3 -0.0229-0.0155-0.0453-0.0243-0.0682-5e-3 -0.0157-0.0164-0.0254-0.0341-0.0274l-3.7093-0.0977c-0.11442-0.0113-0.12306-0.17474-0.0109-0.19843 0.5271-0.0738 1.0768-0.10253 1.6273-0.10387zm-14.887 1.0821c-0.57588 5.6e-4 -1.1525 0.0134-1.7291 0.0388-1.0583 0.0476-2.6296 0.4207-3.9842 0.28577-0.14111-0.0141-0.24428 0.015-0.30954 0.0873a0.082021 0.082021 0 0 0 0.0636 0.13488l6.9505-0.29094a0.074083 0.074083 0 0 0 0.0636-0.0372l0.0501-0.0848c0.0476-0.0791 0.0248-0.11944-0.0687-0.12144-0.34529-9e-3 -0.69059-0.0127-1.0361-0.0124zm18.832 0.17673c0.1034-4e-3 0.20079 0.047 0.25631 0.13333 0.4445 0.69674 1.0589 0.87939 1.8438 0.54777 0.11817-0.0494 0.18103-9e-3 0.1881 0.11937 0.11112 1.7974 0.53712 3.5142 1.278 5.1511 0.0441 0.0953 0.0133 0.14314-0.0925 0.14314l-35.47-0.1695c-0.0398-6e-5 -0.0599-0.0481-0.032-0.0765 1.2647-1.2277 2.1529-2.6908 2.6644-4.3894 0.0369-0.12802 0.15801-0.21302 0.29094-0.20413 2.6422 0.16052 5.2974 0.23754 7.9644 0.23048 0.43039-2e-3 0.74153-0.097 0.93379-0.28577 0.0617-0.06 0.13502-0.0953 0.21962-0.10594 3.8135-0.4533 7.6405-0.6131 11.48-0.47904 0.77787 0.0282 1.8-0.0412 3.0665-0.20877 0.0935-0.0141 0.16918 0.0167 0.22738 0.0925 0.65617 0.84396 2.802 1.2674 3.2148-0.0212 0.0274-0.0862 0.0995-0.15035 0.18758-0.16691l1.741-0.30644c0.0125-2e-3 0.0251-4e-3 0.0377-4e-3zm-92.411 0.16279h3.0556c0.0934-1.9e-4 0.1703 0.072 0.17467 0.16381l0.0109 0.24856c5e-3 0.0812 0.0464 0.13613 0.12402 0.16433 1.4288 0.51328 3.1778 1.2727 4.3579 0.0289 0.0617-0.0668 0.13824-0.0984 0.22996-0.0951 4.2562 0.12875 8.506 0.30054 12.748 0.51573 0.59267 0.0318 1.1589 0.29133 1.7859 0.42891 3.9846 0.87577 7.9636 1.8257 11.879 1.7834 0.0794 0 0.12728 0.0387 0.14314 0.11627l0.4129 1.9472c0.0194 0.0937-0.0176 0.14238-0.11111 0.14572l-39.167 1.8733c-0.10584 5e-3 -0.12056-0.0293-0.045-0.10336 2.0267-1.9844 3.4345-4.3452 4.223-7.0828 0.0265-0.09 0.0855-0.13487 0.17725-0.13487z" stroke-width=".26458"/> </g> </svg>