<?xml version="1.0" encoding="utf-8"?>
<!-- Generator: Adobe Illustrator 27.5.0, SVG Export Plug-In . SVG Version: 6.00 Build 0)  -->
<svg version="1.1" id="Layer_1" xmlns="http://www.w3.org/2000/svg" xmlns:xlink="http://www.w3.org/1999/xlink" x="0px" y="0px"
	 viewBox="0 0 800 800" style="enable-background:new 0 0 800 800;" xml:space="preserve">
<g>
	<path style="opacity:0.15;fill:#404041;" d="M411.345,535.014c-161.862,0-293.073,6.886-293.073,15.378
		c0,8.494,131.211,15.379,293.073,15.379c161.858,0,293.073-6.885,293.073-15.379C704.418,541.9,573.203,535.014,411.345,535.014z"
		/>
	<polygon style="fill:#162026;" points="182.321,502.886 306.086,514.299 542.856,519.471 661.844,520.408 672.926,494.528 
		661.844,443.814 613.162,429.524 165.936,429.524 	"/>
	<path style="fill:#558AA2;" d="M706.213,464.433c0,0-2.123-29.087-11.959-42.247c0,0-5.956-6.094-23.963-10.25
		c0,0-51.344-11.774-109.89-15.838c0,0-39.154-27.795-81.265-52.451c0,0-26.408-11.45-60.762-11.45c0,0-216.02-5.85-258.643,3.544
		c-0.432,0.095-0.817,0.326-1.111,0.654l-2.342,2.613c-0.588,0.655-0.375,1.691,0.419,2.066l1.734,0.816
		c0.669,0.315,0.841,1.19,0.331,1.729c-4.359,4.606-21.169,23.524-28.695,48.817c-0.355,1.201-0.546,2.446-0.546,3.7v52.784
		c0,0-9.403,0.958-13.63,6.686l-1.605,14.922c0,0,1.199,18.655,11.91,22.163c0,0,38.209,8.163,56.124,10.195
		c0,0,2.104-25.787,9.122-44.441c0,0,8.445-22.268,42.429-22.268c0,0,49.126-0.37,55.407,18.099c0,0,7.572,20.5,10.711,44.325
		l6.096,15.698l236.77,5.171l2.217-16.252c0,0,4.432-43.587,16.622-53.56c0,0,9.05-7.756,37.858-7.756
		c0,0,48.022-0.924,53.932,20.129c0,0,7.941,21.794,8.495,53.746h34.905c0,0,4.342-3.786,6.004-7.572l-1.016-3.972l3.325-12.835
		h2.03c0,0,1.94-0.924,1.94-3.232c0-0.182,0-0.328,0-0.461l0.553-19.393C709.721,468.312,708.336,465.819,706.213,464.433z"/>
	<g style="opacity:0.2;">
		<path style="fill:#909596;" d="M707.229,491.398c0,0,1.94-0.924,1.94-3.232c0-0.182,0-0.328,0-0.461l0.553-19.393
			c0,0-1.385-2.493-3.508-3.879c0,0-0.135-1.829-0.488-4.776l-54.148-1.84c0.83,1.298,1.481,2.698,1.908,4.216
			c0,0,7.941,21.793,8.495,53.743h34.905c0,0,4.342-3.785,6.004-7.571l-1.016-3.972l3.325-12.835H707.229z"/>
		<path style="fill:#909596;" d="M191.443,458.445c0,0,3.484-9.182,14.975-15.754l-76.895-2.613v8.842c0,0-9.403,0.958-13.63,6.686
			l-1.605,14.922c0,0,1.199,18.655,11.91,22.163c0,0,38.209,8.163,56.124,10.195C182.321,502.886,184.425,477.1,191.443,458.445z"/>
		<path style="fill:#909596;" d="M545.072,503.219c0,0,3.426-33.671,12.531-48.595l-276.632-9.4
			c4.014,2.353,7.037,5.317,8.308,9.052c0,0,7.572,20.5,10.711,44.325l6.096,15.698l236.77,5.171L545.072,503.219z"/>
	</g>
	<path style="fill:#4C7B91;" d="M387.539,326.67c-82.74-9.604-192.861-1.754-192.861-1.754
		c-8.311,1.662-12.742,10.526-12.742,10.526h25.486l2.631-5.148c0.521-1.018,1.521-1.702,2.658-1.812
		c37.559-3.627,130.554-0.466,146.209,0.103c1.38,0.05,2.607,0.886,3.158,2.151l1.452,3.321h34.491
		C392.895,328.102,387.539,326.67,387.539,326.67z"/>
	<path style="opacity:0.2;fill:#FFFFFF;" d="M138.021,373.013h388.297c-13.656-8.942-30.176-19.41-47.182-29.366
		c0,0-26.408-11.45-60.762-11.45c0,0-216.02-5.85-258.643,3.544c-0.432,0.095-0.817,0.326-1.111,0.654l-2.342,2.613
		c-0.588,0.655-0.375,1.691,0.419,2.066l1.734,0.816c0.669,0.315,0.841,1.19,0.331,1.729
		C155.615,346.946,145.971,357.744,138.021,373.013z"/>
	<g>
		<path style="fill:#29212C;" d="M653.09,504.235c0,27.411-22.217,49.628-49.629,49.628c-27.408,0-49.629-22.218-49.629-49.628
			c0-27.407,22.221-49.631,49.629-49.631C630.873,454.604,653.09,476.829,653.09,504.235z"/>
		<path style="fill:#3F3643;" d="M603.461,454.604c-27.408,0-49.629,22.224-49.629,49.631c0,27.411,22.221,49.628,49.629,49.628
			c27.412,0,49.629-22.218,49.629-49.628C653.09,476.829,630.873,454.604,603.461,454.604z M635.971,536.744
			c-4.223,4.223-9.14,7.538-14.615,9.853c-5.664,2.396-11.686,3.611-17.895,3.611c-6.209,0-12.228-1.215-17.894-3.611
			c-5.473-2.315-10.391-5.63-14.613-9.854c-4.223-4.222-7.539-9.139-9.854-14.613c-2.396-5.666-3.611-11.687-3.611-17.895
			c0-6.208,1.215-12.228,3.611-17.893c2.315-5.475,5.631-10.392,9.854-14.616c4.223-4.223,9.141-7.539,14.615-9.854
			c5.666-2.397,11.684-3.612,17.892-3.612c6.209,0,12.231,1.215,17.895,3.612c5.476,2.315,10.392,5.631,14.615,9.854
			c4.223,4.224,7.537,9.141,9.852,14.616c2.398,5.665,3.611,11.685,3.611,17.893c0,6.209-1.213,12.229-3.611,17.895
			C643.508,527.604,640.193,532.521,635.971,536.744z"/>
		<path style="fill:#3F3643;" d="M603.461,465.514c-21.35,0-38.721,17.37-38.721,38.722c0,21.349,17.371,38.719,38.721,38.719
			c21.35,0,38.72-17.37,38.72-38.719C642.181,482.884,624.81,465.514,603.461,465.514z M637.173,504.235
			c0,4.553-0.891,8.967-2.646,13.121c-1.698,4.015-4.129,7.621-7.226,10.717c-3.098,3.097-6.703,5.529-10.717,7.226
			c-4.154,1.757-8.568,2.648-13.123,2.648c-4.553,0-8.967-0.892-13.121-2.648c-4.014-1.697-7.619-4.129-10.717-7.227
			c-3.098-3.096-5.529-6.702-7.227-10.716c-1.758-4.154-2.648-8.568-2.648-13.121c0-4.553,0.891-8.968,2.648-13.121
			c1.697-4.015,4.129-7.621,7.227-10.718c3.098-3.098,6.703-5.529,10.717-7.228c4.154-1.757,8.569-2.648,13.121-2.648
			c4.553,0,8.969,0.892,13.123,2.648c4.014,1.698,7.619,4.13,10.717,7.227c3.097,3.098,5.526,6.704,7.226,10.718
			C636.282,495.268,637.173,499.683,637.173,504.235z"/>
		<g id="XMLID_102_">
			<g id="XMLID_103_">
				<g id="XMLID_104_">
					<path style="fill:#D0D2D3;" d="M637.969,504.23c-0.047,19.058-15.535,34.507-34.594,34.507
						c-19.058,0-34.467-15.449-34.422-34.507c0.049-19.058,15.536-34.506,34.594-34.506
						C622.606,469.724,638.016,485.173,637.969,504.23z"/>
				</g>
			</g>
		</g>
		<g id="XMLID_99_">
			<g id="XMLID_100_">
				<g id="XMLID_101_">
					<path style="fill:#29212C;" d="M634.262,504.231c-0.041,17.01-13.865,30.801-30.877,30.801
						c-17.012,0-30.767-13.791-30.725-30.801c0.041-17.013,13.866-30.801,30.877-30.801
						C620.549,473.43,634.305,487.219,634.262,504.231z"/>
				</g>
			</g>
		</g>
		<path style="fill:#919396;" d="M634.254,507.464l0.016-6.468h-11.023c-0.212-1.333-0.557-2.622-1.019-3.854l9.557-5.511
			l-3.221-5.602l-9.559,5.512c-0.842-1.032-1.785-1.977-2.814-2.821l5.534-9.546l-5.592-3.233l-5.534,9.543
			c-1.231-0.466-2.52-0.814-3.853-1.031l0.026-11.023h-6.469l-0.027,11.023c-1.334,0.216-2.625,0.564-3.857,1.031l-5.488-9.543
			l-5.607,3.233l5.488,9.546c-1.034,0.844-1.982,1.79-2.828,2.821l-9.533-5.512l-3.248,5.602l9.529,5.511
			c-0.469,1.232-0.82,2.521-1.039,3.854h-11.023l-0.016,6.468h11.023c0.211,1.335,0.559,2.625,1.02,3.857l-9.559,5.51l3.223,5.603
			l9.559-5.512c0.845,1.031,1.785,1.976,2.814,2.821l-5.534,9.544l5.593,3.234l5.532-9.543c1.233,0.466,2.521,0.815,3.854,1.031
			l-0.027,11.023h6.468l0.027-11.023c1.335-0.216,2.627-0.565,3.858-1.031l5.487,9.543l5.608-3.234l-5.488-9.544
			c1.034-0.846,1.981-1.791,2.828-2.821l9.534,5.512l3.247-5.603l-9.53-5.51c0.47-1.232,0.821-2.522,1.042-3.857H634.254z"/>
		<g id="XMLID_96_">
			<g id="XMLID_97_">
				<g id="XMLID_98_">
					<path style="fill:#29212C;" d="M612.879,504.231c-0.014,5.2-4.242,9.416-9.441,9.416c-5.201,0-9.406-4.216-9.393-9.416
						c0.012-5.201,4.238-9.417,9.439-9.417C608.685,494.814,612.891,499.03,612.879,504.231z"/>
				</g>
			</g>
		</g>
		<g>
			<path style="fill:#D0D2D3;" d="M603.461,519.175c-8.238,0-14.941-6.703-14.941-14.94c0-8.239,6.703-14.941,14.941-14.941
				c8.238,0,14.941,6.702,14.941,14.941C618.402,512.472,611.699,519.175,603.461,519.175z M603.461,490.905
				c-7.35,0-13.328,5.98-13.328,13.331c0,7.349,5.979,13.329,13.328,13.329c7.35,0,13.33-5.98,13.33-13.329
				C616.791,496.885,610.81,490.905,603.461,490.905z"/>
		</g>
		<g id="XMLID_93_">
			<g id="XMLID_94_">
				<g id="XMLID_95_">
					<path style="fill:#CBCDCE;" d="M608.932,504.231c-0.009,3.021-2.463,5.469-5.484,5.469c-3.021,0-5.463-2.448-5.457-5.469
						c0.01-3.022,2.465-5.47,5.484-5.47C606.494,498.761,608.938,501.21,608.932,504.231z"/>
				</g>
			</g>
		</g>
		<path style="fill:#D0D2D3;" d="M603.461,484.643c-10.803,0-19.592,8.789-19.592,19.592c0,10.802,8.789,19.591,19.592,19.591
			c10.803,0,19.59-8.789,19.59-19.591C623.051,493.432,614.264,484.643,603.461,484.643z M620.518,504.235
			c0,2.304-0.449,4.537-1.34,6.639c-0.857,2.031-2.088,3.855-3.654,5.422c-1.567,1.567-3.392,2.797-5.422,3.656
			c-2.102,0.889-4.336,1.339-6.641,1.339c-2.304,0-4.538-0.451-6.639-1.339c-2.031-0.859-3.856-2.089-5.422-3.656
			c-1.568-1.567-2.799-3.392-3.656-5.423c-0.891-2.102-1.342-4.335-1.342-6.639c0-2.305,0.451-4.538,1.342-6.64
			c0.858-2.03,2.088-3.855,3.656-5.423c1.566-1.567,3.391-2.797,5.423-3.657c2.1-0.889,4.334-1.339,6.638-1.339
			c2.305,0,4.539,0.451,6.641,1.339c2.03,0.859,3.854,2.09,5.422,3.657c1.566,1.567,2.797,3.393,3.656,5.423
			C620.068,499.698,620.518,501.932,620.518,504.235z"/>
		<path style="fill:#D0D2D3;" d="M603.544,470.847c-18.436,0-33.421,14.947-33.466,33.384
			c-0.047,18.438,14.861,33.384,33.301,33.384c18.436,0,33.42-14.946,33.466-33.384
			C636.891,485.793,621.981,470.847,603.544,470.847z M603.385,534.471c-16.699,0-30.205-13.539-30.164-30.24
			c0.042-16.701,13.615-30.24,30.315-30.24c16.701,0,30.208,13.539,30.166,30.24C633.66,520.932,620.088,534.471,603.385,534.471z"
			/>
		<path style="fill:#D0D2D3;" d="M634.254,507.464l0.016-6.468h-11.023c-0.212-1.333-0.557-2.622-1.019-3.854l9.557-5.511
			l-3.221-5.602l-9.559,5.512c-0.842-1.032-1.785-1.977-2.814-2.821l5.534-9.546l-5.592-3.233l-5.534,9.543
			c-1.231-0.466-2.52-0.814-3.853-1.031l0.026-11.023h-6.469l-0.027,11.023c-1.334,0.216-2.625,0.564-3.857,1.031l-5.488-9.543
			l-5.607,3.233l5.488,9.546c-1.034,0.844-1.982,1.789-2.828,2.821l-9.533-5.512l-3.248,5.602l9.529,5.511
			c-0.469,1.232-0.82,2.521-1.039,3.854h-11.023l-0.016,6.468h11.023c0.213,1.335,0.559,2.625,1.02,3.857l-9.559,5.51l3.223,5.603
			l9.559-5.512c0.845,1.031,1.785,1.976,2.814,2.821l-5.534,9.544l5.593,3.235l5.532-9.544c1.233,0.466,2.521,0.815,3.854,1.031
			l-0.027,11.023h6.468l0.027-11.023c1.335-0.216,2.627-0.565,3.858-1.031l5.487,9.544l5.608-3.235l-5.488-9.544
			c1.034-0.846,1.981-1.791,2.828-2.821l9.534,5.512l3.247-5.603l-9.53-5.51c0.47-1.232,0.821-2.522,1.042-3.857H634.254z
			 M621.383,512.717l8.133,4.703l-1.629,2.811l-8.139-4.706l-1.185-0.685l-0.868,1.057c-0.778,0.947-1.655,1.82-2.602,2.597
			l-1.06,0.867l0.683,1.186l4.684,8.149l-2.813,1.622l-4.684-8.144l-0.683-1.19l-1.285,0.485c-1.144,0.433-2.338,0.751-3.547,0.948
			l-1.352,0.218l-0.004,1.37l-0.021,9.414h-3.242l0.023-9.405l0.004-1.376l-1.359-0.22c-1.207-0.197-2.398-0.516-3.539-0.948
			l-1.281-0.485l-0.686,1.185l-4.726,8.149l-2.801-1.618l4.727-8.148l0.688-1.187l-1.06-0.87c-0.944-0.775-1.814-1.647-2.588-2.594
			l-0.867-1.063l-1.188,0.685l-8.16,4.706l-1.612-2.805l8.161-4.707l1.188-0.684l-0.483-1.281c-0.43-1.144-0.746-2.335-0.939-3.543
			l-0.217-1.359h-1.375h-9.407l0.009-3.24h9.414h1.369l0.223-1.352c0.198-1.208,0.519-2.4,0.957-3.543l0.487-1.283l-1.188-0.688
			l-8.133-4.701l1.629-2.811l8.139,4.704l1.186,0.686l0.869-1.058c0.778-0.948,1.654-1.821,2.602-2.595l1.061-0.868l-0.682-1.186
			l-4.686-8.148l2.815-1.622l4.682,8.144l0.684,1.19l1.285-0.486c1.145-0.433,2.337-0.751,3.546-0.947l1.353-0.22l0.002-1.37
			l0.023-9.414h3.242l-0.024,9.407l-0.003,1.375l1.358,0.221c1.208,0.196,2.399,0.515,3.541,0.947l1.28,0.485l0.688-1.184
			l4.725-8.15l2.799,1.619l-4.725,8.148l-0.688,1.187l1.06,0.87c0.944,0.775,1.815,1.648,2.588,2.594l0.867,1.062l1.188-0.685
			l8.16-4.705l1.613,2.805l-8.162,4.706l-1.186,0.685l0.48,1.281c0.431,1.143,0.746,2.335,0.94,3.542l0.217,1.36h1.375h9.406
			l-0.008,3.24h-9.412h-1.369l-0.223,1.351c-0.199,1.208-0.522,2.4-0.957,3.545l-0.488,1.283L621.383,512.717z"/>
	</g>
	<g>
		<path style="fill:#29212C;" d="M291.194,504.235c0,27.411-22.216,49.628-49.628,49.628c-27.408,0-49.629-22.218-49.629-49.628
			c0-27.407,22.221-49.631,49.629-49.631C268.978,454.604,291.194,476.829,291.194,504.235z"/>
		<path style="fill:#3F3643;" d="M241.566,454.604c-27.408,0-49.629,22.224-49.629,49.631c0,27.411,22.221,49.628,49.629,49.628
			c27.412,0,49.628-22.218,49.628-49.628C291.194,476.829,268.978,454.604,241.566,454.604z M274.076,536.744
			c-4.223,4.223-9.141,7.538-14.615,9.853c-5.664,2.396-11.686,3.611-17.895,3.611s-12.229-1.215-17.894-3.611
			c-5.475-2.315-10.392-5.63-14.614-9.854c-4.223-4.222-7.539-9.139-9.854-14.613c-2.398-5.666-3.612-11.687-3.612-17.895
			c0-6.208,1.214-12.228,3.612-17.893c2.314-5.475,5.631-10.392,9.854-14.616c4.223-4.223,9.141-7.539,14.614-9.854
			c5.665-2.397,11.685-3.612,17.894-3.612s12.23,1.215,17.895,3.612c5.475,2.315,10.393,5.631,14.615,9.854
			c4.221,4.224,7.537,9.141,9.853,14.616c2.395,5.665,3.609,11.685,3.609,17.893c0,6.209-1.215,12.229-3.609,17.895
			C281.614,527.604,278.297,532.521,274.076,536.744z"/>
		<path style="fill:#3F3643;" d="M241.566,465.514c-21.35,0-38.72,17.37-38.72,38.722c0,21.349,17.37,38.719,38.72,38.719
			c21.35,0,38.719-17.37,38.719-38.719C280.285,482.884,262.916,465.514,241.566,465.514z M275.278,504.235
			c0,4.553-0.892,8.967-2.647,13.121c-1.697,4.015-4.129,7.621-7.225,10.717c-3.098,3.097-6.703,5.529-10.718,7.226
			c-4.153,1.757-8.569,2.648-13.122,2.648c-4.553,0-8.969-0.892-13.123-2.648c-4.013-1.697-7.617-4.129-10.715-7.227
			c-3.099-3.096-5.529-6.702-7.227-10.716c-1.757-4.154-2.648-8.568-2.648-13.121c0-4.553,0.892-8.968,2.648-13.121
			c1.697-4.015,4.128-7.621,7.227-10.718c3.098-3.098,6.703-5.529,10.715-7.228c4.156-1.757,8.57-2.648,13.123-2.648
			c4.553,0,8.969,0.892,13.122,2.648c4.015,1.698,7.62,4.13,10.718,7.227c3.096,3.098,5.527,6.704,7.225,10.718
			C274.387,495.268,275.278,499.683,275.278,504.235z"/>
		<g id="XMLID_114_">
			<g id="XMLID_115_">
				<g id="XMLID_116_">
					<path style="fill:#D0D2D3;" d="M276.073,504.23c-0.048,19.058-15.536,34.507-34.594,34.507
						c-19.056,0-34.468-15.449-34.42-34.507c0.047-19.058,15.535-34.506,34.591-34.506
						C260.71,469.724,276.121,485.173,276.073,504.23z"/>
				</g>
			</g>
		</g>
		<g id="XMLID_111_">
			<g id="XMLID_112_">
				<g id="XMLID_113_">
					<path style="fill:#29212C;" d="M272.367,504.231c-0.041,17.01-13.865,30.801-30.877,30.801
						c-17.012,0-30.768-13.791-30.725-30.801c0.042-17.013,13.865-30.801,30.877-30.801S272.41,487.219,272.367,504.231z"/>
				</g>
			</g>
		</g>
		<path style="fill:#919396;" d="M272.359,507.464l0.018-6.468h-11.025c-0.213-1.333-0.558-2.622-1.021-3.854l9.558-5.511
			l-3.221-5.602l-9.561,5.512c-0.842-1.032-1.783-1.977-2.812-2.821l5.534-9.546l-5.593-3.233l-5.533,9.543
			c-1.232-0.466-2.52-0.814-3.854-1.031l0.028-11.023h-6.469l-0.028,11.023c-1.333,0.216-2.624,0.564-3.858,1.031l-5.486-9.543
			l-5.607,3.233l5.488,9.546c-1.035,0.844-1.982,1.79-2.83,2.821l-9.531-5.512l-3.249,5.602l9.53,5.511
			c-0.469,1.232-0.82,2.521-1.039,3.854h-11.023l-0.017,6.468h11.022c0.214,1.335,0.559,2.625,1.021,3.857l-9.557,5.51l3.219,5.603
			l9.561-5.512c0.842,1.031,1.785,1.976,2.814,2.821l-5.535,9.544l5.594,3.234l5.531-9.543c1.233,0.466,2.52,0.815,3.855,1.031
			l-0.027,11.023h6.467l0.029-11.023c1.334-0.216,2.625-0.565,3.857-1.031l5.487,9.543l5.608-3.234l-5.488-9.544
			c1.035-0.846,1.981-1.791,2.829-2.821l9.532,5.512l3.248-5.603l-9.529-5.51c0.469-1.232,0.818-2.522,1.039-3.857H272.359z"/>
		<g id="XMLID_108_">
			<g id="XMLID_109_">
				<g id="XMLID_110_">
					<path style="fill:#29212C;" d="M250.982,504.231c-0.014,5.2-4.238,9.416-9.439,9.416c-5.201,0-9.406-4.216-9.395-9.416
						c0.014-5.201,4.24-9.417,9.441-9.417C246.791,494.814,250.996,499.03,250.982,504.231z"/>
				</g>
			</g>
		</g>
		<g>
			<path style="fill:#D0D2D3;" d="M241.566,519.175c-8.24,0-14.939-6.703-14.939-14.94c0-8.239,6.699-14.941,14.939-14.941
				c8.238,0,14.939,6.702,14.939,14.941C256.506,512.472,249.805,519.175,241.566,519.175z M241.566,490.905
				c-7.351,0-13.33,5.98-13.33,13.331c0,7.349,5.98,13.329,13.33,13.329c7.35,0,13.328-5.98,13.328-13.329
				C254.895,496.885,248.916,490.905,241.566,490.905z"/>
		</g>
		<g id="XMLID_105_">
			<g id="XMLID_106_">
				<g id="XMLID_107_">
					<path style="fill:#CBCDCE;" d="M247.035,504.231c-0.007,3.021-2.462,5.469-5.482,5.469c-3.021,0-5.463-2.448-5.457-5.469
						c0.008-3.022,2.463-5.47,5.484-5.47S247.043,501.21,247.035,504.231z"/>
				</g>
			</g>
		</g>
		<path style="fill:#D0D2D3;" d="M241.566,484.643c-10.803,0-19.592,8.789-19.592,19.592c0,10.802,8.789,19.591,19.592,19.591
			c10.803,0,19.592-8.789,19.592-19.591C261.158,493.432,252.369,484.643,241.566,484.643z M258.623,504.235
			c0,2.304-0.449,4.537-1.34,6.639c-0.857,2.031-2.088,3.855-3.654,5.422c-1.568,1.567-3.393,2.797-5.423,3.656
			c-2.103,0.889-4.337,1.339-6.64,1.339c-2.305,0-4.537-0.451-6.639-1.339c-2.031-0.859-3.855-2.089-5.424-3.656
			c-1.566-1.567-2.797-3.392-3.656-5.423c-0.888-2.102-1.338-4.335-1.338-6.639c0-2.305,0.45-4.538,1.338-6.64
			c0.859-2.03,2.09-3.855,3.656-5.423c1.568-1.567,3.393-2.797,5.424-3.657c2.102-0.889,4.336-1.339,6.639-1.339
			c2.303,0,4.537,0.451,6.64,1.339c2.03,0.859,3.854,2.09,5.423,3.657c1.566,1.567,2.797,3.393,3.654,5.423
			C258.174,499.698,258.623,501.932,258.623,504.235z"/>
		<path style="fill:#D0D2D3;" d="M241.648,470.847c-18.436,0-33.421,14.947-33.465,33.384
			c-0.047,18.438,14.863,33.384,33.299,33.384c18.437,0,33.422-14.946,33.468-33.384
			C274.996,485.793,260.086,470.847,241.648,470.847z M241.492,534.471c-16.702,0-30.209-13.539-30.166-30.24
			c0.041-16.701,13.613-30.24,30.314-30.24c16.702,0,30.207,13.539,30.166,30.24C271.766,520.932,258.192,534.471,241.492,534.471z"
			/>
		<path style="fill:#D0D2D3;" d="M272.359,507.464l0.018-6.468h-11.025c-0.213-1.333-0.558-2.622-1.021-3.854l9.558-5.511
			l-3.221-5.602l-9.561,5.512c-0.842-1.032-1.785-1.977-2.812-2.821l5.534-9.546l-5.593-3.233l-5.533,9.543
			c-1.232-0.466-2.52-0.814-3.854-1.031l0.028-11.023h-6.469l-0.028,11.023c-1.335,0.216-2.624,0.564-3.858,1.031l-5.486-9.543
			l-5.607,3.233l5.488,9.546c-1.035,0.844-1.982,1.789-2.83,2.821l-9.531-5.512l-3.249,5.602l9.53,5.511
			c-0.47,1.232-0.82,2.521-1.039,3.854h-11.023l-0.017,6.468h11.022c0.214,1.335,0.559,2.625,1.021,3.857l-9.557,5.51l3.219,5.603
			l9.561-5.512c0.842,1.031,1.786,1.976,2.814,2.821l-5.535,9.544l5.593,3.235l5.532-9.544c1.233,0.466,2.52,0.815,3.855,1.031
			l-0.027,11.023h6.467l0.029-11.023c1.334-0.216,2.625-0.565,3.857-1.031l5.487,9.544l5.608-3.235l-5.488-9.544
			c1.035-0.846,1.981-1.791,2.829-2.821l9.532,5.512l3.248-5.603l-9.529-5.51c0.469-1.232,0.818-2.522,1.039-3.857H272.359z
			 M259.488,512.717l8.131,4.703l-1.629,2.811l-8.137-4.706l-1.185-0.685l-0.868,1.057c-0.78,0.947-1.654,1.82-2.604,2.597
			l-1.062,0.867l0.684,1.186l4.686,8.149l-2.814,1.622l-4.682-8.144l-0.686-1.19l-1.284,0.485c-1.145,0.433-2.338,0.751-3.547,0.948
			l-1.352,0.218l-0.004,1.37l-0.022,9.414h-3.241l0.023-9.405l0.002-1.376l-1.357-0.22c-1.207-0.197-2.398-0.516-3.539-0.948
			l-1.281-0.485l-0.688,1.185l-4.725,8.149l-2.8-1.618l4.726-8.148l0.688-1.187l-1.061-0.87c-0.945-0.775-1.814-1.647-2.588-2.594
			l-0.867-1.063l-1.188,0.685l-8.161,4.706l-1.612-2.805l8.162-4.707l1.186-0.684l-0.482-1.281
			c-0.429-1.144-0.745-2.335-0.938-3.543l-0.218-1.359h-1.376h-9.404l0.008-3.24h9.414h1.367l0.223-1.352
			c0.199-1.208,0.521-2.4,0.958-3.543l0.489-1.283l-1.189-0.688l-8.133-4.701l1.629-2.811l8.139,4.704l1.186,0.686l0.869-1.058
			c0.777-0.948,1.654-1.821,2.602-2.595l1.061-0.868l-0.682-1.186l-4.685-8.148l2.814-1.622l4.682,8.144l0.684,1.19l1.285-0.486
			c1.145-0.433,2.338-0.751,3.547-0.947l1.351-0.22l0.004-1.37l0.022-9.414h3.241l-0.024,9.407l-0.002,1.375l1.357,0.221
			c1.208,0.196,2.398,0.515,3.541,0.947l1.281,0.485l0.686-1.184l4.727-8.15l2.799,1.619l-4.725,8.148l-0.688,1.187l1.061,0.87
			c0.943,0.775,1.814,1.648,2.588,2.594l0.867,1.062l1.188-0.685l8.16-4.705l1.613,2.805l-8.162,4.706l-1.186,0.685l0.479,1.281
			c0.434,1.143,0.747,2.335,0.941,3.542l0.217,1.36h1.375h9.406l-0.008,3.24h-9.414h-1.368l-0.224,1.351
			c-0.197,1.208-0.52,2.4-0.956,3.545l-0.489,1.283L259.488,512.717z"/>
	</g>
	<path style="fill:#312935;" d="M147.254,394.898c0,0,15.236-39.615,30.195-54.852c0,0,76.184-1.661,98.348-1.939
		c0,0,6.094,1.478,2.029,8.311l-25.485,42.294c0,0-4.064,6.186-11.081,6.186C234.241,394.898,147.254,394.898,147.254,394.898z"/>
	<path style="fill:#312935;" d="M288.74,377.82c0.863-3.087,2.238-6.098,3.389-8.986c2.74-6.901,5.658-13.795,9.268-20.294
		c0.563-1.014,1.143-2.018,1.758-3.001c0.314-0.5,1.639-1.896,1.639-2.444c0,0,2.586-4.986,9.234-4.986
		c0,0,89.064,0.97,131.867,6.094c0,0,19.761,3.325,32.137,13.759l36.566,30.198c0,0,11.451,16.252-7.202,19.207
		c-18.653,2.954-202.419-6.833-202.419-6.833s-5.539-0.555-9.049-4.433c-2.252-2.489-5.801-5.27-7.252-8.305
		c-0.305-0.635-0.467-1.328-0.582-2.023C287.647,383.084,288.012,380.425,288.74,377.82z"/>
	<path style="fill:#312935;" d="M479.364,343.781l-3.245,1.103c-0.934,0.317-1.082,1.572-0.246,2.095
		c8.172,5.119,39.012,24.764,69.396,48.426c1.184,0.921,2.658,1.387,4.156,1.304l10.976-0.61
		C560.401,396.099,521.387,368.403,479.364,343.781z"/>
	<path style="opacity:0.4;fill:#909596;" d="M533.16,398.5l-1.025-3.342c-0.955-3.11-2.867-5.839-5.463-7.799l-49.381-37.248
		c0,0-15.328-10.711-43.771-13.482l-134.729-2.955c0,0-20.225,34.629-25.764,64.549c0,0-2.588,24.134-3.725,42.299
		c9.425,2.647,17.646,6.904,19.977,13.754c0,0,7.572,20.5,10.711,44.325l3.621,9.327h224.283l5.266-18.561
		C533.16,489.367,544.242,439.501,533.16,398.5z M532.084,489.097l-5.025,17.723H304.369l-3.298-8.496
		c-3.098-23.37-10.519-43.793-10.747-44.418c-2.108-6.174-8.786-10.949-19.859-14.201c1.127-17.472,3.539-40.194,3.658-41.321
		c5.07-27.309,22.69-58.994,25.301-63.587l134.031,2.94c27.395,2.677,42.654,12.91,43.188,13.274l49.566,37.389
		c2.277,1.718,3.953,4.112,4.791,6.839l1.094,3.568c5.676,21.01,5.373,44.43,4.119,60.378
		C534.885,476.093,532.234,488.403,532.084,489.097z"/>
	<path style="fill:#1F1916;" d="M547.287,412.167c0,0-0.9,8.103,1.316,10.781l24.311,0.139c0,0,6.049-3.717,6.418-8.703
		c0,0-0.277-1.847-3.416-1.847l-26.041-1.478C549.875,411.059,547.381,411.409,547.287,412.167z"/>
	<path style="fill:#A41E22;" d="M147.254,394.898h-17.731c0,0-3.835,26.028,0,54.022h15.841
		C145.363,448.92,144.711,406.89,147.254,394.898z"/>
	<path style="opacity:0.2;fill:#FFFFFF;" d="M657.203,475.482h52.314l0.203-7.17c0,0-1.385-2.493-3.508-3.879
		c0,0-0.01-0.107-0.025-0.308H654.18C654.875,466.326,656.01,470.209,657.203,475.482z"/>
	<path style="fill:#529496;" d="M690.113,491.398c-0.849,0-1.578,0.607-1.73,1.442l-1.266,6.897
		c-0.188,1.022,0.495,2.002,1.52,2.181l13.236,2.315l3.325-12.835H690.113z"/>
	<path style="fill:#3C7273;" d="M690.113,491.921c-0.849,0-1.578,0.606-1.73,1.441l-1.266,6.896
		c-0.188,1.023,0.495,2.002,1.52,2.181l13.236,2.316l3.325-12.835H690.113z"/>
	<g>
		<path style="fill:#EBE7C7;" d="M706.188,464.125c-0.242-2.94-2.392-26.304-10.254-39.418c-2.305-0.522-5.887-0.909-7.443-1.173
			c-1.416-0.241-2.631,1.006-2.371,2.418c4.17,22.656,3.856,38.172,3.856,38.172H706.188z"/>
		<path style="fill:#F6921E;" d="M697.26,464.125c-0.867-16.467-6.709-35.74-8.22-40.497c-0.188-0.032-0.374-0.065-0.55-0.094
			c-1.416-0.241-2.631,1.006-2.371,2.418c4.17,22.656,3.856,38.172,3.856,38.172H697.26z"/>
		<path style="opacity:0.5;fill:#404041;" d="M704.977,463.017h-3.137h-10.754c-0.021-3.99-0.367-18.197-3.876-37.265
			c-0.073-0.39,0.098-0.664,0.206-0.794c0.182-0.22,0.446-0.346,0.725-0.346c0.053,0,0.109,0.005,0.164,0.014
			c1.816,0.309,5.146,0.664,6.92,1.058l1.435,0.291c-0.235-0.432-0.476-0.855-0.726-1.268c-2.305-0.522-5.887-0.909-7.443-1.173
			c-0.119-0.021-0.236-0.03-0.35-0.03c-1.261,0-2.26,1.154-2.022,2.448c4.17,22.656,3.856,38.172,3.856,38.172h16.213
			c-0.019-0.238-0.053-0.621-0.099-1.108H704.977z"/>
	</g>
	<path style="fill:#404041;" d="M697.465,518.296l-0.58-2.519h-34.905l-0.136,4.631h33.939
		C696.893,520.408,697.715,519.377,697.465,518.296z"/>
	<path style="opacity:0.4;fill:#909596;" d="M147.254,394.898h-5.166h-12.565l-0.208,1.834c0,0,5.756,0,8.906,0
		c3.148,0,2.957,4.982,2.957,4.982l0,0c-1.459,16.385-0.98,47.206-0.98,47.206h5.166C145.363,448.92,144.711,406.89,147.254,394.898
		z"/>
	<path style="opacity:0.3;fill:#909596;" d="M185.869,478.701l-71.201-5.036c0.869,5.468,3.576,16.42,11.529,19.026
		c0,0,38.209,8.163,56.124,10.195C182.321,502.886,183.234,491.681,185.869,478.701z"/>
	<path style="opacity:0.2;fill:#FFFFFF;" d="M661.635,464.125h3.02c-0.513-3.725-1.403-8.16-2.935-13.012
		c-5.078-16.099-24.461-24.177-40.154-27.83c-16.625-3.87-34.752-3.359-50.771,2.557c-20.195,7.458-31.936,27.881-31.174,48.448
		c0,0.01,0,0.02,0,0.03c0.989-5.176,2.984-9.808,4.805-14.872c1.752-4.881,4.533-8.811,8.175-12.622
		c6.253-6.545,15.069-10.395,23.935-12.299c9.969-2.143,20.266-2.895,30.465-2.243c14.283,0.913,29.986,4.526,41.716,12.854
		c5.288,3.754,9.603,8.758,11.603,14.814L661.635,464.125z"/>
	<g style="opacity:0.4;">
		<path style="fill:#909596;" d="M275.797,338.107c-22.164,0.278-98.348,1.939-98.348,1.939
			c-14.959,15.237-30.195,54.852-30.195,54.852s86.987,0,94.006,0c7.018,0,11.081-6.186,11.081-6.186l25.485-42.294
			C281.891,339.585,275.797,338.107,275.797,338.107z M276.102,345.378l-25.46,42.246c-0.273,0.395-3.783,5.259-9.382,5.259h-91.031
			c3.676-9.039,16.029-38.047,28.096-50.84c8.313-0.18,76.135-1.647,97.174-1.916c0.391,0.145,1.252,0.545,1.57,1.33
			C277.426,342.335,277.08,343.73,276.102,345.378z"/>
		<path style="fill:#909596;" d="M514.598,388.158l-36.568-30.198c-12.374-10.434-32.135-13.759-32.135-13.759
			c-42.803-5.124-131.867-6.094-131.867-6.094c-6.648,0-9.234,4.986-9.234,4.986c0,0.548-1.325,1.945-1.639,2.444
			c-0.615,0.983-1.195,1.987-1.758,3.001c-3.609,6.499-6.527,13.393-9.268,20.294c-1.15,2.888-2.527,5.899-3.389,8.986
			c-0.729,2.605-1.093,5.264-0.646,7.951c0.115,0.695,0.277,1.389,0.582,2.023c1.451,3.035,5,5.816,7.252,8.305
			c3.51,3.879,9.049,4.434,9.049,4.434s138.732,7.388,187.348,7.388c7.335,0,12.626-0.168,15.071-0.555
			C526.049,404.41,514.598,388.158,514.598,388.158z M515.58,400.575c-1.036,2.455-3.898,4.069-8.5,4.799
			c-2.225,0.352-7.189,0.531-14.756,0.531c-47.613,0-183.605-7.194-187.179-7.383c-0.427-0.055-4.942-0.702-7.724-3.775
			c-0.712-0.787-1.508-1.565-2.351-2.388c-1.825-1.781-3.713-3.625-4.577-5.434c-0.174-0.364-0.301-0.821-0.41-1.485
			c-0.351-2.112-0.162-4.362,0.598-7.078c0.618-2.213,1.541-4.447,2.432-6.608c0.303-0.733,0.602-1.458,0.889-2.177
			c2.589-6.516,5.489-13.456,9.156-20.06c0.609-1.099,1.168-2.051,1.7-2.902c0.054-0.08,0.243-0.315,0.382-0.487
			c0.707-0.879,1.234-1.575,1.454-2.293c0.517-0.809,2.695-3.708,7.323-3.712c1.502,0.017,89.508,1.045,131.584,6.073
			c1.023,0.182,19.604,3.586,31.146,13.319l36.349,30.016C514.445,391.545,517.154,396.858,515.58,400.575z"/>
	</g>
	<g>
		<path style="opacity:0.2;fill:#404041;" d="M422.184,419.951c-0.197,4.392-5.073,7.741-10.895,7.481
			c-5.822-0.261-10.383-4.031-10.186-8.423c0.195-4.393,5.074-7.742,10.897-7.481C417.82,411.787,422.381,415.559,422.184,419.951z"
			/>
		<path style="fill:#D0D2D3;" d="M425.607,416.954l-28.201-1.26c-0.996-0.045-1.838,0.727-1.884,1.723l-0.104,2.311
			c-0.043,0.995,0.729,1.839,1.725,1.884l28.201,1.26c0.996,0.045,1.84-0.727,1.884-1.723l0.103-2.311
			C427.375,417.842,426.603,416.998,425.607,416.954z"/>
		<path style="opacity:0.2;fill:#404041;" d="M395.463,418.756l-0.045,0.971c-0.043,0.995,0.729,1.839,1.725,1.884l28.201,1.26
			c0.996,0.045,1.84-0.727,1.884-1.723l0.042-0.97L395.463,418.756z"/>
		
			<rect x="401.111" y="415.877" transform="matrix(0.999 0.0443 -0.0443 0.999 18.9647 -17.3867)" style="opacity:0.2;fill:#404041;" width="0.66" height="5.923"/>
		<path style="fill:#404041;" d="M400.006,418.839c-0.037,0.782-0.697,1.386-1.478,1.351c-0.78-0.035-1.385-0.696-1.349-1.476
			c0.033-0.78,0.695-1.385,1.476-1.35C399.435,417.398,400.041,418.06,400.006,418.839z"/>
	</g>
	<g>
		<path style="opacity:0.2;fill:#404041;" d="M314.69,415.146c-0.196,4.393-5.075,7.741-10.896,7.481
			c-5.821-0.262-10.382-4.032-10.185-8.423c0.195-4.392,5.074-7.741,10.896-7.48C310.327,406.982,314.887,410.754,314.69,415.146z"
			/>
		<path style="fill:#D0D2D3;" d="M318.113,412.148l-28.201-1.261c-0.996-0.044-1.839,0.727-1.885,1.723l-0.103,2.311
			c-0.044,0.996,0.728,1.839,1.722,1.884l28.202,1.26c0.997,0.045,1.84-0.726,1.885-1.723l0.103-2.311
			C319.881,413.036,319.109,412.193,318.113,412.148z"/>
		<path style="opacity:0.2;fill:#404041;" d="M287.969,413.951l-0.044,0.971c-0.044,0.996,0.728,1.839,1.722,1.884l28.202,1.26
			c0.997,0.045,1.84-0.726,1.885-1.723l0.043-0.97L287.969,413.951z"/>
		
			<rect x="293.617" y="411.071" transform="matrix(0.999 0.0452 -0.0452 0.999 18.9977 -12.8523)" style="opacity:0.2;fill:#404041;" width="0.659" height="5.924"/>
		<path style="fill:#404041;" d="M292.512,414.035c-0.035,0.781-0.697,1.385-1.477,1.35c-0.781-0.034-1.386-0.696-1.351-1.476
			c0.034-0.781,0.695-1.386,1.476-1.351C291.941,412.594,292.547,413.255,292.512,414.035z"/>
	</g>
	<path style="opacity:0.2;fill:#FFFFFF;" d="M115.893,455.605c29.28-3.417,64.279-3.054,78.828-2.708
		c0.924-1.233,2.067-2.589,3.469-3.978h-68.667l0,0C129.523,448.92,120.119,449.878,115.893,455.605z"/>
	<path style="opacity:0.2;fill:#FFFFFF;" d="M300.803,448.031c-5.077-16.1-24.461-24.178-40.153-27.83
		c-16.626-3.871-34.753-3.361-50.772,2.557c-12.662,4.676-22,14.452-27.018,26.162h4.541c1.256-1.794,2.68-3.5,4.281-5.177
		c6.252-6.546,15.07-10.394,23.934-12.299c9.971-2.142,20.268-2.893,30.465-2.243c14.285,0.912,29.986,4.525,41.717,12.854
		c5.289,3.754,9.603,8.758,11.603,14.814l4.936,15.63C304.336,472.499,305.199,461.974,300.803,448.031z"/>
	<polygon style="opacity:0.3;fill:#909596;" points="306.086,514.299 542.856,519.471 543.654,513.62 305.023,511.563 	"/>
	<path style="opacity:0.3;fill:#909596;" d="M297.182,482.506c1.079,5.029,2.068,10.47,2.809,16.095l6.096,15.698l236.77,5.171
		l2.217-16.252c0,0,0.818-8.031,2.713-17.984L297.182,482.506z"/>
	<path style="opacity:0.3;fill:#909596;" d="M702.889,508.205l-1.016-3.972l3.325-12.835h2.03c0,0,1.551-0.744,1.875-2.556h-49.387
		c1.17,7.713,2.088,16.813,2.263,26.934h34.905C696.885,515.776,701.227,511.991,702.889,508.205z"/>
	<path style="fill:#6CA4B7;" d="M530.66,440.58l-137.918-3.081c-1.132-0.025-2.069,0.872-2.096,2.004l-0.014,0.602
		c-0.024,1.133,0.871,2.07,2.006,2.096l137.916,3.081c1.133,0.024,2.07-0.873,2.096-2.004l0.014-0.602
		C532.69,441.543,531.791,440.605,530.66,440.58z"/>
	<path style="fill:#6CA4B7;" d="M379.507,437.203l-72.182-1.613c-1.132-0.025-2.069,0.872-2.096,2.004l-0.013,0.603
		c-0.025,1.132,0.869,2.07,2.002,2.095l72.184,1.612c1.133,0.026,2.07-0.872,2.096-2.003l0.014-0.603
		C381.537,438.167,380.641,437.228,379.507,437.203z"/>
	<path style="opacity:0.4;fill:#909596;" d="M379.402,441.905l-72.184-1.612c-1.046-0.023-1.885-0.833-1.984-1.851
		c-0.01,0.081-0.027,0.161-0.029,0.244l-0.013,0.604c-0.024,1.131,0.872,2.069,2.003,2.095l72.184,1.613
		c1.132,0.025,2.07-0.872,2.095-2.004l0.015-0.604c0.002-0.083-0.012-0.163-0.02-0.245
		C381.324,441.158,380.45,441.928,379.402,441.905z"/>
	<path style="opacity:0.4;fill:#909596;" d="M530.555,445.282l-137.916-3.081c-1.049-0.023-1.887-0.833-1.986-1.85
		c-0.012,0.081-0.027,0.16-0.029,0.244l-0.014,0.602c-0.025,1.133,0.872,2.071,2.004,2.096l137.916,3.082
		c1.133,0.026,2.071-0.872,2.098-2.004l0.013-0.603c0.001-0.083-0.011-0.164-0.021-0.245
		C532.475,444.534,531.604,445.305,530.555,445.282z"/>
	<path style="fill:#162026;" d="M502.629,394.191l-4.199,6.32l1.639,8.441c0.187,0.951,1.018,1.638,1.989,1.638h9.3
		c0,0,6.283-5.221,6.379-10.079C517.834,395.653,502.629,394.191,502.629,394.191z"/>
	<g>
		<path style="fill:#558AA2;" d="M487.752,397.338l-1.537-14.935c0,0-0.033-2.434,4.35-2.885c0,0,9.734,0.124,13.4,4.246
			c0,0,5.292,7.33,7.393,16.208c0,0-0.783,3.924-3.477,4.014c0,0-9.786,0.444-14.504-1.321
			C493.377,402.665,488.057,400.306,487.752,397.338z"/>
		<path style="opacity:0.2;fill:#FFFFFF;" d="M490.565,379.518c-0.422,0.044-0.802,0.105-1.147,0.182
			c3.051,3.005,11.861,12.448,15.323,24.334c1.856,0.01,3.14-0.048,3.14-0.048c2.693-0.089,3.477-4.014,3.477-4.014
			c-2.101-8.877-7.393-16.208-7.393-16.208C500.299,379.643,490.565,379.518,490.565,379.518z"/>
	</g>
	<path style="opacity:0.3;fill:#FFFFFF;" d="M695.934,424.707c-2.305-0.522-5.887-0.909-7.443-1.173
		c-0.91-0.155-1.736,0.308-2.142,1.032c3.765,3.707,10.993,11.797,17.798,24.845C702.617,441.311,700.063,431.596,695.934,424.707z"
		/>
	<path style="opacity:0.2;fill:#FFFFFF;" d="M694.254,422.186c0,0-5.956-6.094-23.963-10.25c0,0-51.344-11.774-109.89-15.838l0,0
		c0,0.001,6.567,9.342,24.206,11.822c15.643,2.2,71.924,7.205,110.64,15.689C694.926,423.118,694.595,422.642,694.254,422.186z"/>
	<path style="fill:#EBE7C7;" d="M128.451,438.938h4.697c1.559,0,2.822-1.264,2.822-2.824V433.1c0-1.561-1.264-2.825-2.822-2.825
		h-5.191C128.058,433.084,128.217,435.982,128.451,438.938z"/>
	<path style="fill:#EBE7C7;" d="M128.012,413.069h5.137c1.559,0,2.822-1.264,2.822-2.824v-3.014c0-1.56-1.264-2.824-2.822-2.824
		h-4.62C128.33,406.907,128.145,409.825,128.012,413.069z"/>
	<g>
		<defs>
			<path id="SVGID_1_" d="M288.74,377.82c0.863-3.087,2.238-6.098,3.389-8.986c2.74-6.901,5.658-13.795,9.268-20.294
				c0.563-1.014,1.143-2.018,1.758-3.001c0.314-0.5,1.639-1.896,1.639-2.444c0,0,2.586-4.986,9.234-4.986
				c0,0,89.064,0.97,131.867,6.094c0,0,19.761,3.325,32.137,13.759l36.566,30.198c0,0,11.451,16.252-7.202,19.207
				c-18.653,2.954-202.419-6.833-202.419-6.833s-5.539-0.555-9.049-4.433c-2.252-2.489-5.801-5.27-7.252-8.305
				c-0.305-0.635-0.467-1.328-0.582-2.023C287.647,383.084,288.012,380.425,288.74,377.82z"/>
		</defs>
		<clipPath id="SVGID_00000139978902575109615000000015929000601914380428_">
			<use xlink:href="#SVGID_1_"  style="overflow:visible;"/>
		</clipPath>
		<g style="clip-path:url(#SVGID_00000139978902575109615000000015929000601914380428_);">
			<polygon style="opacity:0.25;fill:#FFFFFF;" points="408.451,323.692 358.75,430.274 403.3,430.274 453,323.692 			"/>
			<polygon style="opacity:0.25;fill:#FFFFFF;" points="339.352,323.692 289.649,430.274 305.523,430.274 355.223,323.692 			"/>
			<polygon style="opacity:0.25;fill:#FFFFFF;" points="474.953,323.692 425.252,430.274 451.484,430.274 501.185,323.692 			"/>
			<polygon style="opacity:0.25;fill:#FFFFFF;" points="372.137,323.692 322.438,430.274 332.679,430.274 382.38,323.692 			"/>
			<polygon style="opacity:0.25;fill:#FFFFFF;" points="386.158,323.692 336.459,430.274 343.058,430.274 392.758,323.692 			"/>
		</g>
	</g>
	<path style="fill:#1F1916;" d="M381.299,339.855c-2.424,13.951-4.627,46.753-5.678,64.152c8.104,0.371,16.497,0.745,24.949,1.107
		c-2.016-24.897,1.04-55.16,2.078-64.278C395.582,340.464,388.384,340.138,381.299,339.855z"/>
	<path style="opacity:0.4;fill:#909596;" d="M392.352,336.88l-1-0.112c-0.102,0.911-10.13,91.99-2.719,170.1l1.004-0.096
		C382.234,428.768,392.252,337.79,392.352,336.88z"/>
	<g>
		<defs>
			<path id="SVGID_00000049920004062150806150000016213984674895227054_" d="M147.254,394.898c0,0,15.236-39.615,30.195-54.852
				c0,0,76.184-1.661,98.348-1.939c0,0,6.094,1.478,2.029,8.311l-25.485,42.294c0,0-4.064,6.186-11.081,6.186
				C234.241,394.898,147.254,394.898,147.254,394.898z"/>
		</defs>
		<clipPath id="SVGID_00000064341906726179858310000001836758222832913285_">
			<use xlink:href="#SVGID_00000049920004062150806150000016213984674895227054_"  style="overflow:visible;"/>
		</clipPath>
		<g style="clip-path:url(#SVGID_00000064341906726179858310000001836758222832913285_);">
			<polygon style="opacity:0.25;fill:#FFFFFF;" points="237.662,326.233 195.58,416.479 233.301,416.479 275.383,326.233 			"/>
			<polygon style="opacity:0.25;fill:#FFFFFF;" points="179.152,326.233 137.071,416.479 150.512,416.479 192.594,326.233 			"/>
			<polygon style="opacity:0.25;fill:#FFFFFF;" points="293.969,326.233 251.887,416.479 274.098,416.479 316.182,326.233 			"/>
			<polygon style="opacity:0.25;fill:#FFFFFF;" points="206.914,326.233 164.832,416.479 173.504,416.479 215.588,326.233 			"/>
			<polygon style="opacity:0.25;fill:#FFFFFF;" points="218.787,326.233 176.705,416.479 182.293,416.479 224.373,326.233 			"/>
		</g>
	</g>
</g>
</svg>
