<?xml version="1.0" standalone="no"?>
<!DOCTYPE svg PUBLIC "-//W3C//DTD SVG 20010904//EN"
 "http://www.w3.org/TR/2001/REC-SVG-20010904/DTD/svg10.dtd">
<svg version="1.0" xmlns="http://www.w3.org/2000/svg"
 width="1408.000000pt" height="736.000000pt" viewBox="0 0 1408.000000 736.000000"
 preserveAspectRatio="xMidYMid meet">

<g transform="translate(0.000000,736.000000) scale(0.100000,-0.100000)"
fill="#000000" stroke="none">
<path d="M6062 5349 c-70 -35 -118 -115 -163 -270 -18 -62 -27 -79 -41 -79
-10 0 -84 -7 -164 -15 -288 -30 -367 -57 -463 -152 -82 -82 -84 -87 -347 -784
-30 -82 -80 -141 -136 -164 -23 -9 -128 -31 -233 -49 -230 -38 -265 -54 -326
-149 -48 -74 -73 -153 -93 -289 -18 -122 -36 -320 -36 -400 0 -55 -1 -57 -31
-63 -43 -10 -97 -60 -109 -103 -5 -20 -10 -74 -10 -119 0 -154 30 -225 107
-256 21 -8 99 -25 174 -37 l136 -23 23 -71 c60 -191 217 -342 406 -391 75 -19
233 -19 308 0 184 48 356 211 413 393 16 51 18 52 54 52 36 0 38 -2 54 -52 59
-181 208 -330 385 -387 111 -35 276 -31 386 10 157 59 298 203 356 364 26 73
51 87 62 35 14 -75 81 -185 156 -260 122 -123 237 -171 410 -171 103 0 185 17
265 56 125 60 243 195 290 330 l24 70 178 0 177 0 12 -40 c51 -176 207 -332
389 -391 101 -33 247 -37 340 -10 165 48 301 161 373 307 22 46 45 97 51 112
l11 28 172 -2 c124 -1 181 2 201 12 42 19 66 67 78 157 19 139 -16 233 -91
248 l-30 7 0 147 c0 249 -25 437 -72 537 -30 65 -111 143 -180 176 -95 45
-383 119 -661 170 l-128 23 -4 81 c-4 88 -20 137 -55 168 -18 16 -37 20 -103
21 l-81 1 -48 114 c-27 63 -95 209 -152 324 -125 255 -164 303 -290 365 -97
48 -191 65 -460 83 l-179 12 -28 91 c-35 113 -79 179 -143 219 l-49 30 -521 3
c-515 2 -521 2 -564 -19z m747 -59 c71 -20 110 -86 124 -207 l5 -43 -177 0
-177 0 -12 76 c-10 63 -26 111 -60 177 -6 11 258 9 297 -3z m631 -351 c319
-16 450 -35 537 -77 34 -16 15 -17 -500 -22 -521 -5 -536 -6 -563 -26 -15 -11
-37 -32 -48 -47 -41 -55 -31 -98 124 -522 l141 -390 -15 -65 c-23 -101 -28
-150 -30 -285 l-1 -126 -75 -32 c-244 -106 -410 -314 -478 -596 l-27 -111
-301 0 -301 0 -11 38 c-43 148 -67 381 -67 677 0 252 5 313 36 413 l11 32 294
0 293 0 15 -29 c28 -53 71 -64 237 -59 129 4 153 8 195 29 36 18 54 35 68 64
l20 39 -31 86 c-181 497 -266 717 -288 746 -14 19 -50 47 -78 62 l-52 27 -255
3 c-345 5 -668 -20 -815 -63 -65 -18 -125 -58 -154 -101 -13 -18 -45 -90 -71
-158 -60 -156 -200 -570 -200 -591 0 -27 -28 -28 -100 -5 -39 12 -70 24 -70
25 0 1 15 28 34 58 18 31 44 85 56 119 84 228 222 583 243 624 57 110 140 173
264 199 150 31 565 66 948 79 162 5 815 -4 1015 -15z m657 -205 c44 -33 76
-86 163 -273 77 -164 250 -563 250 -575 0 -3 -294 -6 -653 -6 l-652 0 -19 53
c-10 28 -74 207 -143 396 -131 364 -136 384 -90 416 19 14 91 15 569 13 537
-3 547 -3 575 -24z m-1618 -45 c76 -12 115 -33 141 -74 16 -26 180 -466 180
-484 0 -3 -55 -5 -122 -3 -109 3 -127 1 -155 -17 -45 -28 -65 -74 -71 -158
l-5 -73 -284 0 -285 0 6 58 c3 31 17 206 31 387 14 182 27 337 28 345 2 12 26
16 117 21 207 9 354 9 419 -2z m-619 -30 c0 -30 -48 -662 -56 -726 l-5 -53
-330 0 c-181 0 -329 1 -329 3 1 14 92 282 145 427 78 215 95 251 131 279 40
31 143 59 279 75 168 20 165 20 165 -5z m-70 -861 c0 -2 -7 -28 -15 -58 -8
-30 -20 -120 -27 -199 -18 -225 11 -649 58 -832 8 -31 14 -60 14 -63 0 -3 -42
-6 -94 -6 l-94 0 -7 48 c-20 137 -105 325 -196 437 -82 101 -201 189 -310 230
l-46 17 -6 66 c-5 62 6 230 17 263 3 7 10 33 16 57 l11 42 339 0 c187 0 340
-1 340 -2z m2608 -422 c36 -19 78 -65 91 -99 26 -69 0 -172 -54 -215 -107 -84
-241 -17 -261 131 -10 70 40 162 101 187 32 14 93 11 123 -4z m1266 -3 c13
-45 26 -142 32 -238 8 -119 3 -127 -65 -106 -53 15 -90 47 -112 95 -43 95 -3
212 86 252 41 18 53 17 59 -3z m-394 -73 l35 -25 -270 -5 c-148 -3 -272 -4
-274 -3 -9 5 26 37 54 49 22 10 79 13 225 11 190 -2 196 -3 230 -27z m70 -145
l0 -25 -310 0 -310 0 0 25 0 25 310 0 310 0 0 -25z m-42 -117 c-3 -7 -24 -22
-48 -35 -40 -21 -55 -23 -209 -23 -171 0 -214 6 -260 37 l-26 18 55 6 c30 3
153 6 273 7 167 2 218 -1 215 -10z m-4373 -316 c47 -32 92 -113 101 -183 16
-117 -69 -249 -170 -264 -66 -10 -115 7 -164 56 -53 52 -76 120 -70 203 15
179 173 278 303 188z m2401 19 c145 -66 177 -299 57 -413 -33 -31 -91 -58
-128 -58 -104 0 -205 121 -205 245 0 100 64 201 146 230 53 19 81 18 130 -4z"/>
<path d="M5906 3687 c-11 -8 -17 -23 -14 -38 3 -24 4 -24 135 -27 120 -2 133
-1 142 16 7 14 6 25 -5 40 -14 20 -24 22 -128 22 -76 0 -118 -4 -130 -13z"/>
<path d="M6223 3558 c-6 -7 -26 -47 -46 -89 -21 -46 -42 -79 -53 -82 -11 -4
-52 -9 -92 -13 -71 -7 -102 -21 -102 -48 0 -7 32 -44 70 -82 l71 -69 -16 -80
c-31 -164 -18 -177 109 -104 l87 50 88 -51 c127 -72 138 -63 114 85 l-16 96
66 67 c50 50 67 75 67 95 0 15 -1 27 -2 28 -2 0 -48 6 -102 12 l-99 12 -46 90
c-47 91 -73 114 -98 83z m101 -240 c6 -4 27 -8 46 -8 19 0 45 -3 58 -7 23 -6
22 -7 -24 -54 l-47 -48 10 -68 c6 -37 9 -69 8 -71 -1 -2 -30 12 -64 30 l-61
33 -61 -34 c-61 -33 -62 -33 -56 -10 3 13 9 46 13 72 6 48 6 49 -41 97 l-48
48 49 7 c90 11 90 11 119 77 l28 62 30 -60 c16 -32 35 -62 41 -66z"/>
</g>
</svg>
