<?xml version="1.0" encoding="UTF-8" standalone="no"?>
<svg
   xmlns:dc="http://purl.org/dc/elements/1.1/"
   xmlns:cc="http://creativecommons.org/ns#"
   xmlns:rdf="http://www.w3.org/1999/02/22-rdf-syntax-ns#"
   xmlns:svg="http://www.w3.org/2000/svg"
   xmlns="http://www.w3.org/2000/svg"
   viewBox="0 0 4575.8799 2666.6667"
   height="2666.6667"
   width="4575.8799"
   xml:space="preserve"
   id="svg2"
   version="1.1"><metadata
     id="metadata8"><rdf:RDF><cc:Work
         rdf:about=""><dc:format>image/svg+xml</dc:format><dc:type
           rdf:resource="http://purl.org/dc/dcmitype/StillImage" /></cc:Work></rdf:RDF></metadata><defs
     id="defs6" /><g
     transform="matrix(1.3333333,0,0,-1.3333333,0,2666.6667)"
     id="g10"><g
       transform="scale(0.1)"
       id="g12"><g
         transform="scale(1.58109)"
         id="g14"><path
           id="path16"
           style="fill:#100f0d;fill-opacity:1;fill-rule:nonzero;stroke:none"
           d="m 16118.7,5171.83 c -48,-144.02 -154.8,-265.77 -285.9,-325.73 -75.5,-34.53 -193.7,-63.94 -328.6,-8.35 -217.2,89.56 -314.4,336.35 -332.9,537.42 -19.7,215.1 49.5,511.48 248.3,653.85 41.9,30.05 88.3,48.96 137.7,56.23 196.7,28.9 330.6,-74.95 407.9,-167.23 164,-195.69 229.9,-516.48 153.5,-746.19 z m -575.9,1012.28 c -65.3,-9.56 -126.4,-34.41 -181.4,-73.88 -230.7,-165.33 -311.8,-501.68 -289.5,-744.17 21.2,-230.16 135.9,-514.08 394.2,-620.65 62.7,-25.87 127.2,-38.77 192,-38.77 72.5,0 145.4,16.19 216.2,48.64 155.9,71.28 282.6,215.16 339.2,384.98 86.5,259.89 12.6,621.86 -171.7,841.9 -132.4,157.99 -309.6,229.71 -499,201.95" /></g><g
         transform="scale(2.01106)"
         id="g18"><path
           id="path20"
           style="fill:#100f0d;fill-opacity:1;fill-rule:nonzero;stroke:none"
           d="m 15607.9,5146.17 c 32.9,23.64 69.3,38.51 108.2,44.2 154.8,22.76 259.9,-58.96 320.7,-131.5 128.9,-153.85 180.8,-406.05 120.7,-586.65 -37.7,-113.18 -121.7,-208.9 -224.8,-256.04 -59.3,-27.2 -152.2,-50.27 -258.3,-6.61 -170.8,70.46 -247.2,264.49 -261.7,422.56 -15.6,169.07 38.9,402.09 195.2,514.04 z m -273.4,-521.2 c 16.6,-181 106.7,-404.21 309.9,-487.95 49.3,-20.34 100.1,-30.53 150.9,-30.53 57.1,0 114.4,12.78 170.1,38.29 122.5,55.99 222.2,169.16 266.6,302.62 68,204.37 10,488.9 -135,661.91 -104.1,124.22 -243.4,180.56 -392.3,158.77 -51.3,-7.54 -99.3,-27.07 -142.6,-58.07 -181.4,-129.97 -245.2,-394.39 -227.6,-585.04" /></g><path
         id="path22"
         style="fill:#100f0d;fill-opacity:1;fill-rule:nonzero;stroke:none"
         d="m 14546.7,9095.5 c -16.3,-16.2 -24.3,-39 -21.7,-61.8 l 125.4,-1103.7 -860.7,548.2 c -12.3,7.8 -26.3,11.8 -40.4,11.8 -12,0 -24,-2.9 -35,-8.7 l -902.6,-476.3 214.9,1089.9 c 4.5,22.5 -1.6,45.9 -16.6,63.3 l -695.8,813.6 1005.8,119.6 c 25.1,3 47.1,18.5 58.3,41.3 l 480.6,967.8 400.1,-1003.8 c 9.4,-23.5 30,-40.8 54.8,-45.8 l 992.6,-201.2 z m 927.4,873.6 -1090.6,221 -447.3,1122.3 c -11,27.5 -37.1,46 -66.7,47.2 -29.2,1.8 -57.2,-15 -70.4,-41.7 l -537.3,-1082.1 -1104.9,-131.4 c -27.5,-3.3 -51,-21.5 -61.1,-47.3 -10.1,-25.8 -5.1,-55.1 12.9,-76.1 l 763.5,-892.7 -238.4,-1208.6 c -5.6,-28.4 5.6,-57.5 28.8,-74.8 23.2,-17.3 54.3,-19.6 79.9,-6.2 l 1003.3,529.3 956.7,-609.3 c 12.3,-7.8 26.4,-11.8 40.4,-11.8 13.8,0 27.6,3.9 39.8,11.4 24.5,15.4 38.1,43.5 34.8,72.2 l -139.2,1224 833.7,827.6 c 19.7,19.6 27,48.3 19.1,74.9 -7.9,26.5 -29.9,46.5 -57,52.1" /><g
         transform="scale(1.61229)"
         id="g24"><path
           id="path26"
           style="fill:#100f0d;fill-opacity:1;fill-rule:nonzero;stroke:none"
           d="m 11160,10540.9 c 1.7,0.2 3.5,0.5 5.2,0.9 471.1,107.3 2477.8,175.8 2934,175.8 41.6,0 70.4,-0.5 83.8,-1.7 184.4,-15.9 443.9,-58.2 567.5,-241.3 152.7,-226.2 1361.9,-2096.31 1434,-2240.47 10.9,-21.69 5.6,-31.34 3.1,-35.98 -23.7,-43.53 -143.6,-75.88 -220.4,-84.51 -1747.7,-314.98 -3813,-354.31 -3833.7,-354.66 -0.2,0 -0.3,0 -0.5,0 -87.8,-2.75 -195.9,28.59 -233.4,92.33 -87.6,148.47 -153,323.14 -216.4,492.05 -28.8,76.98 -58.7,156.59 -89.8,231.73 -103,247.35 -212.5,510.9 -320,774.5 -93.9,230.45 -185.4,456.48 -272.1,687.81 -10.1,26.8 -22.3,55.7 -35.1,85.8 -36.1,85.2 -77.1,181.7 -77.1,260.3 0,102.7 200.6,149.2 270.9,157.4 z m -250.4,-537.9 c 87.1,-232.53 178.9,-459.25 273.2,-690.38 107.5,-263.92 217.1,-527.65 320.1,-775.15 30.5,-73.52 58.8,-148.79 88.7,-228.47 64.7,-172.86 131.7,-351.6 223.6,-507.46 57.8,-97.92 194.3,-140.64 308.4,-140.64 4,0 7.9,0.04 11.9,0.14 35.1,0.66 2099.7,40.9 3845.7,355.71 38.9,4.27 235.8,30.73 292.4,134.48 14.7,27.03 26.4,70.93 -1.5,126.72 -81,161.92 -1322.9,2077.45 -1440.4,2251.45 -147,217.8 -435.9,266.4 -640.3,284.1 -202.3,17.4 -2519.9,-57.4 -3045.4,-175.6 -36.1,-4.6 -354.9,-50.7 -354.9,-254.4 0,-98.5 45.1,-204.8 85,-298.6 12.2,-28.7 23.8,-56.2 33.5,-81.9" /></g><g
         transform="scale(1.8966)"
         id="g28"><path
           id="path30"
           style="fill:#100f0d;fill-opacity:1;fill-rule:nonzero;stroke:none"
           d="m 14338.2,6697.4 c 145.5,-44.86 1499.3,-464.99 1795.2,-655.48 50.6,-32.59 77.2,-63.11 73,-83.73 -16.1,-77.52 -281.4,-159.29 -788.5,-243.05 -643.7,-106.3 -2782.8,-434.83 -3285.4,-200.4 -418.7,195.32 -1063.5,592.68 -1314.3,749.99 42.3,2.89 93.4,6.25 149.1,9.91 710,46.63 2589.5,170.1 3370.9,422.76 z m -3656.8,-360.98 c -16.3,-3.83 -28.7,-17.03 -31.6,-33.52 -2.8,-16.48 4.6,-33.06 18.7,-42.07 8.9,-5.71 897.3,-573.64 1428.8,-821.55 138.3,-64.51 385.5,-89.89 689,-89.89 815.8,0 2038.3,183.39 2645.1,283.6 590.6,97.52 830.7,183.98 856.5,308.32 12.1,58.65 -24.6,116.07 -109.4,170.63 -320.9,206.56 -1767,650.16 -1828.5,668.94 -8.2,2.53 -17,2.4 -25.2,-0.28 -763.4,-252.12 -2652,-376.16 -3362.9,-422.86 -200.2,-13.17 -264.3,-17.5 -280.5,-21.32" /></g><path
         id="path32"
         style="fill:#100f0d;fill-opacity:1;fill-rule:nonzero;stroke:none"
         d="m 11568.2,11122.2 c 0,79.6 64.8,144.4 144.5,144.4 h 981.7 c 79.6,0 144.4,-64.8 144.4,-144.4 0,-79.6 -64.8,-144.4 -144.4,-144.4 h -981.7 c -79.7,0 -144.5,64.8 -144.5,144.4 z m 1428.6,0 c 0,166.7 -135.7,302.3 -302.4,302.3 h -981.7 c -166.8,0 -302.4,-135.6 -302.4,-302.3 0,-166.7 135.6,-302.3 302.4,-302.3 h 981.7 c 166.7,0 302.4,135.6 302.4,302.3" /><path
         id="path34"
         style="fill:#100f0d;fill-opacity:1;fill-rule:nonzero;stroke:none"
         d="m 7361.5,11063.8 c -28.32,-26.3 -65.34,-40.3 -103.6,-38.5 0,0 0,0 -0.03,0 l -981.09,36.4 c -38.53,1.4 -74.21,17.8 -100.46,46 -26.24,28.3 -39.9,65.1 -38.46,103.6 1.41,38.6 17.77,74.3 46.03,100.5 26.94,25 61.6,38.6 98.12,38.6 1.83,0 3.66,0 5.49,-0.1 l 981.09,-36.4 c 79.58,-3 141.89,-70.1 138.95,-149.7 -1.41,-38.5 -17.77,-74.2 -46.04,-100.4 z m -87.06,407.9 -981.11,36.4 c -80.28,2.1 -157.72,-25.6 -216.92,-80.6 -59.16,-54.9 -93.4,-129.6 -96.4,-210.3 -3,-80.7 25.62,-157.8 80.58,-217 54.95,-59.1 129.64,-93.3 210.36,-96.4 l 981.09,-36.4 c 3.84,-0.1 7.69,-0.2 11.5,-0.2 76.49,0 149.05,28.5 205.42,80.8 59.18,55 93.42,129.7 96.43,210.4 6.15,166.5 -124.34,307.1 -290.95,313.3" /><g
         transform="scale(1.06348)"
         id="g36"><path
           id="path38"
           style="fill:#100f0d;fill-opacity:1;fill-rule:nonzero;stroke:none"
           d="m 15469.1,4861.76 c 64.9,76.44 141.2,117.16 233,124.39 147.8,12.32 300,-121.48 360.7,-316.97 75.2,-242.69 85.9,-548.67 28.5,-818.35 -30.2,-141.98 -83,-282.28 -144.6,-384.68 -36.6,-60.74 -116.5,-167.28 -240.9,-198.12 -72.5,-17.96 -136.1,-6.2 -194.9,35.92 -156.7,112.46 -234,401.42 -247.7,568.23 -19.3,235.73 -1.3,745.85 205.9,989.58 z m -44.8,-1678.36 c 66.3,-47.67 140.8,-71.84 219,-71.84 32.2,0 65.1,4.05 98.3,12.32 130.7,32.44 248.8,126.85 332.3,265.73 70.9,117.73 128.6,270.53 162.6,430.29 63.5,297.88 51.8,623.42 -31.8,893.29 -82.4,265.44 -293,438.27 -514.5,421.06 -131.3,-10.53 -243.7,-69.77 -334.2,-176.3 -238.2,-280.31 -263.4,-822.02 -240.8,-1097.9 14.8,-179.6 96.5,-524.13 309.1,-676.65" /></g><path
         id="path40"
         style="fill:#100f0d;fill-opacity:1;fill-rule:nonzero;stroke:none"
         d="m 4433.32,5425.8 c 35.74,30.6 77.54,52.2 120.82,62.7 0,0 0,0 0.03,0 19.34,4.7 38.82,6.9 58.11,6.9 26.09,0 51.77,-4.2 76.04,-12.7 269.55,-94.6 404.75,-403.8 413.25,-945.4 5.77,-365.9 -76.97,-626.7 -245.86,-775.1 -104.48,-91.9 -210.37,-123.4 -314.4,-93.7 -143.4,40.8 -280.64,203.1 -341.48,403.7 -133.88,441.7 -117.94,1053.7 233.49,1353.6 z m 64.72,-1909.2 c 34.47,-9.9 74.87,-16.9 119.76,-16.9 97.57,0 216.43,33.3 342.18,143.8 205.26,180.4 306.01,481.9 299.5,896.3 -9.68,615.6 -179.41,972.8 -518.88,1091.9 -70.84,24.8 -148.21,28.5 -223.47,10.3 -67.35,-16.2 -131.8,-49.4 -186.37,-96 -405.39,-346.1 -430.4,-1030.3 -282.05,-1519.6 76.97,-253.8 253.34,-454 449.33,-509.8" /><g
         transform="scale(2.10546)"
         id="g42"><path
           id="path44"
           style="fill:#100f0d;fill-opacity:1;fill-rule:nonzero;stroke:none"
           d="m 9676.46,8724.29 c -51.82,-56.92 -144.48,-72.11 -228.03,-85.79 -104.96,-17.19 -212.92,-19.43 -320.69,-6.76 l -12.44,1.44 c -104.39,11.92 -154.41,27.73 -156.4,85.21 -0.72,19.92 11.44,31.29 36.19,33.77 7.6,0.78 15.29,1.09 22.99,1.09 14.01,0 27.92,-1.04 41.32,-2.27 v -0.01 l 18.38,-1.79 c 17.19,-1.71 34.29,-3.4 51.48,-4.07 52.82,-2.15 100.69,-2.42 146.48,-0.92 111,3.65 208.36,20.91 297.51,52.73 8.36,2.96 16.63,6.21 24.84,9.46 26.31,10.4 44.65,17.06 62.32,15.59 l 2.13,-34.42 41.18,-1.71 c 0.48,-17.98 -9.78,-42.33 -27.26,-61.55 z M 9517.54,1428.48 c -346.72,51.67 -346.72,107.76 -346.72,419.05 0,11.21 -6.65,562.82 -128.19,1122.98 117.51,-13.34 1479.87,-165.94 2316.47,-165.94 37.8,0 74.6,0.33 110.1,0.94 539.7,9.93 2439.5,70.06 4350.5,427.84 25.8,-205.51 42.2,-364.29 49.3,-435.62 -16.6,-0.67 -31.9,-2.38 -45.6,-4.85 -2404.3,-521.26 -4575.4,-395.02 -4597.1,-393.69 -0.2,0.05 -0.4,0.05 -0.7,0.05 -150.5,6.27 -325.9,-16.63 -346.6,-255.1 -10.8,-123.73 6.4,-491.1 24,-762.64 -103.4,-0.66 -1040.31,-4.41 -1385.46,46.98 z m -825,-707.165 c 215.25,394.265 314.14,888.125 293.76,1467.805 -30.06,857.63 -240.99,1413.61 -626.75,1652.46 -44.93,27.83 -91.33,48.35 -138.73,62.41 112.47,9.69 238.33,1.9 364.67,-41.75 406.42,-463.17 510.29,-1565.92 510.29,-2014.71 0,-335.37 17.52,-434.63 410.69,-493.24 57.09,-8.5 129.24,-15.48 210.36,-21.28 C 9698.45,1225.95 9570.21,597.114 9056.98,313.471 8662.81,95.6572 8309.63,107.483 8067.83,164.335 c 325.16,60.842 550.43,420.858 624.71,556.98 z M 7183.47,2809.32 c 11.73,49.25 25.55,98.83 41.13,147.33 69.82,217.53 193.11,440.66 338.17,612.21 142.39,168.38 310.9,268.07 474.62,280.8 98.08,7.6 193.3,-16.53 282.69,-71.86 363.15,-224.85 562.06,-760.26 591.27,-1591.29 19.9,-566.06 -75.89,-1046.95 -284.64,-1429.288 C 8511.87,546.865 8198.06,79.1766 7767.14,278.799 7469.72,416.536 7314.93,787.762 7249.15,996.789 7072.04,1559.66 7047.44,2237.18 7183.47,2809.32 Z m -161.63,-770.86 c -87.11,1.67 -976.13,19.62 -1860.92,61.08 5.31,253.48 13.25,619.58 23.41,1049.75 1035.83,-57.85 1808.68,-91.24 1993.63,-98.98 -8.74,-23.61 -17.24,-47.21 -24.8,-70.72 -16.15,-50.35 -30.54,-101.79 -42.7,-152.94 -59.18,-248.97 -88.29,-517.51 -88.62,-788.19 z m -1862.49,-13.91 c 894.2,-41.85 1791.05,-59.75 1863.34,-61.13 1.71,-92.38 6.7,-184.81 15.16,-276.62 -4.09,1.1 -8.36,1.86 -12.83,1.48 -284.12,-24.79 -1112.58,9.97 -1871.37,55.09 0.81,39.57 2.7,137.31 5.7,281.18 z m -1434.96,-170.7 c -243.62,41.08 -244.59,220.76 -244.52,229.02 0,388.89 -76.61,820.68 -205.65,1185.02 52.03,-3.57 103.92,-7.13 155.63,-10.64 117.12,-392.27 126.7,-750.62 115.23,-889.79 -11.93,-144.95 113.65,-219.71 181.73,-238.99 1.84,-0.53 3.73,-0.95 5.62,-1.14 338.98,-41.94 841.21,-74.52 1351.97,-99.22 -2.95,-141.54 -4.84,-238.71 -5.65,-280.27 -648.81,39.37 -1230.92,85.2 -1354.36,106.01 z M 2352.61,318.22 c 318.19,48.208 571.38,347.478 722.02,671.398 299.38,643.712 229.9,1597.892 12.52,2168.882 -125.98,330.95 -338.69,752.95 -763.44,782.44 142,28.5 304.77,28.41 477.81,-32.34 123.39,-113.61 227.83,-264.41 299,-414.21 28.23,-59.42 54.63,-122.44 79.5,-187.75 0.61,-7.79 3.13,-15.1 7.89,-20.9 135.71,-364.91 216.96,-806.28 216.96,-1202.02 -0.05,-2.51 -2.18,-251.72 307.05,-303.82 48.36,-8.12 162.74,-19.95 321.44,-33.58 -3.29,-4.56 -5.88,-9.65 -6.87,-15.53 C 3927.23,1138.99 3767.09,695.953 3308.19,457.382 3007.02,300.838 2663.39,255.146 2352.61,318.22 Z m -1006.1,1610.34 c -13.07,318.79 0.68,595.21 42.05,844.8 43.02,259.42 123.31,493.48 233.59,684.46 0.76,1.14 1.9,1.95 2.54,3.23 2.1,4.18 4.33,8.36 6.49,12.54 15.42,25.98 31.31,51.29 47.86,75.56 31.2,45.79 71.76,88.3 117.1,126.63 2.03,1.28 4.26,2.13 6.06,3.89 0.51,0.47 6.94,6.46 18.26,16.01 115.94,90.67 257.45,153.22 361.15,167.47 362.35,49.96 628.56,-182.34 837.31,-730.63 249.37,-655.06 244.86,-1563.08 -10.5,-2112.12 -188.75,-405.854 -545.85,-772.521 -982.24,-584.248 -16.25,6.982 -31.98,14.77 -47.47,22.798 -13.34,7.788 -26.95,15.104 -39.97,23.367 -0.94,0.618 -2.03,0.665 -3.02,1.188 -497.59,303.591 -576.52,1156.325 -588.74,1433.465 0.09,0.62 0.44,1.09 0.51,1.71 0.34,3.42 -0.43,6.65 -0.98,9.88 z M 192.47,3916.06 c 4.176,-2.33 8.835,-3.9 13.867,-4.47 419.706,-47.02 933.203,-94.85 1526.203,-142.25 -68.96,-87.82 -128.44,-182.14 -174.88,-274.62 -0.9,-1.8 -0.92,-3.7 -1.51,-5.55 -2.93,-5.09 -5.67,-10.41 -8.56,-15.58 -436.26,37.66 -979.994,88.58 -1374.771,128.81 5.952,106.24 12.508,211.64 19.651,313.66 z m 1702.48,-73.34 c 145.48,149.47 318.36,257 490.9,257 1.35,0 2.74,0 4.09,-0.05 88.22,-0.85 174.71,-29.02 256.45,-75.85 -321.75,47.78 -594.17,-80.03 -751.44,-181.1 z m 1143.83,2034.82 c -72.93,3.23 -145.76,6.64 -218.46,10.19 16.27,41.86 35.77,83.71 55.02,124.77 12.3,26.21 24.42,52.09 35.51,77.51 92.04,211.26 186.72,417.7 258.9,573.94 24.19,52.35 48.3,104.83 72.43,157.36 139.71,304.12 284.19,618.6 449.09,913.7 53.16,95.12 139.84,159.41 267.11,196.45 -201.67,-331.75 -854.16,-1896.59 -919.6,-2053.92 z m 2144.74,-55.23 c -659.04,6.45 -1364.43,21.87 -2064.92,51.77 108.92,261.02 780.89,1864.67 926.83,2052.99 5.86,7.56 8.03,16.66 7.43,25.51 32.23,5.44 66.26,9.76 102.67,12.67 50.23,4.03 527.75,29.56 1129.02,50.82 -36.67,-474.04 -71.15,-1296.64 -101.03,-2193.76 z m 237.39,-1.99 c -53.77,0.37 -107.96,0.81 -162.39,1.29 30.02,900.63 64.64,1725.72 101.45,2197.08 63.74,2.18 128.66,4.29 194.45,6.33 -59.42,-446.47 -122.83,-1945 -133.51,-2204.7 z m 2563.85,20.51 c -9.45,147.04 -24.79,299.03 -45.5,446.14 -28.26,200.87 -83.4,414.78 -277.7,478.31 -57.43,18.8 -120.88,25.13 -205.8,20.42 -166.24,-9.12 -281.03,-67.66 -341.26,-173.97 -69.44,-122.47 -56.33,-276.33 -46.73,-388.68 12.01,-140.75 28.87,-273.57 49.72,-397.07 -464.03,-6.05 -1018.59,-9.61 -1621.54,-6.1 10.92,262.86 76.04,1787.69 134.46,2207.43 609.84,17.98 1281.48,27.65 1748.4,6.33 2.33,-0.19 233.59,-21.35 327.96,-191.23 103.16,-185.63 643.8,-1845.09 669.17,-1976.97 0.85,-4.36 1.42,-8.88 2.18,-13.28 -37.33,-1.43 -165.05,-6.01 -393.36,-11.33 z m -183.47,-100.24 c -43.41,-6.36 -80.51,-35.26 -110.33,-85.86 -50.49,-85.61 -71.77,-203.85 -36.29,-302.02 -1.85,-0.03 -3.66,-0.18 -5.51,-0.2 -17.76,0.07 -36.76,-0.25 -56.28,-0.63 -121.83,-2.33 -259.99,-4.94 -313.24,100.06 -34.67,68.4 -50.48,164.31 -64.45,248.91 -3.99,23.95 -7.79,47.18 -11.92,69.04 -1.14,6.08 -2.09,12.58 -3.23,18.72 0,0.34 0.19,0.62 0.19,0.96 -0.05,2.98 -1.09,5.62 -1.8,8.38 -23.85,132.57 -42.8,277.23 -55.95,431.48 -8.74,102.57 -20.71,243.05 37.28,345.33 47.45,83.8 139.12,128.3 280.13,136.05 75.23,4.14 130.19,-1.08 178.35,-16.82 155.16,-50.72 201.66,-239.51 226.74,-417.48 25.98,-184.56 43.74,-377.23 51.39,-557.2 0.14,-3.32 0.14,-6.56 0.28,-9.87 -36.66,22.76 -75.56,37 -115.36,31.15 z m -50.11,-410.25 c -2.42,8.02 -6.79,15.09 -13.25,19.8 -44.36,78.92 -26.98,190.82 17.62,266.5 17.76,30.1 36.81,46.83 56.61,49.74 32.68,4.73 73.62,-23.18 112.66,-56.36 3.95,-5.53 8.79,-10.3 15.06,-13.06 10.78,-9.55 21.32,-19.22 31.35,-28.49 13.49,-12.44 26.36,-24.36 38.47,-34.72 49.54,-42.48 155.07,-226.73 122.68,-293.78 -16.62,-34.5 -84.07,-27.11 -122.73,-19.62 l -15.72,3.02 c -86.63,16.56 -176.21,33.69 -232.87,94.91 -3.56,3.85 -6.74,7.95 -9.88,12.06 z m 633.97,-502.28 c -0.38,-23.36 0.52,-50.91 1.52,-80.07 3.75,-114.47 8.93,-271.2 -60.75,-327.63 -58.32,-47.11 -137.16,-63.4 -220.61,-80.6 -65.83,-13.53 -133.89,-27.59 -194.69,-58.13 -298.46,-150.04 -498.08,-464.84 -593.93,-765.96 -83.07,3.51 -960.98,41.32 -2120.96,104.06 16.39,660.62 36.9,1414.77 60.32,2126.93 67.06,-0.59 133.6,-1.09 199.62,-1.51 0.43,-0.01 0.81,-0.02 1.24,-0.02 0.04,0 0.09,0.02 0.09,0.02 177.45,-1.12 351.09,-1.66 519.32,-1.66 422.9,0 813.12,3.17 1154.09,7.65 3.71,-19.93 7.18,-40.86 10.74,-62.49 14.86,-89.96 31.68,-191.93 71.57,-270.62 64.55,-127.32 206.32,-141.81 327.34,-141.81 18.71,0 36.91,0.34 54.24,0.68 18.91,0.36 37.14,0.57 54.43,0.62 15.87,-0.27 31.49,0.74 46.97,2.24 3.38,-4.17 6.61,-8.43 10.31,-12.43 73.38,-79.32 179.87,-99.67 273.81,-117.64 l 15.58,-3 c 27.07,-5.23 50.82,-7.54 71.58,-7.54 80.79,0 116.88,34.94 132.98,68.21 56.76,117.57 -85.77,335.6 -141.48,383.32 -11.4,9.82 -23.61,21.09 -36.29,32.87 -9.55,8.81 -19.47,17.94 -29.68,27.06 0.14,23.47 -0.15,47.43 -1.19,71.9 -0.62,14.24 -1.67,28.99 -2.42,43.38 244.6,5.7 373.5,10.57 399.2,11.59 9.59,-101.38 5.93,-208.67 2.18,-313.28 -1.76,-48.8 -3.56,-99.25 -3.85,-147.33 -0.42,-64.74 -0.19,-129.48 -0.05,-194.23 0.29,-96.62 0.58,-196.52 -1.23,-294.58 z M 3296.77,3770.58 c -8.74,16.38 -216.45,401.72 -503.47,584.81 -15.62,17 -96.98,111.05 -96.98,228.55 0,140.16 62.82,1062.25 93.85,1207.09 1.63,7.58 3.59,15.2 5.61,22.82 804.44,-39.72 1625.56,-59.03 2385.27,-66.48 -23.41,-711.18 -43.88,-1463.94 -60.27,-2123.55 -557.91,30.39 -1177.16,66.4 -1802.52,107 -7.06,13.3 -14.12,26.55 -21.49,39.76 z m -128.5,-243.99 c -22.95,48.31 -49.31,96.7 -78.56,144.1 60.48,-4.03 120.96,-8.02 181.4,-11.96 54.38,-107.39 98.66,-216.78 134.47,-324.64 -53.14,3.61 -106.48,7.27 -159.95,10.98 -24.28,63.02 -49.99,123.91 -77.36,181.52 z m 317.8,-197.91 c -34.26,107.48 -76.53,216.77 -128.43,324.44 611.41,-39.52 1215.73,-74.62 1761.29,-104.35 -2.71,-109.76 -5.27,-216.67 -7.74,-320.26 -496.16,27.98 -1049.29,61.36 -1625.12,100.17 z m 23.24,-76.8 c 566.9,-38.05 1111.18,-70.87 1600.07,-98.36 -10.16,-430.22 -18.09,-796.5 -23.41,-1050.42 -506.66,24.51 -1004.32,56.81 -1341.07,98.27 -19.13,6.18 -134.28,48.11 -125.04,159.97 11.56,140.39 2.4,496.99 -110.55,890.54 z m 3697.95,-127.72 c -122.44,5.04 -924.64,38.9 -2021.17,100.17 2.47,103.59 5.08,210.6 7.79,320.41 1101.23,-59.61 1947.84,-96.66 2101.2,-103.26 -17.62,-66.64 -30.35,-131.99 -37.43,-193.73 -0.42,-3.66 0.34,-7.08 0.91,-10.5 -18.53,-37.28 -35.39,-75.09 -51.3,-113.09 z m 567.72,730.63 c -8.32,-4.56 -13.87,-11.97 -16.91,-20.24 -28.45,-16.57 -56.47,-35.57 -84.07,-56.42 230.21,327.53 483.84,296.51 496.04,294.76 1.62,-0.24 3.33,-0.38 4.99,-0.43 110.52,-2.04 208.41,-39.42 295.04,-103.16 -363.2,63.17 -679.85,-106.2 -695.09,-114.51 z m 8035.22,-546.91 c -1906.8,-357.41 -3803.8,-417.49 -4342.3,-427.37 -847.5,-15.82 -2409.22,163.62 -2424.94,165.43 -5.89,0.71 -11.49,-0.43 -16.81,-2.33 -27.31,115.89 -59.75,231.07 -98.27,341.02 C 9192.96,3355.28 10581,3206 11386.3,3206 c 51.2,0 100.3,0.62 146.4,1.9 747.4,20.75 3107.6,141.34 4233.6,415.63 16.6,-111.38 31.2,-217.77 43.9,-315.65 z m -2946.7,3072.27 c -23.5,6.24 -41.8,11.03 -53.8,14.15 -45.5,70.78 -251.1,390.42 -481.9,745.05 106.9,16.03 343.5,39.1 463.7,-46.15 39.5,-28.03 61.7,-65 67.8,-113.04 30.3,-236.43 13,-498.47 4.2,-600.01 z m -5815.35,2442.73 -6.36,-44.46 c -25.46,-1.72 -49.07,-8.63 -68.26,-21.26 -34.29,-22.6 -53.19,-60.81 -53.19,-107.59 0,-117.18 155.36,-246.18 496.38,-252.49 6.36,-0.12 12.68,-0.17 18.9,-0.17 244.74,0 405.04,88.86 468.73,166.61 18.81,22.97 31.06,47 36.76,70.62 5.09,-21.48 16.63,-41.68 34.72,-59.3 80.46,-78.43 285.83,-104.92 419.91,-104.92 13.06,0 25.46,0.26 37,0.74 140.4,5.86 432.54,18.06 440.24,202.97 2.37,56.66 -16.2,89.42 -35.53,108.19 l 65.35,-1.08 c -12.72,-18 -19.75,-40.03 -18.9,-64.99 4.61,-132.15 141.25,-147.77 222.85,-157.1 l 12.21,-1.39 c 48.49,-5.74 97.08,-8.61 145.52,-8.61 66.21,0 132.23,5.35 197.82,16.1 89.25,14.63 200.29,32.83 269.63,109.05 16.87,18.51 32.73,43.86 41.18,71.71 886.99,-31.72 1498.49,-228.27 1768.69,-568.95 178.2,-224.72 1202.4,-1819.09 1212.7,-1835.16 5.1,-7.97 13.1,-13.71 22.3,-16.06 21.7,-5.56 2176.7,-562.58 2543.1,-1058.9 198.9,-269.28 343.7,-974.03 435.1,-1568.48 -1116.6,-273.82 -3477.6,-394.36 -4224.4,-415.07 -813,-22.32 -2509.25,166.62 -2631.6,180.44 -63.16,162.96 -141.01,310.81 -236.86,427.08 -0.95,14.1 -9.64,27.12 -23.69,32.53 -2.14,0.86 -4.28,1.52 -6.42,2.33 -121.63,133.89 -270.67,218.1 -453.39,222.14 -39.47,4.89 -418.96,36.62 -686.22,-536.23 -2.18,-4.7 -3.32,-9.64 -3.46,-14.53 -41.85,-51.15 -81.7,-106.25 -119.03,-164.19 81.65,301.97 275.24,631.78 574.41,782.15 51.92,26.13 112.24,38.52 176.12,51.68 88.58,18.28 180.15,37.14 252.67,95.8 98.65,79.93 92.76,258.18 88.49,388.36 -0.95,28.19 -1.81,54.82 -1.43,76.27 1.76,98.83 1.48,199.13 1.19,296.14 -0.14,64.51 -0.33,129.04 0.1,193.55 0.23,46.96 1.99,94.64 3.75,145.1 5.03,139.63 10.16,284.02 -15.63,418.09 -30.35,157.77 -572.18,1810.06 -677.24,1999.24 -113.61,204.5 -376.21,228.62 -388.75,229.64 -1049.65,47.9 -3126.1,-59.79 -3234.07,-68.46 -167.95,-13.42 -404.97,-55.86 -523.74,-268.41 -166.35,-297.69 -311.46,-613.54 -451.78,-918.99 -24.11,-52.48 -48.2,-104.91 -72.36,-157.2 -72.35,-156.59 -167.24,-363.51 -259.58,-575.45 -10.81,-24.79 -22.65,-50.03 -34.66,-75.62 -35.92,-76.59 -73.06,-155.8 -90.59,-237.6 -32.83,-153.16 -95.51,-1077.29 -95.51,-1222.81 0,-160.96 116.48,-279.27 121.44,-284.26 1.97,-1.95 4.17,-3.71 6.54,-5.23 262.57,-165.33 464.63,-528.67 480.58,-557.88 -64.05,4.23 -128.12,8.45 -192.18,12.78 -164.24,232.53 -397.85,422.9 -647.01,425.37 -1.59,0 -3.13,0 -4.7,0 -217.95,0 -433.58,-149.42 -603.01,-344.39 -6.18,6.74 -14.64,11.44 -24.47,12.2 -600.74,47.83 -1120.16,96.13 -1543.815,143.63 -6.19,0.62 -11.961,-0.62 -17.368,-2.71 21.939,297.04 49.054,557.36 81.383,705.55 88.889,407.48 390.033,528.21 402.727,533.12 1.501,0.57 2.968,1.24 4.38,2 536.223,287.53 1563.653,696.23 1573.973,700.33 9.04,3.59 16.33,10.55 20.34,19.41 159.56,352.95 645.12,1427.05 982.58,1902.96 295.38,416.58 801.05,536.22 807.84,537.82 965.02,268.47 2731.19,418.3 2977.6,438.24 z m 5.23,-118.73 c 16.67,0 35.33,-3.8 53.52,-11.35 21.99,-12.29 181.53,-95.79 397.45,-60.52 183.19,29.98 261.22,70.22 286.35,86.2 19.85,2.59 67.3,3.02 78.51,-47.87 3.46,-15.85 -4.85,-37.56 -22.9,-59.56 -58.99,-72.02 -214.3,-143.19 -428.22,-138.98 -291.57,5.41 -422.76,107.05 -422.76,177.5 0,32.13 14.68,41.78 19.48,44.94 9.78,6.45 23.32,9.64 38.57,9.64 z m 940.74,75.03 c -20.76,-13.89 -44.74,-40.24 -52.96,-87.85 -19.9,79.48 -87.48,104.12 -142.53,102.8 l -1.09,8.65 c 31.82,-1.51 109.66,-3.57 236.05,-6.27 -13.44,-3.42 -26.88,-8.89 -39.47,-17.33 z m 41.75,-62.33 c 10.59,7.1 23.98,9.36 36.14,9.36 12.35,0 23.37,-2.33 28.93,-4.3 24.6,-11.45 259.61,-113.05 608.51,10.46 12.73,4.23 53.43,12.92 73.29,-2.09 14.05,-10.57 16.05,-34.94 15.29,-53.52 -4.85,-115.98 -268.97,-127.01 -368.42,-131.16 -127.1,-5.08 -337.46,20.59 -401.44,82.95 -13.77,13.43 -15.19,23.7 -15.1,30.26 0.47,28.7 8.12,48.24 22.8,58.04 z m 1059.53,583.59 c 43.13,46.32 127.38,62.43 148.18,65.75 75.33,12.03 170.8,5.37 230.36,-33.04 -32.77,-24.45 -100.31,-66.09 -187.42,-72.22 -96.84,-6.75 -165.52,25.14 -191.12,39.51 z m -27.22,-70.61 c 35.15,-18.23 101.65,-44.87 191.32,-44.87 10.45,0 21.23,0.36 32.25,1.14 106.29,7.48 187.03,56.75 227.55,87.18 25.55,-86.7 73.52,-295.38 93.23,-382.46 -15.01,-4.11 -29.11,-9.58 -41.98,-14.68 -7.32,-2.89 -14.73,-5.82 -22.38,-8.52 -81.83,-29.22 -171.74,-45.08 -274.85,-48.46 -43.94,-1.42 -90.05,-1.13 -141.06,0.88 -15.68,0.63 -31.35,2.22 -47.02,3.78 l -19,1.84 c 0,0 0,0 0,0.02 -14.39,1.32 -29.59,2.32 -45.27,2.45 10.5,86.55 37.29,309.37 47.21,401.7 z m -895,48.17 c 39.32,47.73 112.13,75.67 204.75,75.67 98.84,0 181.2,-24.75 220.19,-63.1 -28.35,-20.47 -97.6,-59.88 -215.91,-65.09 -136.51,-5.99 -195.21,39.57 -209.03,52.52 z m 185.61,-128.06 c 8.64,0 17.57,0.2 26.74,0.6 121.83,5.36 200.86,42.65 243.42,70.25 24.79,-106.66 71.1,-355.29 77.65,-411.82 -11.07,-2.36 -19.14,-4.85 -21.66,-5.71 -329.62,-116.68 -549.9,-14.5 -552.94,-13.05 -0.9,0.43 -1.81,0.82 -2.71,1.18 -5.18,2.04 -12.16,4.01 -19.9,5.71 4.32,88.94 16.86,322.43 32.63,410.44 35.05,-24.51 103.26,-57.6 216.77,-57.6 z m -947.3,-34.93 c 124.63,0 210.74,45.44 260.18,82.26 l 54.57,-428.2 c -34.24,-15.75 -105.2,-41.68 -234.05,-62.76 -199.39,-32.64 -347.43,51.26 -349.71,52.56 -1.33,0.77 -2.71,1.47 -4.14,2.08 -7.31,3.15 -14.72,5.86 -22.08,8.19 l 57.33,401.4 c 46.68,-26.38 123.96,-55.53 237.9,-55.53 z m 30.35,228.8 c 119.6,-3.79 176.07,-40.55 202.76,-72.29 -33.01,-28.97 -109.72,-81.51 -233.11,-81.51 -119.83,0 -188.6,35.49 -219.28,56.94 23.46,35.61 88.86,101.91 249.63,96.86 z M 390.879,2081.11 c -292.4593,53.96 -262.819,365.96 -261.424,379.11 0.13,1.19 0.202,2.33 0.217,3.52 4.132,243.98 17.167,653.73 39.037,1063.71 385.312,-39.28 910.921,-88.58 1340.671,-125.87 -89.18,-179.58 -155.11,-388.65 -192.85,-616.3 -40.51,-244.31 -54.81,-513.66 -44.21,-821.15 -140.83,14.96 -605.815,66.12 -881.441,116.98 z M 11390.4,994.937 c -178.7,3.468 -382.6,45.933 -389.5,101.313 -15.9,126.9 -62.7,863.84 -47.2,1041.38 11.7,134.46 76,187.47 233.7,187.47 11.1,0 22.6,-0.29 34.6,-0.81 38.2,-2.28 2211.6,-126.34 4616,395.02 9.5,1.66 232,38.9 272.1,-174.78 46.2,-246.88 62.3,-965.25 62.4,-971.1 -0.1,-4.08 -4.9,-100.12 -162.3,-146.05 l -25.9,-7.69 C 15427.2,1253.17 13864.6,878.525 11390.4,994.937 Z m 2317.3,-42.128 c 375,30.397 710.1,71.001 1003.4,115.791 -100,-228.687 -296.4,-406.323 -557.9,-502.928 -242.4,-89.575 -539.6,-110.57 -788.9,-89.054 150.9,71.149 268,232.682 343.4,476.191 z m -587.4,-437.957 c -19.8,4.798 -38.8,9.831 -56.9,15.247 -157.8,55.189 -278.5,216.39 -362,371.984 331,6.982 639.7,22.607 925.6,44.314 -66.2,-198.342 -190.2,-415.729 -418.1,-435.297 -30.6,-2.66 -60.1,-1.141 -88.6,3.752 z M 16300,1574.72 c -0.6,29.92 -16.3,736.13 -64.5,993.36 -26.1,139.59 -112.8,234.06 -242.1,267.78 -8.7,86.87 -26,250.45 -51.7,453.06 -18.7,145.58 -36.7,274.53 -55,394.41 -130.5,860.48 -286.7,1418.64 -464.2,1658.92 -320.5,433.98 -1751.7,870.37 -2429.3,1057 9.6,121.73 22.1,367.45 -7.3,597.07 -13.6,106.75 -92.2,285.75 -464.6,285.75 -83.4,0 -161.4,-9.05 -212.9,-16.82 -367.1,562.41 -591.4,895.54 -666.8,990.5 -299.8,378.63 -932.9,586.55 -1881.88,617.86 l -12.82,0.53 c -0.29,1.78 -0.62,3.56 -1,5.33 -3.09,13.87 -76.18,340.92 -108.48,443.86 -10.36,33.16 -30.11,63.81 -57.14,88.6 -81.88,75.82 -202.47,87.18 -267.07,87.18 v 0 c -30.58,0 -60.79,-2.36 -89.76,-7 -163.34,-26.23 -268.07,-112.9 -280.23,-231.85 -6.36,-63.06 -27.26,-238.58 -40.84,-352.04 -22.66,0.36 -50.59,0.79 -82.55,1.32 -21.18,124.43 -60.61,324.88 -77.13,382.16 -34.34,117.05 -174.03,189.54 -364.63,189.54 -186.04,0 -326.62,-91.98 -358.21,-234.33 -10.83,-49.76 -21.09,-155.38 -31.2,-321.93 -72.96,1.61 -123.02,2.97 -154.17,4.01 l -39.76,311.48 c -1.23,10.34 -5.84,36.6 -22.13,67.85 -29.64,57.74 -111.9,156.39 -326.67,162.98 -7.13,0.22 -14.16,0.33 -21.09,0.33 -294.52,0.01 -362.44,-197.99 -365.2,-206.42 -1.61,-4.96 -2.8,-10.06 -3.56,-15.22 l -42.93,-302 C 6682.96,8921.17 4999.19,8774.81 4038.24,8508.14 3994.2,8497.74 3475.48,8367.12 3158.67,7920.61 2823.51,7447.8 2353.22,6414.75 2179.07,6029.51 1993.97,5955.38 1124.24,5603.36 629.858,5338.83 578.468,5317.27 251.738,5163.89 154.229,4716.26 111.59,4521.34 74.2934,4136.86 43.3879,3573.57 20.1875,3144.82 6.744,2712.09 2.23192,2469.72 -13.026,2315.5 43.7182,2015.52 367.74,1955.63 c 264.042,-48.49 684.5,-96.13 856.77,-114.75 25.06,-389.46 139.89,-1158.463 646.73,-1466.661 217.14,-137.929 477.99,-210.786 754.41,-210.786 257.41,0 513.83,62.551 741.56,180.91 527.02,274.001 688.68,803.907 780.73,1339.897 718.27,-57.75 1982.83,-131.75 2602.22,-131.75 102.31,0 185.95,1.99 249.31,5.93 26.02,-210.69 69.06,-412.16 128.33,-599.911 67.49,-215.25 227.84,-601.626 543.16,-773.562 0.52,-0.332 1.05,-0.664 1.66,-0.996 C 7709.76,160.678 7980.35,0 8369.24,0 c 255.1,0 507.2,67.8723 749.39,201.713 523.11,289.202 679.47,881.187 717.13,1071.307 318.44,-16.67 719.14,-19.28 940.44,-19.28 33,0 61.1,0.05 83.1,0.14 5.6,-76.99 11.2,-140.92 15.2,-173.45 18,-145.194 225.1,-180.389 293.1,-191.977 104.7,-17.765 205.8,-20.709 219.2,-21.041 315.5,-14.772 630.4,-22.229 935.9,-22.229 87.8,0 176.2,0.618 263.4,1.854 121.4,-228.597 264.3,-374.694 425.3,-434.584 1.6,-0.572 3.2,-1.093 4.8,-1.616 22,-6.839 45.6,-13.299 72.2,-19.757 2,-0.524 4.8,-1.188 8.2,-1.759 132.6,-31.631 287.6,-48.303 448.6,-48.303 237.2,0 468.8,37.284 652.4,104.965 300.5,111.188 525.5,318.887 637.3,587.137 658.2,106.44 1053.6,224.71 1186.4,264.41 10,2.95 18.1,5.42 24.6,7.32 200.7,58.8 254.1,196.1 254.1,267.92 0,0.66 0,1.28 0,1.95" /></g></g></g></svg>